<svg xmlns="http://www.w3.org/2000/svg" width="80" height="80" fill="none" viewBox="0 0 80 80">
    <path fill="#fff" d="M65.877 9.691l-54.175 14.57L13 29.089 67.176 14.52l-1.299-4.829z"/>
    <path fill="#231F20" d="M32.5 18.7l3.4-.9 3.3 4.3-3.4.9-3.3-4.3zM22.4 21.4l3.4-.9 3.3 4.3-3.4.9-3.3-4.3zM11.7 24.3l3.4-.9 3.3 4.3-3.4.9-3.3-4.3zM42.7 16l3.4-1 3.4 4.3-3.4.9-3.4-4.2zM52.9 13.2l3.4-.9 3.3 4.3-3.4.9-3.3-4.3zM63.1 10.5l2.7-.8 1.3 4.9-.7.2-3.3-4.3z"/>
    <path fill="#fff" d="M14 27.3c.442 0 .8-.358.8-.8 0-.442-.358-.8-.8-.8-.442 0-.8.358-.8.8 0 .442.358.8.8.8z"/>
    <path fill="#231F20" d="M17.2 69.8c-2.5 0-4.5-2-4.5-4.5V31.8h55.1v33.5c0 2.5-2 4.5-4.5 4.5H17.2z"/>
    <path fill="#fff" d="M67.3 32.3v33c0 2.2-1.8 4-4 4H17.2c-2.2 0-4-1.8-4-4v-33h54.1zm1-1H12.2v34c0 2.7 2.2 5 5 5h46.1c2.7 0 5-2.2 5-5v-34z"/>
    <path fill="#fff" d="M14 32.1c.442 0 .8-.358.8-.8 0-.442-.358-.8-.8-.8-.442 0-.8.358-.8.8 0 .442.358.8.8.8z"/>
    <path fill="#fff" d="M68.3 28.4H12.2v5h56.1v-5z"/>
    <path fill="#fff" d="M21.9 32.1c.442 0 .8-.358.8-.8 0-.442-.358-.8-.8-.8-.442 0-.8.358-.8.8 0 .442.358.8.8.8z"/>
    <path fill="#231F20" d="M24.3 33.4H12.2v-8.6h6.1l6 5.4v3.2zM33.8 33.4h3.5l2.1-5h-3.5l-2.1 5z"/>
    <path fill="#231F20" d="M23.3 33.4h3.5l2.2-5h-3.5l-2.2 5zM44.4 33.4h3.5l2.1-5h-3.5l-2.1 5zM54.9 33.4h3.5l2.2-5H57l-2.1 5zM65.5 33.4h2.8v-5h-.7l-2.1 5z"/>
    <path fill="#fff" d="M16.5 30.9c.828 0 1.5-.671 1.5-1.5 0-.828-.672-1.5-1.5-1.5s-1.5.672-1.5 1.5c0 .829.672 1.5 1.5 1.5z"/>
</svg>
