<svg width="80" height="80" viewBox="0 0 80 80" fill="none" xmlns="http://www.w3.org/2000/svg">
<path d="M63.1 34.9001C65.9167 34.9001 68.2 32.6167 68.2 29.8001C68.2 26.9834 65.9167 24.7001 63.1 24.7001C60.2833 24.7001 58 26.9834 58 29.8001C58 32.6167 60.2833 34.9001 63.1 34.9001Z" fill="#AB632D"/>
<path d="M17.1 34.9001C19.9167 34.9001 22.2 32.6167 22.2 29.8001C22.2 26.9834 19.9167 24.7001 17.1 24.7001C14.2833 24.7001 12 26.9834 12 29.8001C12 32.6167 14.2833 34.9001 17.1 34.9001Z" fill="#AB632D"/>
<path d="M17.4999 32.9001C18.9358 32.9001 20.0999 31.736 20.0999 30.3001C20.0999 28.8641 18.9358 27.7001 17.4999 27.7001C16.064 27.7001 14.8999 28.8641 14.8999 30.3001C14.8999 31.736 16.064 32.9001 17.4999 32.9001Z" fill="#FDEBC3"/>
<path d="M62.2999 32.7001C63.1999 20.8001 54.2999 13.0001 45.8999 11.0001C46.0999 9.90006 45.9999 8.70006 45.9999 8.70006C45.9999 8.70006 44.3999 9.70006 42.9999 10.5001C42.4999 10.4001 41.9999 10.4001 41.3999 10.4001C41.5999 10.0001 41.6999 9.40006 41.7999 8.40006C41.8999 6.40006 41.7999 6.70006 41.7999 6.70006L37.9999 10.6001C28.2999 11.7001 16.0999 18.2001 18.5999 32.7001C15.0999 33.7001 12.6999 38.7001 11.8999 45.0001C9.89987 60.9001 23.8999 73.3001 40.5999 73.3001C57.2999 73.3001 70.9999 59.6001 68.9999 43.7001C68.1999 37.0001 66.1999 33.9001 62.2999 32.7001Z" fill="#AB632D"/>
<path d="M55.5001 46C57.6001 42.9 58.9001 38.4 58.9001 33.4C58.9001 24 54.3001 16.4 48.6001 16.4C45.3001 16.4 42.4001 18.9 40.5001 22.9C38.6001 18.9 35.7001 16.4 32.4001 16.4C26.7001 16.4 22.1001 24 22.1001 33.4C22.1001 38.1 23.3001 42.4 25.1001 45.5C19.3001 44.2 15.6001 44.8 15.6001 54.6C15.6001 63.8 26.7001 71.2 40.5001 71.2C54.3001 71.2 65.4001 63.8 65.4001 54.6C65.3001 45.4 61.5001 44.9 55.5001 46Z" fill="#FDEBC3"/>
<path d="M62.4001 56.3001C62.4001 59.8001 52.8001 64.1001 41.0001 64.1001C29.2001 64.1001 19.6001 59.7001 19.6001 56.3001C19.6001 47.1001 29.2001 55.8001 41.0001 55.8001C52.8001 55.8001 62.4001 46.3001 62.4001 56.3001Z" fill="#26012A"/>
<path d="M48.9999 27.7001C44.9999 27.7001 41.5999 30.5001 40.5999 34.4001C39.5999 30.5001 36.1999 27.7001 32.1999 27.7001C27.3999 27.7001 23.3999 31.9001 23.3999 37.0001C23.3999 42.1001 27.2999 46.3001 32.1999 46.3001C32.4999 46.3001 32.6999 46.3001 32.9999 46.3001H34.2999C34.5999 44.9001 37.3999 43.8001 40.7999 43.8001C44.1999 43.8001 46.9999 44.9001 47.2999 46.3001H48.2999C48.5999 46.3001 48.7999 46.3001 49.0999 46.3001C49.2999 46.3001 49.5999 46.3001 49.7999 46.3001C54.2999 45.9001 57.7999 41.9001 57.7999 37.1001C57.6999 31.9001 53.7999 27.7001 48.9999 27.7001Z" fill="#DBC096"/>
<path d="M38.5785 48.2262C38.93 47.8748 38.74 47.115 38.1542 46.5292C37.5685 45.9434 36.8087 45.7535 36.4572 46.1049C36.1057 46.4564 36.2957 47.2162 36.8815 47.802C37.4672 48.3878 38.227 48.5777 38.5785 48.2262Z" fill="#6D4A3F"/>
<path d="M44.3661 47.83C44.9519 47.2443 45.1419 46.4845 44.7904 46.133C44.4389 45.7815 43.6791 45.9715 43.0934 46.5573C42.5076 47.1431 42.3176 47.9028 42.6691 48.2543C43.0206 48.6058 43.7804 48.4158 44.3661 47.83Z" fill="#6D4A3F"/>
<path d="M26.1999 28.3C25.9999 28.3 25.6999 28.2 25.4999 28C25.0999 27.6 25.0999 27 25.3999 26.6C27.4999 24.3 30.3999 23 33.4999 23C34.1999 23 34.9999 23.1 35.6999 23.2C36.1999 23.3 36.5999 23.8 36.4999 24.4C36.3999 24.9 35.8999 25.3 35.2999 25.2C34.6999 25.1 34.0999 25 33.4999 25C30.9999 25 28.5999 26.1 26.8999 27.9C26.7999 28.2 26.4999 28.3 26.1999 28.3Z" fill="#6D4A3F"/>
<path d="M55.3999 28.3C55.5999 28.3 55.8999 28.2 56.0999 28C56.4999 27.6 56.4999 27 56.1999 26.6C54.0999 24.3 51.1999 23 48.0999 23C47.3999 23 46.5999 23.1 45.8999 23.2C45.3999 23.3 44.9999 23.8 45.0999 24.4C45.1999 24.9 45.6999 25.3 46.2999 25.2C46.8999 25.1 47.4999 25 48.0999 25C50.5999 25 52.9999 26.1 54.6999 27.9C54.7999 28.2 55.0999 28.3 55.3999 28.3Z" fill="#6D4A3F"/>
<path d="M32.1001 44.1001C35.6899 44.1001 38.6001 41.1899 38.6001 37.6001C38.6001 34.0102 35.6899 31.1001 32.1001 31.1001C28.5102 31.1001 25.6001 34.0102 25.6001 37.6001C25.6001 41.1899 28.5102 44.1001 32.1001 44.1001Z" fill="white"/>
<path d="M32.2001 41.1C33.9122 41.1 35.3001 39.7121 35.3001 38C35.3001 36.2879 33.9122 34.9 32.2001 34.9C30.488 34.9 29.1001 36.2879 29.1001 38C29.1001 39.7121 30.488 41.1 32.2001 41.1Z" fill="black"/>
<path d="M48.8999 44.1001C52.4898 44.1001 55.3999 41.1899 55.3999 37.6001C55.3999 34.0102 52.4898 31.1001 48.8999 31.1001C45.3101 31.1001 42.3999 34.0102 42.3999 37.6001C42.3999 41.1899 45.3101 44.1001 48.8999 44.1001Z" fill="white"/>
<path d="M48.9999 41.1C50.712 41.1 52.0999 39.7121 52.0999 38C52.0999 36.2879 50.712 34.9 48.9999 34.9C47.2878 34.9 45.8999 36.2879 45.8999 38C45.8999 39.7121 47.2878 41.1 48.9999 41.1Z" fill="black"/>
<path d="M58.5998 55.1C58.5998 53.6 58.2998 52.6 57.7998 51.9C53.8998 52.7 47.7998 55.8 40.9998 55.8C33.9998 55.8 27.7998 52.8 23.8998 52.2C23.4998 52.9 23.2998 53.8 23.2998 55.1C23.2998 57.4 31.1998 60.4 40.8998 60.4C50.6998 60.4 58.5998 57.4 58.5998 55.1Z" fill="white"/>
<path d="M62.4001 56.3001C62.4001 59.8001 52.8001 64.1001 41.0001 64.1001C29.2001 64.1001 19.6001 59.7001 19.6001 56.3001C19.6001 47.1001 29.2001 55.8001 41.0001 55.8001C52.8001 55.8001 62.4001 46.3001 62.4001 56.3001Z" stroke="#977866" stroke-width="1.5956" stroke-miterlimit="10"/>
<path d="M62.7001 32.8001C64.136 32.8001 65.3001 31.636 65.3001 30.2001C65.3001 28.7642 64.136 27.6001 62.7001 27.6001C61.2642 27.6001 60.1001 28.7642 60.1001 30.2001C60.1001 31.636 61.2642 32.8001 62.7001 32.8001Z" fill="#FDEBC3"/>
<path d="M64.1002 72.5C71.4002 69.9 68.2002 63.3 68.2002 63.3L60.6002 49.8L52.7002 52.2001C52.7002 52.2001 55.1002 63.0001 55.3002 67.3001C55.5002 74.2001 64.1002 72.5 64.1002 72.5Z" fill="#BA7139"/>
<path d="M59.3001 57.7001C55.5001 59.7001 52.4001 59.2001 48.3001 52.3C44.2001 45.4 44.8001 43.7001 42.7001 40.4001C40.6001 37.1001 37.3001 33.9001 39.2001 32.7001C41.2001 31.4001 41.4001 32.1 41.4001 32.1L40.2001 30.4001C40.2001 30.4001 38.8001 28.3001 40.3001 27.1001C41.8001 25.9001 42.8001 27.0001 42.8001 27.0001C42.8001 27.0001 41.0001 24.7001 43.0001 23.5001C45.1001 22.3001 46.7001 24.6001 46.7001 24.6001C46.7001 24.6001 47.3001 24.1001 48.1001 24.0001C48.9001 23.9001 50.2001 24.0001 50.5001 24.4001C50.7001 24.8001 53.6001 28.5 55.1001 30.8C56.6001 33.1 57.1001 33.5001 57.1001 33.5001C57.1001 33.5001 57.5001 31.7001 59.2001 31.5001C60.9001 31.3001 61.9001 31.6 62.7001 33.3C63.5001 35 66.1001 43.1 64.7001 48C63.3001 53.1 61.5001 56.5 59.3001 57.7001Z" fill="#DBC197"/>
<path d="M54.1003 35.7C54.4003 35.5 54.5003 35.2 54.3003 34.9C54.2003 34.8 52.6003 31.9 50.8003 29.5C49.0003 27.1 47.2003 25 47.1003 25C46.9003 24.8 46.5003 24.7 46.3003 24.9C46.1003 25.1 46.0003 25.5 46.2003 25.7C46.2003 25.7 48.0003 27.8 49.8003 30.1C51.6003 32.4 53.2003 35.3 53.2003 35.4C53.4003 35.8 53.8003 35.9 54.1003 35.7Z" fill="#A68266"/>
<path d="M50.6999 37.7C50.9999 37.5 51.0999 37.2 50.8999 36.9C50.7999 36.8 49.1999 33.9 47.3999 31.5C45.5999 29.1 43.7999 27 43.6999 27C43.4999 26.8 43.0999 26.7 42.8999 26.9C42.6999 27.1 42.5999 27.5 42.7999 27.7C42.7999 27.7 44.5999 29.8 46.3999 32.1C48.1999 34.4 49.7999 37.3 49.7999 37.4C50.0999 37.8 50.3999 37.9 50.6999 37.7Z" fill="#A68266"/>
<path d="M47.2003 40.6C47.5003 40.4 47.6003 40.1 47.4003 39.8C47.3003 39.7 45.7003 36.8 43.9003 34.4C42.1003 32 42.1003 32.1 42.1003 32.1C41.9003 31.9 41.5003 31.8 41.3003 32C41.1003 32.2 41.0003 32.6 41.2003 32.8C41.2003 32.8 41.2003 32.8 43.0003 35.1C44.8003 37.4 46.4003 40.3 46.4003 40.4C46.6003 40.7 46.9003 40.8 47.2003 40.6Z" fill="#A68266"/>
<path d="M61.9001 42.2001C62.2001 42.1001 62.3001 41.7001 62.2001 41.4001C62.1001 41.3001 60.9001 38.2001 59.4001 35.6001C57.9001 33.0001 57.9001 33.0001 57.9001 33.0001C57.7001 32.7001 57.3001 32.6001 57.1001 32.8001C56.8001 33.0001 56.8001 33.4001 56.9001 33.6001C56.9001 33.6001 56.9001 33.6001 58.4001 36.1001C59.8001 38.6001 61.1001 41.7001 61.1001 41.8001C61.2001 42.1001 61.6001 42.3001 61.9001 42.2001Z" fill="#A68266"/>
<path d="M15.1 72.2C8 69.1 11.7 62.8 11.7 62.8L20.2 49.9L27.9 52.9C27.9 52.9 24.7 63.4 24.2 67.7C23.5 74.5 15.1 72.2 15.1 72.2Z" fill="#BA7139"/>
<path d="M20.9998 57.7001C24.5998 59.9001 27.6998 59.7001 32.2998 53.2001C36.8998 46.7001 36.4998 44.9001 38.7998 41.7001C41.1998 38.6001 44.6998 35.6001 42.7998 34.2001C40.8998 32.8001 40.6998 33.5001 40.6998 33.5001L42.0998 31.9001C42.0998 31.9001 43.6998 29.9001 42.1998 28.6001C40.6998 27.3001 39.6998 28.3001 39.6998 28.3001C39.6998 28.3001 41.5998 26.2001 39.6998 24.9001C37.6998 23.6001 35.8998 25.8001 35.8998 25.8001C35.8998 25.8001 35.2998 25.3001 34.5998 25.1001C33.7998 24.9001 32.4998 24.9001 32.1998 25.4001C31.9998 25.8001 28.7998 29.3001 27.0998 31.5001C25.3998 33.7001 24.8998 34.0001 24.8998 34.0001C24.8998 34.0001 24.5998 32.2001 22.9998 31.8001C21.3998 31.4001 20.2998 31.7001 19.3998 33.3001C18.4998 34.9001 15.2998 42.8001 16.2998 47.8001C17.2998 52.8001 18.8998 56.4001 20.9998 57.7001Z" fill="#DBC197"/>
<path d="M27.9 36.2001C27.6 36.0001 27.6 35.7001 27.8 35.4001C27.9 35.3001 29.7 32.5001 31.7 30.3001C33.7 28.1001 35.7 26.1001 35.7 26.1001C35.9 25.9001 36.3 25.9001 36.5 26.1001C36.7 26.3001 36.7 26.7001 36.5 26.9001C36.5 26.9001 34.5 28.9001 32.6 31.0001C30.7 33.2001 28.8 36.0001 28.8 36.0001C28.5 36.3001 28.2 36.4001 27.9 36.2001Z" fill="#A68266"/>
<path d="M31.0001 38.4C30.7001 38.2 30.7001 37.9 30.9001 37.6C31.0001 37.5 32.8001 34.7 34.8001 32.5C36.8001 30.3 38.8001 28.3 38.8001 28.3C39.0001 28.1 39.4001 28.1 39.6001 28.3C39.8001 28.5 39.8001 28.9 39.6001 29.1C39.6001 29.1 37.6001 31.1 35.7001 33.2C33.8001 35.4 31.9001 38.2 31.9001 38.2C31.7001 38.6 31.3001 38.6 31.0001 38.4C31.0001 38.5 31.0001 38.5 31.0001 38.4Z" fill="#A68266"/>
<path d="M34.2999 41.6001C33.9999 41.4001 33.9999 41.0001 34.1999 40.7001C34.2999 40.6001 36.0999 37.8001 38.0999 35.6001C40.0999 33.4001 40.0999 33.4001 40.0999 33.4001C40.2999 33.2001 40.6999 33.2001 40.8999 33.4001C41.0999 33.6001 41.0999 34.0001 40.8999 34.2001C40.8999 34.2001 40.8999 34.2001 38.9999 36.3001C37.0999 38.5001 35.1999 41.3001 35.1999 41.3001C34.9999 41.7001 34.5999 41.8001 34.2999 41.6001Z" fill="#A68266"/>
<path d="M19.6 42.0001C19.3 41.8001 19.2 41.5001 19.4 41.2001C19.5 41.1001 21 38.1001 22.6 35.6001C24.3 33.1001 24.2999 33.2001 24.2999 33.2001C24.4999 32.9001 24.9 32.9001 25.1 33.1001C25.4 33.3001 25.4 33.7001 25.2 33.9001C25.2 33.9001 25.2 33.9001 23.6 36.3001C22 38.7001 20.5 41.7001 20.5 41.7001C20.3 42.1001 19.9 42.2001 19.6 42.0001Z" fill="#A68266"/>
</svg>
