<svg xmlns="http://www.w3.org/2000/svg" width="80" height="80" fill="none" viewBox="0 0 80 80">
    <g clip-path="url(#prefix__clip0)">
        <path fill="#fff" d="M38.1 21.1c.2.2.3.4.3.6 0 .2-.2.4-.3.6-.1.2-.1.5-.3.7-.1.2-.3.2-.5.3-.2.1-.5.2-.7.2.1.1 0 .3-.1.4-.1.1-.2.3-.3.4-.2.2-.3.4-.6.6-.3.2-.7.3-1 .4-.2.1-.5.1-.7.1-.4 0-.7-.1-1-.2l-.6-.3c-.1-.1-.2-.3-.3-.5 0-.1-.1-.2-.1-.3 0-.4.4-.7.7-.9-.4-.2-.7-.5-1-.8-.1-.1-.1-.2-.2-.3-.1-.2-.1-.5-.1-.8v-.2c0-.1.1-.1.1-.1.2-.1.4-.2.5-.3.2-.1.4-.3.4-.5V20c-.1-.3-.1-.6-.1-1 0-.2 0-.4.1-.6.2-.3.5-.4.8-.5.3-.1.6-.1.8.1.1.1.2.3.3.4.2-.3.5-.7.9-.8h.5c.4.1.8.2 1.2.4.3.2.7.4.8.8.1.2.1.5.1.7 0 .2-.1.4-.2.5-.1.1-.4.2-.4.4s.3.2.4.3c.3.2.5.3.6.4z"/>
        <path fill="#FFFEDC" d="M38 21.2c.2.2.3.4.2.7 0 .1-.1.2-.2.3-.1.1-.1.2-.2.4 0 .1-.1.2-.1.4-.1.1-.2.2-.3.2l-.9.3c-.1 0-.2.1-.1.2s-.2.4-.2.5c-.1.2-.3.4-.4.6-.3.3-.7.5-1.2.6-.2.1-.5.1-.7.1-.2 0-.5-.1-.7-.2-.2-.1-.4-.1-.6-.3-.2-.1-.3-.3-.4-.5-.1-.2-.1-.4.1-.6.1-.2.3-.3.5-.4.1 0 .1-.1 0-.2-.2-.1-.5-.3-.7-.5-.2-.2-.4-.4-.5-.6 0-.1-.1-.3-.1-.4v-.2-.2l.1-.1c.1 0 .1-.1.2-.1.1-.1.3-.1.4-.2.2-.1.4-.3.4-.5 0-.1 0-.3-.1-.4 0-.1-.1-.3-.1-.4 0-.3-.1-.6 0-.9.1-.2.2-.4.5-.4.2-.1.5-.2.7-.1.3 0 .3.3.5.5.1.1.2 0 .3 0 .1-.2.3-.4.4-.5.2-.2.4-.2.6-.2.5 0 1 .2 1.5.5.2.1.4.3.5.5.1.2.1.5.1.7 0 .2 0 .4-.2.5-.1.1-.3.2-.4.3-.1.2.1.3.2.4.1 0 .2.1.3.1.3-.1.5 0 .6.1.1.1.4 0 .3-.2-.2-.2-.4-.3-.6-.4-.1 0-.2 0-.2-.1s.1-.1.1-.1c.2-.1.3-.2.4-.4.1-.2.1-.5.1-.7 0-.3-.1-.5-.2-.7-.1-.2-.4-.4-.6-.5-.5-.3-1-.5-1.6-.5-.3 0-.6.1-.8.3-.2.2-.4.4-.5.6h.3c-.1-.1-.1-.2-.2-.3-.3-.2-.4-.2-.5-.3-.3-.1-.5 0-.8 0-.3.1-.5.1-.7.3-.2.2-.3.5-.3.7 0 .3 0 .6.1.9 0 .1.1.3.1.4 0 .1-.1.2-.2.3-.1.1-.3.2-.4.2-.1.1-.3.1-.4.3-.1.1-.1.2-.1.4v.5c0 .3.2.6.5.8.2.2.5.4.8.6v-.2c-.4.2-.8.6-.7 1.1 0 .2.2.5.3.7.2.2.4.3.6.4.3.1.5.2.8.2.3 0 .6 0 .9-.1.5-.1 1.1-.3 1.5-.7.2-.2.4-.5.6-.7.1-.2.4-.5.2-.7 0 .1-.1.1-.1.2.3-.1.7-.2 1-.3.1-.1.3-.2.4-.3.1-.1.1-.3.2-.4 0-.1.1-.3.2-.4.1-.1.2-.3.2-.4.1-.3-.1-.6-.3-.8-.2.1-.3.1-.4.1 0 0-.1.1 0 .2z"/>
        <path fill="#FFFEDC" d="M33.2 24.7c.3.4.7.5 1.2.4.2 0 .4-.1.5-.2.2-.2.3-.4.5-.6h-.3c-.1 0-.2 0-.3.1-.1.1-.2.2-.2.3 0 .1-.1.1-.2.2 0 0-.2.1-.1.1h-.1c-.1 0-.1 0-.2-.1s-.3-.2-.4-.3c.1-.1-.3.1-.4.1zM34.7 18.7c.1-.3.2-.6.4-.7.3-.2.5-.2.8-.1.5.1 1.1.4 1.4.9 0 .1.5-.1.5-.1-.2-.4-.6-.6-1-.7-.4-.2-.7-.3-1.1-.3-.3 0-.7.1-1 .2-.4.2-.6.5-.7.9.1 0 .6.1.7-.1zM32.5 22.1v-.2-.2c0-.1 0-.1 0 0 0 0 .1 0 .1-.1.1 0 .1-.1.2-.1s.1-.1.2-.2l.1-.2c-.6.1-.9.8-.8 1.3 0 .1.1-.1.1-.1s.1-.1.1-.2zM33.3 22v-.2-.2c-.1.1-.1.1 0 .1H33.6c.1 0 .1-.1.2-.2l.1-.2c-.3 0-.4.2-.6.4-.1.2-.2.5-.2.8 0 .1.1-.1.1-.1 0-.2.1-.3.1-.4zM36.3 20c.2.1.5-.2.7-.3.2-.2.4-.5.3-.8 0-.1-.1.1-.1.1 0 .1-.2.2-.1.3v.1c0 .1 0 .1 0 0 0 0-.1.1-.2.1-.1.1-.2.1-.4.1-.1-.1-.3.4-.2.4z"/>
        <path fill="#EBE3B2" d="M33.2 24.1c-.1-.1-.2-.2-.2-.3 0 0 0-.1.1-.1 0 0 .1-.1.2-.1.2 0 .4-.1.6-.1h.2c.1-.1.1-.2.1-.3v-1c.2-.1.3.1.5.2.1.1.2.1.3.1.1 0 .3 0 .3-.1s0-.2-.1-.2-.2-.1-.3-.1c-.2-.1-.4-.2-.5-.4l-.3-.6c0-.1-.1-.2 0-.3.1-.2.3-.2.3-.4 0-.1-.1-.2-.1-.2-.1-.2-.2-.2-.3-.2-.3 0-.5-.1-.7-.3-.1-.2-.1-.5.1-.7h.2c.3.2.7.4.8.7.1.1.1.2.1.4.1.1.1.2.3.3h.1c.1 0 0-.2 0-.3 0-.2.3-.2.3-.3.1-.1 0-.3.2-.3.1 0 .2 0 .2.1l.5.5c.1.1.2.2.2.3 0 .1-.1.2-.2.2s-.2.1-.3.1c-.2.2-.2.4-.1.7.1.3.2.5.4.7.1.1.2.3.1.4-.1.1-.3.1-.4.1-.3 0-.5.3-.5.5-.1.1-.4 0-.6 0-.2 0-.3.2-.4.3-.1.1-.1.3 0 .4 0 .1.1.1.2.2v.2c-.2.4-.9.6-.9.1-.1-.1-.3-.1-.4-.2z"/>
        <path fill="#FFFEDC" d="M37.9 21.6c0 .6-.2 1.2-.6 1.5-.2.2-.5.4-.9.4-.3 0-.7-.2-.9-.4h-.3l-.3.1c.6.5 1.5.5 2.3.2.8-.3 1.3-1.1 1.2-1.9.1 0-.5 0-.5.1zM36.1 20.7c.6-.1 1.2-.2 1.6-.5.5-.4.4-1.1.1-1.6-.1-.1-.5.1-.5.1.2.3.3.7.2 1.1-.2.4-.7.7-1.1.8-.1 0-.3 0-.4.1h.1zM32.4 25.1c.4.2.9.5 1.4.5.4 0 .8-.1 1.2-.2.8-.3 1.5-.8 1.8-1.6h-.3c-.1 0-.2 0-.3.1-.3.6-.7 1-1.3 1.3-.3.2-.7.3-1.1.2-.3-.1-.7-.3-1-.4h-.3s-.2.1-.1.1zM32 22.3c-.1-.2-.4-.4-.4-.7 0-.3.3-.5.4-.7.4-.4.9-.7 1.5-.7h.4s.2 0 .1-.1c-.7-.1-1.4.1-2 .4-.3.2-.6.4-.8.7-.1.2-.2.4-.2.6.1.2.3.4.4.5.2.2.6 0 .6 0zM32.7 19.8c-.1-.2-.1-.4-.2-.6 0-.2-.1-.5 0-.6.1-.1.4-.2.5-.2h.6c.1 0 .3-.4.3-.4-.6-.1-1.1 0-1.5.6-.3.5-.2 1.1 0 1.7l.2-.2c0-.1.1-.3.1-.3zM32.8 23.4c-.2-.3-.6.3-.7.4-.1.1-.2.3-.2.4 0 .2.1.3.2.5 0 0 .3-.3.3-.4-.1-.1-.2-.3-.1-.4.1-.1.2-.2.3-.1-.1 0 .2-.4.2-.4z"/>
        <path fill="#fff" d="M28.9 22.7c-.1-.3-.1-.6.1-.8.1-.1.3-.2.4-.3.1-.1.1-.2.1-.3.1-.2.4-.3.6-.3h.7c.1 0 .3-.1.4-.1.2 0 .5.1.7.3.2.2.3.4.4.6.1-.2.4-.3.6-.3.2 0 .5.1.7.2.2.1.4.1.6.2.2.2.2.5.2.8 0 .2-.1.3-.2.4-.1.1-.2.2-.2.3-.2.4 0 1-.2 1.5-.1.3-.3.5-.4.8 0 .1 0 .1-.1.2 0 .1-.1.1-.2.1-.8 0-1.6-.5-1.9-1.2 0 .2 0 .4-.1.6-.1.1-.3.2-.5.1-.2 0-.3-.1-.5-.2-.3-.2-.6-.4-.7-.7-.1-.2-.1-.4 0-.6 0-.2.2-.4.2-.6-.1-.3-.6-.4-.7-.7z"/>
        <path fill="#FFFEDC" d="M29.1 22.6c-.1-.2-.1-.3 0-.5s.2-.3.3-.4l.2-.2c0-.1.1-.1.1-.2.1-.2.2-.2.4-.2h.7c.2 0 .4-.1.6-.1.4.1.6.5.8.8.1.1.3 0 .3-.1.1-.3.4-.2.6-.2.1 0 .3.1.4.1.1 0 .3.1.4.1.3.1.3.4.3.6 0 .1-.1.3-.1.4-.1.1-.2.3-.3.4-.3.5-.1 1.1-.3 1.6-.1.3-.3.5-.4.7v.2H33c-.1 0-.3 0-.4-.1-.6-.1-1.1-.5-1.3-1.1-.1-.1-.3 0-.3.1 0 .2 0 .3-.1.5s-.2.1-.4.1c-.2-.1-.3-.2-.4-.3-.1-.1-.3-.2-.4-.3-.3-.3-.4-.6-.3-1 .1-.2.3-.5.2-.7-.1.1-.4.1-.5-.2-.1-.1-.4 0-.3.1l.3.3c.1.1.2.1.3.3 0 .1-.1.3-.1.4-.1.2-.1.3-.1.5 0 .4.2.7.5.9.3.2.6.5 1 .5.2 0 .4-.1.5-.3.1-.2.1-.4.1-.6-.1 0-.2.1-.3.1.3.6.8 1 1.4 1.1.3.1.7.1.9 0 .1 0 .1-.1.2-.1 0-.1 0-.1.1-.2 0-.2.1-.3.2-.4.1-.1.2-.3.2-.4v-.5c0-.4 0-.7.2-1 .2-.3.4-.5.4-.9 0-.3-.1-.6-.4-.7-.2-.1-.4-.1-.5-.2-.2-.1-.4-.1-.6-.1-.3 0-.7.1-.8.4.1 0 .2 0 .3-.1-.2-.3-.3-.6-.7-.8-.2-.1-.3-.1-.5-.1s-.4.1-.6.1c-.4 0-.7 0-1.1.2l-.3.3c0 .1-.1.2-.1.2-.1.1-.1.1-.2.1-.3.2-.4.6-.2.9-.1.2.2.1.2 0z"/>
        <path fill="#FFFEDC" d="M30.2 24.2c.6.5 1.3 0 1.8-.4.2-.2.5-.4.6-.8.1-.3 0-.5-.1-.8l-.1-.2.1.2c.2.5-.6 1.1-.9 1.3-.4.3-1 .6-1.5.2v.2c0 .1 0 .2.1.3zM29.7 23.5c.2-.5.1-1.1.5-1.4.2-.1.3-.2.4-.4.1-.2.3-.4.6-.4 0 0-.1-.5-.2-.4-.2 0-.4.1-.5.3-.1.1-.1.2-.2.3-.1.1-.2.2-.3.2-.4.4-.3 1-.5 1.4 0 .1.2.4.2.4zM32 25.1c.5.4 1.3 0 1.2-.7 0-.1-.1-.2-.1-.2s-.1-.1-.1 0c.1.6-.7 1-1.2.6v.1l.2.2zM30.8 23c0-.4.4-.6.7-.4v-.1c0-.1-.1-.2-.1-.2-.4-.2-.7.1-.7.5-.1 0 0 .1.1.2-.1 0 0 0 0 0z"/>
        <path fill="#EBE3B2" d="M33.2 23.2c.1 0 .1 0 0 0 .1-.1.1-.1.1-.2s.2-.1.2 0c.1 0 .1.1.1.2v.1h-.1c-.1 0-.2-.1-.3-.1z"/>
        <path fill="#fff" d="M35.9 24.3c-.2 0-.3.1-.5.1-.3 0-.6-.2-.8-.5-.2-.3-.1-.7.1-.9.2-.3.6-.4.9-.7l.1-.1c.1-.2-.1-.3-.2-.4-.1-.2 0-.3.1-.5.1-.1.1-.3.1-.5.1-.2.1-.5.2-.6.1-.2.4-.1.6 0 .3.1.6.3.8.4.6-.4 1.3-.7 2-.5.1 0 .3.1.3.2v.3c0 .3 0 .6-.1 1v.1c0 .1.1.1.2.1.4 0 .8.3 1 .7.1.3 0 .5 0 .8 0 .2-.1.5-.3.7-.1.1-.2.1-.3.1-.2 0-.4.1-.6.1-.3 0-.7 0-.8.3-.1.2 0 .4.1.7.1.2.1.5-.2.6h-.2c-.4 0-.7.1-1.3 0-.3 0-.7-.2-.8-.5-.1-.1-.1-.3-.1-.4.3-.4 0-.6-.3-.6z"/>
        <path fill="#FFFEDC" d="M36 24.2c-.3 0-.5.1-.8 0-.2-.1-.4-.3-.5-.5-.1-.2-.1-.5 0-.7.1-.2.3-.3.4-.5.2-.1.4-.2.6-.4.1-.1.1-.1.1-.2s-.1-.2-.1-.3c-.1-.1-.1-.2 0-.3 0-.1.1-.2.2-.4s.1-.5.2-.7c0-.1.1-.3.2-.3h.1c.1 0 .1 0 .2.1.3.1.6.3.8.4.1 0 .2 0 .3-.1.4-.3.8-.5 1.3-.5.2 0 .5 0 .6.1.1.1.1.2.1.3v.8c0 .1-.1.3 0 .4.1.1.2 0 .2 0 .1 0 .2 0 .3.1.4.2.6.6.6 1.1 0 .2 0 .5-.1.7 0 .1-.1.2-.1.3-.1.1-.2.1-.3.1-.4.1-.9 0-1.3.3-.2.1-.2.3-.2.5s.2.4.2.6c0 .1 0 .2-.1.2 0 0 .1 0 0 0h-.8c-.4 0-1.1 0-1.3-.5-.1-.1-.1-.3-.1-.4 0-.1-.1-.2-.1-.3-.2.2-.4.1-.6.1-.1 0-.2 0-.2.1s0 .1.1.1c.2 0 .4.2.5.4 0 .1 0 .2.1.3 0 .1.1.2.1.3.3.4.9.4 1.3.4h.6c.2 0 .5 0 .7-.2.4-.4-.2-.8 0-1.2.1-.2.3-.2.5-.2.3 0 .6 0 .8-.1.2-.1.4-.2.6-.4.1-.2.1-.5.2-.7 0-.3 0-.5-.1-.8-.1-.2-.2-.4-.4-.5-.1-.1-.2-.1-.3-.1h-.4c-.1 0-.1-.3-.1-.3v-.4c0-.3.1-.6-.2-.8-.2-.1-.5-.1-.8-.1-.6 0-1.2.3-1.6.6.1 0 .2 0 .3-.1-.3-.2-.5-.3-.8-.4-.2-.1-.5-.1-.7 0-.3.1-.4.3-.4.6 0 .1-.1.2-.1.4 0 .1 0 .1-.1.2 0 .1-.1.1-.1.2-.1.1-.1.2-.1.4 0 .1.1.2.2.3.1.1 0 .2-.1.3-.1.1-.2.1-.3.2-.2.1-.4.3-.5.5-.1.2-.2.5-.1.7.1.3.3.5.5.6.1.1.3.1.4.1.2 0 .4 0 .5-.1-.1-.1 0-.1 0-.3.1 0 0 0 0 0z"/>
        <path fill="#EBE3B2" d="M35.7 22.8s-.1-.1 0-.1v-.1c.1-.1.2-.2.2-.4V22c0-.2.2-.3.4-.3.2-.1.5-.2.5-.5V21c.1-.1.2-.1.3 0v-.3c.2 0 .3.2.4.4l.2-.4h.3c.1.4.1.7.1 1.1v.1l-.1.1c-.4.2-.7.6-.8 1 0 .1 0 .3-.1.3-.2.1-.4-.2-.6-.2 0 .1-.1.2-.1.4-.2-.1-.4-.4-.7-.7z"/>
        <path fill="#FFFEDC" d="M37.3 25c.1.3.2.5.5.5.3.1.7-.3.8-.5 0-.1 0-.2-.1-.2l-.1-.2c-.2.2-.7.7-1.1.4.1.1.2.2.2.3 0-.2 0-.3-.2-.3 0-.1 0-.1 0 0zM37.8 23.8c.7.4 1.6.6 2.4.4.8-.2.8-1.4.6-2 0-.1-.1-.3-.2-.3s-.1-.1-.1 0c.1.4.1.8 0 1.2-.1.4-.3.6-.7.6-.8.1-1.6-.1-2.2-.4-.1 0 0 .2 0 .2.1.1.1.2.2.3zM34.7 23.9c-.2-.3.1-.6.3-.7l.6-.6c.1-.1.1-.2.1-.4-.1-.3 0-.5 0-.8 0-.2-.1-.4 0-.6.1-.2.2-.3.4-.4.5-.2 1 0 1.3.3.1.1 0-.1 0-.1 0-.1-.1-.2-.2-.3-.4-.3-.9-.6-1.4-.3-.2.1-.4.3-.4.5v.3c0 .2 0 .4-.1.5v.4c0 .1.1.2 0 .3 0 .1-.1.1-.1.2l-.7.7c-.4.4-.2.9.1 1.3 0 .1.1.1.1.1.2-.2 0-.4 0-.4z"/>
        <path fill="#FFFEDC" d="M38.3 22.9c-.1 0-.1 0 0 0l-.1-.1c0-.1.1-.1-.1.1-.1.2-.1.1 0 .1s.1 0 .2-.1c.1.1.1-.1.1-.1l.1-.2h-.2c-.1.1-.2.2-.2.3-.1.1-.2.4 0 .5 0 0 .1-.2.2-.2-.1-.1 0-.2 0-.3zM38.9 23.4c.3.1.7 0 1-.1.3-.1.5-.5.6-.8 0 0-.5 0-.5.1 0 .2-.1.4-.2.6-.1.1-.2.2-.3.2h-.1.2-.4c-.2-.1-.4 0-.3 0zM39.3 20.7c-.1-.1-.3-.2-.4-.2h-.5s-.1 0 0 0c.2 0 .3.1.4.2H39.1c0 .1.1.1.2 0zM36.3 24.4c0 .4.1 1 .5 1.2.4.2 1 .1 1.4.1.3 0 .8 0 .9-.3.3-.4-.3-1 .2-1.3h-.2c-.1 0-.2 0-.3.1-.3.2-.2.5-.2.8 0 .1.1.3 0 .5l-.1.2h-.3c-.4 0-.8 0-1.1-.3-.2-.3-.2-.7-.3-1 0-.1-.5 0-.5 0zM36 24.3c-.2 0-.4 0-.6-.1h-.3l-.2.1c.2.1.5.2.8.2 0-.1.2-.2.3-.2.1 0 .1 0 0 0zM38.9 21.9c.1-.1.3-.3.5-.3.1 0 .3.1.4.1 0 0 .2 0 .1-.1-.5 0-1.1 0-1.5.3h.5z"/>
        <path fill="#E7D0AC" d="M44.8 20.5c-.6-.2-2.1-.8-2.1.4.2 0 .3-.1.5-.1-.8 0-1.7-.1-2.4.2-.3.1-.5.3-.4.7l.3.6c.1.3.1.4 0 .6-.7.6-.7 1.7.1 2.1.5.3 1.2.1 1.6-.1-.1 0-.4 0-.5.1-.6.3-1.2-.5-1.2-1-.1-.5.2-1 .6-1.4-.2-.3-.7-1.1-.4-1.5.2-.2.6-.2.9-.2h1c.1 0 .5 0 .5-.1v-.3c0-.2 0-.2.2-.2s.7.2.9.3c0 .1.3-.1.4-.1zM42.7 25.5c.3.5.9.4 1.3.3.1 0 .3 0 .5-.1.2-.2.2-.6.2-.9 0-.1.1-.2.1-.3.1-.1.1-.2.1-.3h.2c.3-.1.5-.2.7-.3.3-.3.7-1.1 0-1.3-.2 0-.4.1-.5.1.5.1.4.7.2 1-.1.2-.3.4-.5.5-.1 0-.2 0-.4.1-.3.1-.4.5-.4.8 0 .1 0 .5-.1.7-.1.1-.3.1-.4 0-.2-.1-.3-.2-.3-.3-.3-.2-.7 0-.7 0zM45.2 22.4c.3-.4 1-.9.4-1.4h-.3l-.3.1c.5.5-.1 1-.4 1.4h.3c.1 0 .2 0 .3-.1z"/>
        <path fill="#E7D0AC" d="M42.4 24.4c.3-.3.3-.6.4-.9 0-.2.1-.3.1-.4 0-.1.1-.1.1-.2l.1-.1c.1-.1.1-.1-.1 0 .2 0 .4-.1.5-.1-.3-.1-.8 0-1 .3-.5.5-.3 1.1-.7 1.6.1-.2.5-.1.6-.2z"/>
        <path fill="#fff" d="M45.4 20.9c.1 0 .2.1.2.1.2.2.1.5-.1.7-.2.2-.4.4-.4.6.1.2.4.2.6.4.1.1.1.2.1.3 0 .5-.3 1-.8 1.2-.2.1-.4.1-.5.2-.3.2-.3.6-.3 1 0 .1 0 .1-.1.2s-.2.2-.4.2c-.5 0-.9-.2-1.2-.5-.1-.1-.2-.3-.4-.3-.1 0-.3.1-.4.1-.2 0-.4 0-.6-.1-.4-.1-.8-.4-.8-.8-.1-.6.7-1.2.5-1.8-.1-.3-.4-.5-.4-.8 0-.3.2-.5.5-.6.2-.1.5-.1.8-.1h1c.2-.1.2-.3.4-.4.2-.2.4-.2.7-.1.5.1 1 .3 1.6.5z"/>
        <path fill="#FFFEDC" d="M45.3 21c.1.1.3.1.3.3 0 .1 0 .3-.1.4-.1.1-.2.2-.3.4-.1.1-.2.3-.2.4.1.2.4.2.5.3.3.1.2.6.1.8-.1.3-.3.5-.6.6-.1.1-.3.1-.4.2-.1.1-.3.2-.3.3-.1.2-.2.5-.2.8 0 .1 0 .3-.2.3h-.5c-.3-.1-.6-.3-.8-.5l-.3-.3c-.2-.1-.3 0-.5 0-.5.2-1.4-.3-1.3-.9.1-.5.5-.9.6-1.4 0-.3-.2-.5-.3-.8-.1-.1-.1-.3-.1-.4 0-.1.1-.2.3-.3.2-.1.3-.1.5-.1h.6c.3 0 .7.1 1-.2.1-.1.1-.3.3-.3.1-.1.2 0 .4 0 .4.1.7.2 1.1.4 0-.1.2-.1.4 0h.2s.1-.1 0-.1c-.4-.2-.8-.3-1.2-.4-.3-.1-.7-.2-1.1-.1-.2 0-.3.1-.4.3-.1.1-.1.3-.3.3h-1.2c-.3 0-.7.1-.9.4-.2.3-.1.6.1.9.1.1.2.3.2.4 0 .1 0 .3-.1.4-.1.3-.3.5-.4.8-.1.3-.1.6 0 .8.2.3.4.5.7.6.2.1.4.1.6.1.1 0 .2 0 .3-.1.1 0 .2-.1.3 0 .1.1.2.2.4.3.1.1.3.2.4.3.3.2.7.2 1 .2.2 0 .3-.1.4-.2.1-.1.1-.3.1-.5 0-.3.1-.7.4-.8.2-.1.3-.1.5-.2.1-.1.3-.2.4-.3.2-.2.4-.5.4-.8 0-.2 0-.3-.1-.4-.1-.1-.2-.1-.3-.2-.1 0-.2-.1-.3-.2 0-.1.1-.2.1-.2l.2-.2c.2-.2.4-.5.3-.8l-.3-.3h-.2c-.3-.1-.3 0-.2 0z"/>
        <path fill="#EBE3B2" d="M42 23c-.2 0-.3-.1-.4-.3-.1-.2-.1-.3-.2-.5 0-.1-.1-.1-.1-.2s0-.1.1-.2c.2-.2.4-.5.7-.5.3 0 .6.3.9.3h.5c.1 0 .2.1.3.2.3.2.6.5.9.7.1.1.1.1.1.2-.4 0-.8-.1-1.1-.2-.1 0-.3-.1-.4-.1-.5 0-1 .4-1.1.9 0 .1 0 .3-.1.4 0 .1-.1.3-.2.4-.2.3-.2-.4-.1-.4 0-.1.1-.7.2-.7z"/>
        <path fill="#fff" d="M45.9 23.2c0-.2 0-.4.2-.6 0 0 .1 0 .1-.1v-.1c-.2-.7-1.2-.7-1.5-1.4-.2-.4 0-.8.3-1.1.2-.2.5-.3.8-.4.4-.2.8-.6 1.3-.5.4.1.6.5.8.8.5-.3 1-.5 1.6-.7.2 0 .4-.1.5 0 .3.1.4.3.5.6.2.5.1 1.1-.1 1.6-.1.1-.1.2-.1.3 0 .1.1.1.1.1.1.1.3.2.3.4.1.3 0 .6-.3.8-.2.2-.6.2-.8.3-.1 0-.1 0-.2.1s-.1.1-.1.2c-.1.7-.8 1.2-1.5 1.2-.5 0-.9-.2-1.3-.4-.4-.1-.5-.6-.6-1.1z"/>
        <path stroke="#FFFEDC" stroke-miterlimit="10" stroke-width=".117" d="M45.9 23.2c0-.2 0-.4.2-.6 0 0 .1 0 .1-.1v-.1c-.2-.7-1.2-.7-1.5-1.4-.2-.4 0-.8.3-1.1.2-.2.5-.3.8-.4.4-.2.8-.6 1.3-.5.4.1.6.5.8.8.5-.3 1-.5 1.6-.7.2 0 .4-.1.5 0 .3.1.4.3.5.6.2.5.1 1.1-.1 1.6-.1.1-.1.2-.1.3 0 .1.1.1.1.1.1.1.3.2.3.4.1.3 0 .6-.3.8-.2.2-.6.2-.8.3-.1 0-.1 0-.2.1s-.1.1-.1.2c-.1.7-.8 1.2-1.5 1.2-.5 0-.9-.2-1.3-.4-.4-.1-.5-.6-.6-1.1z"/>
        <path fill="#FFFEDC" d="M47.8 24c.4 0 .8-.1 1-.5 0-.1 0-.2-.1-.2l-.1-.2c-.2.3-.6.5-1 .5l.1.2c0 .1.1.2.1.2zM49.4 22.9c-.2 0-.4 0-.5-.1-.2-.1-.2-.3-.3-.4-.1-.1-.1-.2-.2-.3-.2-.1-.4 0-.5-.2 0 .1.1.2.1.2V22c0-.1-.1-.2-.1-.2-.1-.1-.2-.1-.3-.1-.4.3-.8.5-1.4.5 0 0 .1.4.2.4.3 0 .6-.1.8-.2.1-.1.2-.1.4-.2.1-.1.2-.2.4-.2-.1-.1-.1-.2-.2-.4.1.2.1.4.3.6.1.1.2.1.3.1.2 0 .2 0 .3.2.2.4.5.8 1 .7-.1.1-.2-.3-.3-.3z"/>
        <path fill="#FFFEDC" d="M47.7 19.6c-.1.4-.2.8-.4 1.2-.2.4-.3.7-.8.8 0 0 .1.5.2.4.4-.1.6-.4.7-.7.2-.4.3-.8.4-1.3 0-.1-.1-.2-.1-.3.1 0 0-.2 0-.1zM48.7 22.5c.3-.7 1.1-1 1.7-.5v-.2c0-.1-.1-.2-.2-.3-.6-.5-1.5-.2-1.7.5 0 .1.1.2.1.3 0 .1.1.3.1.2zM49.1 23.4c-.1.3-.3.6-.5.8-.2.2-.5.2-.8.2-.3 0-.7 0-1-.1-.3-.1-.8-.2-.8-.5v-.3s-.1-.4 0-.3c0 .3 0 1 .2 1.2.3.3.7.4 1.1.5.2 0 .5.1.7.1.2 0 .5 0 .7-.1.4-.2.6-.6.7-1 .1-.4-.1-.7-.1-.7-.1-.2-.2.1-.2.2zM50.5 22c-.1.5-.5.8-.9.9 0 0 .1.5.2.4.5-.1.8-.5 1-.9 0-.1-.1-.2-.1-.3 0 0-.1-.1-.2-.1zM45.7 20.8c0-.2.2-.4.3-.5.2-.1.4-.3.7-.3 0 0-.1-.4-.2-.4-.3 0-.5.1-.7.3-.2.1-.3.3-.4.5 0 .1.1.2.1.3.1 0 .2.2.2.1z"/>
        <path fill="#fff" d="M52.9 20c.6.3.9.9 1 1.5.1.5 0 1-.3 1.3-.3.4-.8.6-1.2.5.4.7.4 1.7 0 2.5-.1.3-.4.5-.6.6-.6.2-1.4-.3-2 0-.1-.3-.1-.6-.2-.9 0-.1-.1-.3-.1-.4-.1-.2-.3-.3-.5-.4-.4-.3-.8-.7-1-1.2-.2-.5-.2-1.1 0-1.5.1-.1.2-.3.3-.3.3-.2.6-.2.9-.1.6.1 1.2.3 1.8.6.4.2.9.4 1.2.1.2-.2.1-.6-.1-.9-.3-.4-.8-.7-.3-1.2.1-.3.7-.4 1.1-.2z"/>
        <path fill="#FFFEDC" d="M52.7 20c.7.3 1 1.1 1 1.8 0 .4-.1.8-.3 1.1-.2.3-.5.5-.9.4 0 0-.3 0-.3.1.4.6.4 1.5.2 2.1-.1.3-.3.7-.6.8-.1.1-.3.1-.4 0-.2 0-.3-.1-.5-.1-.4-.1-.8-.1-1.1.1h.3c-.1-.3-.1-.5-.2-.8 0-.2-.1-.5-.2-.6-.1-.2-.3-.3-.5-.4-.2-.1-.3-.3-.5-.4-.3-.3-.5-.7-.6-1.2-.1-.4 0-1 .3-1.3.2-.1.4-.1.6-.1.2 0 .5.1.7.2.2.1.5.1.7.2l.6.3c.4.2.8.2 1.1 0 .4-.2.3-.7.1-1-.1-.2-.3-.3-.4-.5-.1-.1-.2-.3-.1-.5s.6-.3 1-.2h.2s.2-.1.1-.1c-.4-.2-.8-.1-1.2 0-.3.1-.7.5-.5.8.1.2.2.3.3.4.1.2.3.3.3.5s0 .5-.2.5h-.2c-.1 0-.2-.1-.3-.1-.2-.1-.4-.2-.7-.3-.2-.1-.5-.2-.7-.2-.5-.1-1-.3-1.4-.1l-.6.3-.3.6c-.1.5 0 1 .3 1.4.1.2.3.4.5.6.2.2.4.3.6.4l.3.3c.1.1.1.2.1.4.1.3.1.6.2 1 0 .1.2 0 .3 0 .1-.1.3-.1.5 0 .2 0 .4.1.5.1.4.1.7.1 1.1-.1.7-.3 1-1.2 1-1.9 0-.4-.1-.9-.3-1.3-.1 0-.2.1-.3.1.6.2 1.4-.2 1.6-.8.3-.6.2-1.4-.1-2-.2-.3-.4-.6-.7-.7h-.2c-.1.2-.2.2-.2.2z"/>
        <path fill="#EBE3B2" d="M48.9 23.3c-.1-.3-.1-.6 0-.8.1-.1.2-.2.2-.3.1-.1.1-.2-.1-.3h-.6c0 .1-.1.2-.1.3.1.1.2.2.2.3 0 .1-.1.3-.1.4v.1l.1.1c.2.1.3.1.4.2zM52.4 22.8c.1-.2.1-.6 0-.8-.1-.2-.2-.4-.1-.5 0-.1.1-.1.1-.2 0-.2-.2-.3-.4-.4-.1 0-.2-.1-.4-.1-.1 0-.2 0-.2.1v.1c.1.2.3.4.4.6.1.1.2.2.1.4 0 .3-.3.3-.1.6 0 .1.5.3.6.2z"/>
        <path fill="#FFFEDC" d="M49.4 24.8c.7.3 1.5.2 2.1-.1.3-.1.7-.3.9-.5.2-.3.2-.8.2-1.2 0 0-.5 0-.5.1 0 .5 0 1-.4 1.4-.5.4-1.2.5-1.7.2h-.3c-.1 0-.3.1-.3.1zM50.5 25.8c.3.1.8 0 1.1-.1.3-.2.9-.5.7-1 0-.1-.5.1-.5.1.1.3-.1.5-.3.6-.1.1-.2.1-.3.2-.1 0-.1.1-.2.1-.1.1.1 0 0 0h-.3c-.1.1-.2.1-.2.1z"/>
        <path fill="#FFFEDC" d="M52.7 23.2c.3 0 .7-.1.9-.3.3-.3.4-.7.4-1.1 0-.8-.3-1.8-1.1-2.2h-.3l-.2.1c.6.3.9.9 1.1 1.6.1.3.1.6 0 1 0 .2-.1.3-.2.5 0 .1-.1.1-.2.2 0 0-.2.1 0 .1-.1 0-.3 0-.4.1-.1 0-.1 0 0 0zM50.4 23.9c.3.1.7 0 1-.1.3-.2.4-.6.2-.9-.1-.1-.5.1-.5.1.1.2.1.4.1.6 0 .1-.1.2-.2.2l-.1.1s.2 0 0 0h-.5zM50.6 26.4h.7c.2 0 .4 0 .6-.1.3-.1.6-.3.8-.5.3-.4.3-.8.3-1.3 0-.4 0-.8-.3-1.1h-.3l-.3.1c.5.5.4 1.5.2 2.1-.2.4-.5.7-.9.7s-.7 0-1 .1c-.1 0-.2 0-.1.1l.3-.1z"/>
        <path fill="#fff" d="M53.3 22.6c-.3-.1-.5-.3-.5-.6 0-.2 0-.3.1-.5.1-.3.3-.6.5-.6h.3c.3.1.5.2.7.3.1.1.2.1.3.1.2 0 .3-.1.4-.2.2-.2.5-.3.7-.4.3-.1.6 0 .8.2.1.1.2.3.2.5.1.3.1.6 0 .8-.1.3-.3.5-.6.6-.1 0-.1 0-.2.1s0 .2 0 .3c.1.1.1.2.1.3 0 .3-.4.3-.5.6 0 .1.1.3 0 .4 0 .3-.4.3-.6.4-.3 0-.7 0-1 .1h-.8c-.2-.1-.5-.2-.6-.4-.1-.2-.1-.4 0-.6.1-.3.2-.5.4-.7.1-.2.5-.3.5-.5.1-.1 0-.2-.2-.2z"/>
        <path stroke="#FFFEDC" stroke-miterlimit="10" stroke-width=".117" d="M53.3 22.6c-.3-.1-.5-.3-.5-.6 0-.2 0-.3.1-.5.1-.3.3-.6.5-.6h.3c.3.1.5.2.7.3.1.1.2.1.3.1.2 0 .3-.1.4-.2.2-.2.5-.3.7-.4.3-.1.6 0 .8.2.1.1.2.3.2.5.1.3.1.6 0 .8-.1.3-.3.5-.6.6-.1 0-.1 0-.2.1s0 .2 0 .3c.1.1.1.2.1.3 0 .3-.4.3-.5.6 0 .1.1.3 0 .4 0 .3-.4.3-.6.4-.3 0-.7 0-1 .1h-.8c-.2-.1-.5-.2-.6-.4-.1-.2-.1-.4 0-.6.1-.3.2-.5.4-.7.1-.2.5-.3.5-.5.1-.1 0-.2-.2-.2z"/>
        <path fill="#FFFEDC" d="M56.3 23c.1-.4.7-.3.7-.8s-.1-1.1-.4-1.5c-.3-.4-.9-.2-1.3 0-.5.4-.7 1-.9 1.5 0 .1.1.2.1.3 0 0 .1.2.1.1.2-.8.7-1.9 1.7-1.8.2 0 .2 0 .3.2 0 .1 0 .3.1.4 0 .2.1.5-.1.6-.2.2-.5.2-.6.5 0 .1.1.2.1.3.1.1.2.3.2.2z"/>
        <path fill="#FFFEDC" d="M54.4 21.1c-.1-.2-.3-.3-.5-.3-.2-.1-.4-.1-.6-.1-.4.1-.6.7-.7 1.1-.2.8.9 1.5 1.6 1.2-.1-.1-.1-.3-.2-.4-.1 0-.1.1-.2.1 0 0 .1.5.2.4.1 0 .1 0 .2-.1.1 0-.2-.5-.2-.4-.4.2-1.1 0-1.4-.4.1.1.1.2.2.3-.1-.2.1-.5.2-.7.1-.2.2-.4.4-.5.3-.2 1 .1 1.2.3.1.1 0-.1 0-.1 0-.2-.1-.3-.2-.4z"/>
        <path fill="#FFFEDC" d="M53.5 22.7c-.6.4-.9 1-.6 1.6.1.3.3.5.6.7.3.1.7.1 1.1.1.4 0 .8-.1 1.2-.2.4-.2.3-.3.2-.7 0-.2.1-.2.2-.3.1-.1.2-.3.1-.5 0-.3-.2-.7-.4-.9-.2-.3-.1 0 0 .2.2.3.2.6 0 .8-.1.1-.2.2-.1.4 0 .1.1.2.1.3 0 .1-.1.2-.2.2-.3.1-.5.2-.8.2-.5.1-1.1.1-1.6-.2-.3 0-.3-.1-.3-.3 0-.1.1-.3.1-.4.1-.2.4-.4.6-.6.1 0-.1-.4-.2-.4z"/>
        <path fill="#FFFEDC" d="M54.3 24.1c.1.3.4.4.7.4.2 0 .4 0 .5-.2.1-.2 0-.4 0-.5 0 0-.1-.2-.1-.1.1.3 0 .6-.3.6s-.7 0-.8-.2c0-.2-.1-.1 0 0zM54.1 23.8c.1-.3.4-.4.7-.5l-.1-.2c-.3.1-.5.2-.7.5-.1 0 .1.2.1.2zM55.2 22.6c.2-.1.4-.1.5-.1H56s.1 0 0 0c0 0 .1.2.1.1-.1-.1-.1-.3-.3-.3-.3 0-.6.1-.8.2.1-.1.2.1.2.1zM53.6 22.2c.1-.1 0-.2 0-.3 0-.2.3-.2.4-.2 0 0 0-.2-.1-.2s-.3 0-.4.2v.2c0 .1.1.1 0 .2l.1.1zM55.6 22.1c.1-.2.1-.4.3-.6.2-.1.4-.2.6-.1v-.1s0-.1-.1-.1c-.2-.1-.4-.1-.6.1-.2.2-.2.4-.3.6-.1.1 0 .2.1.2z"/>
        <path fill="#fff" d="M55.8 24.9c-.3-.2-.5-.4-.5-.7 0-.2.1-.4.2-.5.1-.2.3-.4.5-.4s.5.1.7.1c.1 0 .1 0 .1-.1.1-.1 0-.2-.1-.4 0-.3.3-.4.4-.7 0-.1 0-.2.1-.3.1-.2.3-.2.5-.2.4-.1.7-.4 1.1-.4.4 0 .8.2.9.6.1 0 .1-.1.1-.2v-.3c0-.1.2-.2.3-.2.1 0 .2.1.4.1.5.3 1 .7 1.3 1.2.1.2.2.5.1.6-.1.1-.2.1-.2.1-.5.1-.8.6-1 1v.1c0 .1.1.1.1.2.1.2 0 .4-.1.5-.1.1-.3.3-.3.5v.3c0 .1-.1.2-.3.3h-.4c-.3 0-.6-.1-.9-.1-.4 0-.8-.1-1.2-.2-.1 0-.2-.1-.3-.1-.3-.1-.6 0-.8-.1-.2-.4-.4-.6-.7-.7z"/>
        <path stroke="#FFFEDC" stroke-miterlimit="10" stroke-width=".117" d="M55.8 24.9c-.3-.2-.5-.4-.5-.7 0-.2.1-.4.2-.5.1-.2.3-.4.5-.4s.5.1.7.1c.1 0 .1 0 .1-.1.1-.1 0-.2-.1-.4 0-.3.3-.4.4-.7 0-.1 0-.2.1-.3.1-.2.3-.2.5-.2.4-.1.7-.4 1.1-.4.4 0 .8.2.9.6.1 0 .1-.1.1-.2v-.3c0-.1.2-.2.3-.2.1 0 .2.1.4.1.5.3 1 .7 1.3 1.2.1.2.2.5.1.6-.1.1-.2.1-.2.1-.5.1-.8.6-1 1v.1c0 .1.1.1.1.2.1.2 0 .4-.1.5-.1.1-.3.3-.3.5v.3c0 .1-.1.2-.3.3h-.4c-.3 0-.6-.1-.9-.1-.4 0-.8-.1-1.2-.2-.1 0-.2-.1-.3-.1-.3-.1-.6 0-.8-.1-.2-.4-.4-.6-.7-.7z"/>
        <path fill="#EBE3B2" d="M56.7 23.6c.2 0 .3 0 .5.1.2 0 .4 0 .4-.2v-.2c0-.1.1-.2.2-.2-.1-.1 0-.1 0-.2.1-.1.1-.1.2-.1.2 0 .4-.1.5-.1.3-.1.6-.1.8 0 .1.1.2.2.3.2.1.1.3 0 .4-.1.1-.1.2-.2.2-.4 0-.1 0-.2.1-.2.1-.1.3-.2.5-.1s.3.2.4.3c.1.1.1.2 0 .2h-.1c-.2 0-.3-.1-.5 0-.2 0-.3.2-.3.3 0 .2.2.3.1.5-.1.1-.2.1-.3.1-.2.1-.2.4-.4.5h-.3c-.2 0-.4.2-.6.3-.4.1-.8-.1-1.1-.3-.2-.1-.4-.1-.6-.1-.2 0-.3.1-.5.1-.1-.2 0-.3.1-.4z"/>
        <path fill="#FFFEDC" d="M56.2 24.5c0 .2.2.4.4.4.3 0 .6-.1.8-.2h-.2c-.1 0-.2 0-.3.1h-.1c.3-.1.4 0 .2-.1-.1 0-.1-.1-.2-.1-.1-.1-.1-.2-.1-.3 0 .1-.5.2-.5.2zM58.9 22s.1 0 .1-.1c.1 0 .1 0-.1.1 0-.1 0-.1 0 0 .1 0 .1 0 .2.1h.3l.3-.1c-.1-.2-.3-.2-.5-.1-.3 0-.5.1-.7.2h.2c0-.1.1-.1.2-.1z"/>
        <path fill="#FFFEDC" d="M57.6 24.4v.7c0 .1-.1.2-.2.3h-.1.1H56.8s-.2 0-.1.1c.3 0 .7 0 1.1-.1.4-.2.3-.6.3-1 0-.1-.5 0-.5 0zM55.8 24.2c.2-.2.2-.4.3-.7 0-.1 0-.1.1-.2l.1-.1c-.1 0-.1 0-.1.1h.4c.2 0 .6 0 .6-.3v-.5l.3-.3c.1-.1.1-.3.2-.5s.4-.2.6-.2c.4 0 .8.1 1.2.2.2.1.6.1.7-.1.1-.1.1-.2.1-.3v-.2c0-.1.2.1.2 0 .4.2.3 0 .2-.1-.2-.1-.5-.2-.7-.1-.1.1-.2.1-.2.3 0 .1 0 .4-.1.4h.4c-.2 0-.3-.1-.5-.2s-.4-.1-.5-.1h-.9c-.3 0-.6.1-.9.2-.1 0-.2.1-.3.2-.1.1 0 .3-.1.5l-.3.3c-.1.1 0 .3 0 .5 0 0-.1.3.1.2H56.1c-.2 0-.4.1-.5.3-.1.2-.1.6-.3.7h.2c0 .1.2.1.3 0zM60.8 24c.2 0 .3 0 .5-.2.1-.2.1-.4.2-.6l.1-.1h-.1.4c.2 0 .4-.1.4-.3 0 0-.5 0-.5.1s0 .1-.1.1h.1-.3c-.1 0-.3 0-.4.1-.3.2-.2.6-.5.8.1 0 .1 0 .2.1 0-.1 0-.1 0 0 0-.1-.3 0-.3 0h.3zM59.5 25.2c.2 0 .5 0 .7-.2.1-.1.2-.3.1-.5H60l-.3.1c0 .1.1.2 0 .3 0 .1-.1.1-.1.1-.1.1-.3.1.1 0-.1 0-.3 0-.4.1.1.2.2.1.2.1z"/>
        <path fill="#fff" d="M59.4 22.4c-.1-.2-.2-.4-.1-.5.1-.2.3-.2.5-.2.3-.1.6-.1.9-.1h.5c.1 0 .2.1.3.1.1 0 .3-.1.3-.2s.1-.3.1-.4c.1-.6.7-1 1.2-1.3.1-.1.2-.1.3 0 0 0 0 .1.1.1.3.8.4 1.6.3 2.5.4 0 .9.2 1 .6 0 .1.1.1 0 .2l-.1.1c-.4.4-.8.8-1.3.9-.1 0-.3 0-.4.1-.5 0-1 .1-1.5.1h-.9c-.3-.1-.6-.2-.7-.5-.2-.3-.1-.4 0-.7 0-.2.1-.1-.1-.3-.2-.2-.3-.3-.4-.5z"/>
        <path stroke="#FFFEDC" stroke-miterlimit="10" stroke-width=".117" d="M59.4 22.4c-.1-.2-.2-.4-.1-.5.1-.2.3-.2.5-.2.3-.1.6-.1.9-.1h.5c.1 0 .2.1.3.1.1 0 .3-.1.3-.2s.1-.3.1-.4c.1-.6.7-1 1.2-1.3.1-.1.2-.1.3 0 0 0 0 .1.1.1.3.8.4 1.6.3 2.5.4 0 .9.2 1 .6 0 .1.1.1 0 .2l-.1.1c-.4.4-.8.8-1.3.9-.1 0-.3 0-.4.1-.5 0-1 .1-1.5.1h-.9c-.3-.1-.6-.2-.7-.5-.2-.3-.1-.4 0-.7 0-.2.1-.1-.1-.3-.2-.2-.3-.3-.4-.5z"/>
        <path fill="#EBE3B2" d="M60.1 22.3c-.1-.1-.2-.1-.4-.2-.1-.1-.2-.2-.1-.3l.1-.1c.6-.2 1.4-.2 2 .1.1-.4.2-.8.4-1.2.3-.3.7-.5 1.1-.3.4.2.5.8.4 1.2 0 .1-.1.3-.1.4-.2.3-.7.4-1 .7l-.3.3c-.1.1-.3 0-.4-.1-.2 0-.4.2-.6.3h-.4c-.2 0-.4.3-.6.1-.3-.3 0-.7-.1-.9z"/>
        <path fill="#FFFEDC" d="M60.3 23.5c.1.3.4.4.7.4.3 0 .6 0 .8-.2h-.2c-.1 0-.3 0-.3.1l-.1.1h.1c-.1 0-.1 0-.2-.1-.2-.1-.3-.1-.3-.3 0-.2-.5-.1-.5 0zM63 23.3c.1.1.1.1.2.1.2 0 .4 0 .5-.1.2-.1.4-.2.3-.4 0-.1-.5.1-.5.1v.3s-.1 0-.1.1H63.6c-.1 0-.1 0-.1-.1h-.3-.2z"/>
        <path fill="#FFFEDC" d="M60.1 24.1c.8.6 1.9.3 2.8.2.5-.1 1-.1 1.4-.5.3-.3.4-.7.2-1 0-.1-.1-.3-.2-.3s0 0 0 .1c.1.4-.2.8-.6 1-.4.2-.9.2-1.3.3-.8.1-1.8.3-2.6-.2v.2c.2 0 .2.1.3.2zM62 20.7c.2-.4.5-.6.9-.6.1 0 .2-.4.2-.4-.7.1-1.2.6-1.5 1.2 0 .1.1.1.1.1.1 0 .1-.1.2-.2v-.1h.1z"/>
        <path fill="#fff" d="M24.8 21.3c.2.2.3.4.3.6 0 .2-.2.4-.3.6-.1.2-.1.5-.3.7-.1.2-.3.2-.5.3-.2.1-.5.2-.7.2.1.1 0 .3-.1.4-.1.1-.2.3-.3.4-.2.2-.3.4-.6.6-.3.2-.7.3-1 .4-.2.1-.5.1-.7.1-.4 0-.7-.1-1-.2l-.6-.3c-.1-.1-.2-.3-.3-.5 0-.1-.1-.2-.1-.3 0-.4.4-.7.7-.9-.4-.2-.7-.5-1-.8-.1-.1-.1-.2-.2-.3-.1-.2-.1-.4-.1-.7v-.2c0-.1.1-.1.1-.1.2-.1.4-.2.5-.3.2-.1.4-.3.4-.5v-.2c-.1-.3-.1-.6-.1-1 0-.2 0-.4.1-.6.2-.3.5-.4.8-.5.3-.1.6-.1.8.1.1.1.2.3.3.4.2-.3.5-.7.9-.8h.5c.4.1.8.2 1.2.4.3.2.7.4.8.8.1.2.1.5.1.7 0 .2-.1.4-.2.5-.1.1-.4.2-.4.4s.3.2.4.3c.3 0 .4.1.6.3z"/>
        <path fill="#FFFEDC" d="M24.6 21.3c.2.2.3.4.2.7 0 .1-.1.2-.2.3-.1.1-.1.2-.2.4 0 .1-.1.2-.1.4-.1.1-.2.2-.3.2l-.9.3c-.1 0-.2.1-.1.2s-.2.4-.2.5c-.1.2-.3.4-.4.6-.3.3-.7.5-1.2.6-.2.1-.5.1-.7.1-.2 0-.5-.1-.7-.2-.2-.1-.4-.1-.6-.3-.2-.1-.3-.3-.4-.5-.1-.2-.1-.4.1-.6.1-.2.3-.3.5-.4.1 0 .1-.1 0-.2-.2-.1-.5-.3-.7-.5-.2-.2-.4-.4-.5-.6 0-.1-.1-.3-.1-.4v-.2-.2l.1-.1c.1 0 .1-.1.2-.1.1-.1.3-.1.4-.2.2-.1.4-.3.4-.5 0-.1 0-.3-.1-.4 0-.1-.1-.3-.1-.4 0-.3-.1-.6 0-.9.1-.2.2-.4.5-.4.2-.1.5-.2.7-.1.3 0 .3.3.5.5.1.1.2 0 .3 0 .1-.2.3-.4.4-.5.4-.4.6-.4.9-.4.5 0 1 .2 1.5.5.2.1.4.3.5.5.1.2.1.5.1.7 0 .2 0 .4-.2.5-.1.1-.3.2-.4.3-.1.2.1.3.2.4.1 0 .2.1.3.1l.3.3c.1.1.4 0 .3-.2-.2-.2-.4-.3-.6-.4-.1 0-.2 0-.2-.1s.1-.1.1-.1c.2-.1.3-.2.4-.4.1-.2.1-.5.1-.7 0-.3-.1-.5-.2-.7-.1-.2-.4-.4-.6-.5-.5-.3-1-.5-1.6-.5-.3 0-.6.1-.8.3-.2.2-.4.4-.5.6h.3c-.1-.1-.1-.2-.2-.3-.1-.1-.2-.2-.3-.2-.3-.1-.5 0-.8 0-.3.1-.5.1-.7.3-.2.2-.3.5-.3.7 0 .3 0 .6.1.9 0 .1.1.3.1.4 0 .1-.1.2-.2.3-.1.1-.3.2-.4.2-.1.1-.3.1-.4.3-.1.1-.1.2-.1.4v.5c0 .3.2.6.5.8.2.2.5.4.8.6v-.2c-.4.2-.8.6-.7 1.1 0 .2.2.5.3.7.2.2.4.3.6.4.3.1.5.2.8.2.3 0 .6 0 .9-.1.5-.1 1.1-.3 1.5-.7.2-.2.4-.5.6-.7.1-.2.4-.5.2-.7 0 .1-.1.1-.1.2.3-.1.7-.2 1-.3.1-.1.3-.2.4-.3.1-.1.1-.3.2-.4 0-.1.1-.3.2-.4.1-.1.2-.3.2-.4.1-.3-.1-.6-.3-.8-.1-.1-.2-.1-.2 0-.4.1-.5.2-.4.2z"/>
        <path fill="#FFFEDC" d="M19.9 24.8c.3.4.7.5 1.2.4.2 0 .4-.1.5-.2.2-.2.3-.4.5-.6h-.3c-.1 0-.2 0-.3.1-.1.1-.2.2-.2.3 0 .1-.1.1-.2.2 0 0-.2.1-.1.1h-.1c-.1 0-.1 0-.2-.1s-.3-.2-.4-.3c0 0-.4.2-.4.1zM21.3 18.9c.1-.3.2-.6.4-.7.3-.2.5-.2.8-.1.5.1 1.1.4 1.4.9 0 .1.5-.1.5-.1-.2-.4-.6-.6-1-.7-.4-.2-.7-.3-1.1-.3-.3 0-.7.1-1 .2-.4.2-.6.5-.7.9.2-.1.7 0 .7-.1zM19.1 22.2V22v-.2c0-.1 0-.1 0 0 0 0 .1 0 .1-.1.1 0 .1-.1.2-.1s.1-.1.2-.2l.1-.2c-.6.1-.9.8-.8 1.3 0 .1.1-.1.1-.1s.1-.1.1-.2zM20 22.1v-.2-.2c-.1.1-.1.1 0 .1H20.3c.1 0 .1-.1.2-.2l.1-.2c-.3 0-.4.2-.6.4-.1.2-.2.5-.2.8 0 .1.1-.1.1-.1 0-.2.1-.3.1-.4z"/>
        <path fill="#FFFEDC" d="M22.9 20.1c.2.1.5-.2.7-.3.2-.2.4-.5.3-.8 0-.1-.1.1-.1.1 0 .1-.2.2-.1.3v.1c0 .1 0 .1 0 0 0 0-.1.1-.2.1-.1.1-.2.1-.4.1l-.2.4z"/>
        <path fill="#EBE3B2" d="M19.9 24.2c-.1-.1-.2-.2-.2-.3 0 0 0-.1.1-.1 0 0 .1-.1.2-.1.2 0 .4-.1.6-.1h.2c.1-.1.1-.2.1-.3v-1c.2-.1.3.1.5.2.1.1.2.1.3.1.1 0 .3 0 .3-.1s0-.2-.1-.2-.2-.1-.3-.1c-.2-.1-.4-.2-.5-.4l-.3-.6c0-.1-.1-.2 0-.3.1-.2.3-.2.3-.4 0-.1-.1-.2-.1-.2-.1 0-.2-.1-.3-.1-.3 0-.5-.1-.7-.3-.1-.2-.1-.5.1-.7h.2c.3.2.7.4.8.7.1.1.1.2.1.4.1.1.1.2.3.3h.1c.1 0 0-.2 0-.3 0-.2.3-.2.3-.3.1-.1 0-.3.2-.3.1 0 .2 0 .2.1l.5.5c.1.1.2.2.2.3 0 .1-.1.2-.2.2s-.2.1-.3.1c-.2.2-.2.4-.1.7.1.3.2.5.4.7.1.1.2.3.1.4-.1.1-.3.1-.4.1-.3 0-.5.3-.5.5-.1.1-.4 0-.6 0-.2 0-.3.2-.4.3-.1.1-.1.3 0 .4 0 .1.1.1.2.2v.2c-.2.4-.9.6-.9.1-.2-.2-.3-.2-.4-.3z"/>
        <path fill="#FFFEDC" d="M24.6 21.7c0 .6-.2 1.2-.6 1.5-.2.2-.5.4-.9.4-.3 0-.7-.2-.9-.4h-.3l-.3.1c.6.5 1.5.5 2.3.2.8-.3 1.3-1.1 1.2-1.9l-.5.1zM22.8 20.8c.6-.1 1.2-.2 1.6-.5.5-.4.4-1.1.1-1.6-.1-.1-.5.1-.5.1.2.3.3.7.2 1.1-.2.4-.7.7-1.1.8-.1 0-.3 0-.4.1-.1.1 0 0 .1 0zM19 25.2c.4.2.9.5 1.4.5.4 0 .8-.1 1.2-.2.8-.3 1.5-.8 1.8-1.6h-.3c-.1 0-.2 0-.3.1-.3.6-.7 1-1.3 1.3-.3.2-.7.3-1.1.2-.3-.1-.7-.3-1-.4h-.3c.1.1-.1.1-.1.1zM18.7 22.4c-.1-.2-.4-.4-.4-.7 0-.3.3-.5.4-.7.4-.4.9-.7 1.5-.7h.4s.2 0 .1-.1c-.7-.1-1.4.1-2 .4-.3.2-.6.4-.8.7-.1.2-.2.4-.2.6.1.2.3.4.4.5.1.2.6 0 .6 0zM19.3 19.9c-.1-.2-.1-.4-.2-.6 0-.2-.1-.5 0-.6.1-.1.4-.2.5-.2h.6c.1 0 .3-.4.3-.4-.6-.1-1.1 0-1.5.6-.3.5-.2 1.1 0 1.7l.2-.2c.1-.1.2-.2.1-.3zM19.4 23.5c-.2-.3-.6.3-.7.4-.1.1-.2.3-.2.4 0 .2.1.3.2.5 0 0 .3-.3.3-.4-.1-.1-.2-.3-.1-.4.1-.1.2-.2.3-.1 0 0 .3-.3.2-.4z"/>
        <path fill="#fff" d="M15.5 22.8c-.1-.3-.1-.6.1-.8.1-.1.3-.2.4-.3.1-.1.1-.2.1-.3.1-.2.4-.3.6-.3h.7c.1 0 .3-.1.4-.1.2 0 .5.1.7.3.2.2.3.4.4.6.1-.2.4-.3.6-.3.2 0 .5.1.7.2.2.1.4.1.6.2.2.2.2.5.2.8 0 .2-.1.3-.2.4-.1.1-.2.2-.2.3-.2.4 0 1-.2 1.5-.1.3-.3.5-.4.8 0 .1 0 .1-.1.2 0 .1-.1.1-.2.1-.8 0-1.6-.5-1.9-1.2 0 .2 0 .4-.1.6-.1.1-.3.2-.5.1-.2 0-.3-.1-.5-.2-.3-.2-.6-.4-.7-.7-.1-.2-.1-.4 0-.6 0-.2.2-.4.2-.6-.1-.3-.5-.4-.7-.7z"/>
        <path fill="#FFFEDC" d="M15.7 22.8c-.1-.2-.1-.3 0-.5s.2-.3.3-.4l.2-.2c0-.1.1-.1.1-.2.1-.2.2-.2.4-.2h.7c.2 0 .4-.1.6-.1.4.1.6.5.8.8.1.1.3 0 .3-.1.1-.3.4-.2.6-.2.1 0 .3.1.4.1.1 0 .3.1.4.1.3.1.3.4.3.6 0 .1-.1.3-.1.4-.1.1-.2.3-.3.4-.3.5-.1 1.1-.3 1.6-.1.3-.3.5-.4.7v.2h-.1c-.1 0-.3 0-.4-.1-.6-.1-1.1-.5-1.3-1.1-.1-.1-.3 0-.3.1 0 .2 0 .3-.1.5s-.2.1-.4.1c-.2-.1-.3-.2-.4-.3-.1-.1-.3-.2-.4-.3-.3-.3-.4-.6-.3-1 .1-.2.3-.5.2-.7 0 .1-.4 0-.5-.2-.1-.1-.4 0-.3.1l.3.3c.1.1.2.1.3.3 0 .1-.1.3-.1.4-.1.2-.1.3-.1.5 0 .4.2.7.5.9.3.2.6.5 1 .5.2 0 .4-.1.5-.3.1-.2.1-.4.1-.6-.1 0-.2.1-.3.1.3.6.8 1 1.4 1.1.3.1.7.1.9 0 .1 0 .1-.1.2-.1 0-.1 0-.1.1-.2 0-.2.1-.3.2-.4.1-.1.2-.3.2-.4v-.5c0-.4 0-.7.2-1 .2-.3.4-.5.4-.9 0-.3-.1-.6-.4-.7-.2-.1-.4-.1-.5-.2-.2-.1-.4-.1-.6-.1-.3 0-.7.1-.8.4.1 0 .2 0 .3-.1-.2-.3-.3-.6-.7-.8-.2-.1-.4-.1-.6-.1-.2 0-.4.1-.6.1-.4 0-.7 0-1.1.2l-.3.3c0 .1-.1.2-.1.2-.1.1-.1.1-.2.1-.3.2-.4.6-.2.9 0 .2.4.1.3 0z"/>
        <path fill="#FFFEDC" d="M16.9 24.3c.6.5 1.3 0 1.8-.4.2-.2.5-.4.6-.8.1-.3 0-.5-.1-.8l-.1-.2.1.2c.2.5-.6 1.1-.9 1.3-.4.3-1 .6-1.5.2v.2c-.1.1 0 .3.1.3zM16.4 23.6c.2-.5.1-1.1.5-1.4.2-.1.3-.2.4-.4.1-.2.3-.4.6-.4 0 0-.1-.5-.2-.4-.2 0-.4.1-.5.3-.1.1-.1.2-.2.3-.1.1-.2.2-.3.2-.4.4-.3 1-.5 1.4-.1.1.2.5.2.4zM18.6 25.2c.5.4 1.3 0 1.2-.7 0-.1-.1-.2-.1-.2s-.1-.1-.1 0c.1.6-.7 1-1.2.6v.1c.2.1.2.2.2.2zM17.4 23.1c0-.4.4-.6.7-.4v-.1c0-.1-.1-.2-.1-.2-.4-.2-.7.1-.7.5 0 0 0 .1.1.2 0 0 0 .1 0 0z"/>
        <path fill="#EBE3B2" d="M19.9 23.3s.1 0 0 0c.1-.1.1-.1.1-.2s.2-.1.2 0c.1 0 .1.1.1.2v.1h-.1c-.1 0-.2 0-.3-.1z"/>
        <path fill="#fff" d="M22.5 24.5c-.2 0-.3.1-.5.1-.3 0-.6-.2-.8-.5-.2-.3-.1-.7.1-.9.2-.3.6-.4.9-.7l.1-.1c.1-.2-.1-.3-.2-.4-.1-.2 0-.3.1-.5.1-.1.1-.3.1-.5.1-.2.1-.5.2-.6.1-.2.4-.1.6 0 .3.1.6.3.8.4.6-.4 1.3-.7 2-.5.1 0 .3.1.3.2v.3c0 .3 0 .6-.1 1v.1c0 .1.1.1.2.1.4 0 .8.3 1 .7.1.3 0 .5 0 .8 0 .2-.1.5-.3.7-.1.1-.2.1-.3.1-.2 0-.4.1-.6.1-.3 0-.7 0-.8.3-.1.2 0 .4.1.7.1.2.1.5-.2.6H25c-.4 0-.7.1-1.3 0-.3 0-.7-.2-.8-.5-.1-.1-.1-.3-.1-.4.3-.5 0-.7-.3-.6z"/>
        <path fill="#FFFEDC" d="M22.6 24.4c-.3 0-.5.1-.8 0-.2-.1-.4-.3-.5-.5-.1-.2-.1-.5 0-.7.1-.2.3-.3.4-.5.2-.1.4-.2.6-.4.1-.1.1-.1.1-.2s-.1-.2-.1-.3c-.1-.1-.1-.2 0-.3 0-.1.1-.2.2-.4s.1-.5.2-.7c0-.1.1-.3.2-.3h.1c.1 0 .1 0 .2.1.3.1.6.3.8.4.1 0 .2 0 .3-.1.4-.3.8-.5 1.3-.5.2 0 .5 0 .6.1.1.1.1.2.1.3v.8c0 .1-.1.3 0 .4.1.1.2 0 .2 0 .1 0 .2 0 .3.1.4.2.6.6.6 1.1 0 .2 0 .5-.1.7 0 .1-.1.2-.1.3-.1.2-.2.2-.4.3-.4.1-.9 0-1.3.3-.2.1-.2.3-.2.5s.2.4.2.6c0 .1 0 .2-.1.2 0 0 .1 0 0 0h-.8c-.4 0-1.1 0-1.3-.5-.1-.1-.1-.3-.1-.4 0-.1-.1-.2-.1-.3-.1-.1-.3-.1-.5-.1-.1 0-.2 0-.2.1s0 .1.1.1c.2 0 .4.2.5.4 0 .1 0 .2.1.3 0 .1.1.2.1.3.3.4.9.4 1.3.4h.6c.2 0 .5 0 .7-.2.4-.4-.2-.8 0-1.2.1-.2.3-.2.5-.2.3 0 .6 0 .8-.1.2-.1.4-.2.6-.4.1-.2.1-.5.2-.7 0-.3 0-.5-.1-.8-.1-.2-.2-.4-.4-.5-.1-.1-.2-.1-.3-.1h-.4c-.1 0-.1-.3-.1-.3v-.4c0-.3.1-.6-.2-.8-.2-.3-.5-.3-.8-.3-.6 0-1.2.3-1.6.6.1 0 .2 0 .3-.1-.3-.2-.5-.3-.8-.4-.2-.1-.5-.1-.7 0-.3.1-.4.3-.4.6 0 .1-.1.2-.1.4 0 .1 0 .1-.1.2 0 .1-.1.1-.1.2-.1.1-.1.2-.1.4 0 .1.1.2.2.3.1.1 0 .2-.1.3-.1.1-.2.1-.3.2-.2.1-.4.3-.5.5-.1.2-.2.5-.1.7.1.3.3.5.5.6.1.1.3.1.4.1.2 0 .4 0 .5-.1-.1 0 0 0 0-.1.1 0 0 0 0 0z"/>
        <path fill="#EBE3B2" d="M22.4 23s-.1-.1 0-.1v-.1c.1-.1.2-.2.2-.4v-.2c0-.2.2-.3.4-.3.2-.1.5-.2.5-.5v-.2c.1-.1.2-.1.3 0v-.3c.2 0 .3.2.4.4l.2-.4h.3c.1.4.1.7.1 1.1v.1l-.1.1c-.4.2-.7.6-.8 1 0 .1 0 .3-.1.3-.2.1-.4-.2-.6-.2 0 .1-.1.2-.1.4-.3-.2-.5-.5-.7-.7z"/>
        <path fill="#FFFEDC" d="M24 25.1c.1.3.2.5.5.5.3.1.7-.3.8-.5 0-.1 0-.2-.1-.2l-.1-.2c-.2.2-.8.8-1.1.4.1.1.2.2.2.3 0-.1-.1-.3-.2-.3 0-.1 0-.1 0 0zM24.4 23.9c.7.4 1.6.6 2.4.4.8-.2.8-1.4.6-2 0-.1-.1-.3-.2-.3s-.1-.1-.1 0c.1.4.1.8 0 1.2-.1.4-.3.6-.7.6-.8.1-1.6-.1-2.2-.4-.1 0 0 .2 0 .2.1.1.2.3.2.3zM21.4 24c-.2-.3.1-.6.3-.7l.6-.6c.1-.1.1-.2.1-.4-.1-.3 0-.5 0-.8 0-.2-.1-.4 0-.6.1-.2.2-.3.4-.4.5-.2 1 0 1.3.3.1.1 0-.1 0-.1 0-.1-.1-.2-.2-.3-.4-.3-.9-.6-1.4-.3-.2.1-.4.3-.4.5v.3c0 .2 0 .4-.1.5v.4c0 .1.1.2 0 .3 0 .1-.1.1-.1.2l-.7.7c-.4.4-.2.9.1 1.3 0 .1.1.1.1.1.1-.2 0-.3 0-.4z"/>
        <path fill="#FFFEDC" d="M24.9 23.1s0-.1 0 0l-.1-.1c0-.1.1-.1-.1.1-.1.2-.1.1 0 .1.1-.1.2-.1.2-.1.1 0 .1-.1.2-.1l.1-.2H25c-.1.1-.2.2-.2.3-.1.1-.2.4 0 .5 0 0 .1-.2.2-.2-.2-.1-.1-.3-.1-.3zM25.5 23.5c.3.1.7 0 1-.1.3-.1.5-.5.6-.8 0 0-.5 0-.5.1 0 .2-.1.4-.2.6-.1.1-.2.2-.3.2H26h.2-.7zM26 20.8c-.1-.1-.3-.2-.4-.2h-.5s-.1 0 0 0c.2 0 .3.1.4.2H25.8c0 .1 0 .1.2 0-.1.1 0 0 0 0zM23 24.6c0 .4.1 1 .5 1.2.4.2 1 .1 1.4.1.3 0 .8 0 .9-.3.3-.4-.3-1 .2-1.3h-.2c-.1 0-.2 0-.3.1-.3.2-.2.5-.2.8 0 .1.1.3 0 .5l-.1.2h-.3c-.4 0-.8 0-1.1-.3-.2-.3-.2-.7-.3-1 0-.2-.5-.1-.5 0zM22.6 24.4c-.2 0-.4 0-.6-.1h-.3l-.2.1c.2.1.5.2.8.2.1-.1.2-.1.3-.2.1 0 .1 0 0 0zM25.5 22c.1-.1.3-.3.5-.3.1 0 .3.1.4.1 0 0 .2 0 .1-.1-.5 0-1.1 0-1.5.3h.2c.1.1.3.1.3 0z"/>
        <path fill="#E7D0AC" d="M31.4 20.7c-.6-.2-2.1-.8-2.1.4.2 0 .3-.1.5-.1-.8 0-1.7-.1-2.4.2-.3.1-.5.3-.4.7l.3.6c.1.3.1.4 0 .6-.5.6-.5 1.7.3 2.1.5.3 1.2.1 1.6-.1-.1 0-.4 0-.5.1-.6.3-1.2-.5-1.2-1-.1-.5.2-1 .6-1.4-.2-.3-.7-1.1-.4-1.5.2-.2.6-.2.9-.2h1c.1 0 .5 0 .5-.1v-.3c0-.2 0-.2.2-.2s.7.2.9.3c-.1 0 .2-.1.2-.1zM29.3 25.7c.3.5.9.4 1.3.3.1 0 .3 0 .5-.1.2-.2.2-.6.2-.9 0-.1.1-.2.1-.3.1-.1.1-.2.1-.3h.2c.3-.1.5-.2.7-.3.3-.3.7-1.1 0-1.3-.2 0-.4.1-.5.1.5.1.4.7.2 1-.1.2-.3.4-.5.5-.1 0-.2 0-.4.1-.3.1-.4.5-.4.8 0 .1 0 .5-.1.7-.1.1-.3.1-.4 0-.2-.1-.3-.2-.3-.3-.2-.2-.7 0-.7 0zM31.8 22.5c.3-.4 1-.9.4-1.4h-.3l-.3.1c.5.5-.1 1-.4 1.4h.3c.2 0 .3 0 .3-.1z"/>
        <path fill="#E7D0AC" d="M29 24.5c.3-.3.3-.6.4-.9 0-.2.1-.3.1-.4 0-.1.1-.1.1-.2l.1-.1c.1-.1.1-.1-.1 0 .2 0 .4-.1.5-.1-.3-.1-.8 0-1 .3-.5.5-.3 1.1-.7 1.6.1-.1.5-.1.6-.2z"/>
        <path fill="#fff" d="M32 21.1c.1 0 .2.1.2.1.2.2.1.5-.1.7-.2.2-.4.4-.4.6.1.2.4.2.6.4.1.1.1.2.1.3 0 .5-.3 1-.8 1.2-.2.1-.4.1-.5.2-.3.2-.3.6-.3 1 0 .1 0 .1-.1.2s-.2.2-.4.2c-.5 0-.9-.2-1.2-.5-.1-.1-.2-.3-.4-.3-.1 0-.3.1-.4.1-.2 0-.4 0-.6-.1-.3-.2-.7-.5-.7-.9-.1-.6.7-1.2.5-1.8-.1-.3-.4-.5-.4-.8 0-.3.2-.5.5-.6.2-.1.5-.1.8-.1h1c.2-.1.2-.3.4-.4.2-.2.4-.2.7-.1.5.1 1 .4 1.5.6z"/>
        <path fill="#FFFEDC" d="M31.9 21.1c.1.1.3.1.3.3 0 .1 0 .3-.1.4-.1.1-.2.2-.3.4-.1.1-.2.3-.2.4.1.2.4.2.5.3.3.1.2.6.1.8-.1.3-.3.5-.6.6-.1.1-.3.1-.4.2-.1.1-.3.2-.3.3-.1.2-.2.5-.2.8 0 .1 0 .3-.2.3H30c-.3-.1-.6-.3-.8-.5l-.3-.3c-.2-.1-.3 0-.5 0-.5.2-1.4-.3-1.3-.9.1-.5.5-.9.6-1.4 0-.3-.2-.5-.3-.8-.1-.1-.1-.3-.1-.4 0-.1.1-.2.3-.3.2-.1.3-.1.5-.1h.6c.3 0 .7.1 1-.2.1-.1.1-.3.3-.3.1-.1.2 0 .4 0 .4.1.7.2 1.1.4 0-.1.2 0 .4 0h.2s.1-.1 0-.1c-.4-.2-.8-.3-1.2-.4-.3-.1-.7-.2-1.1-.1-.2 0-.3.1-.4.3-.1.1-.1.3-.3.3h-1.2c-.3 0-.7.1-.9.4-.2.3-.1.6.1.9.1.1.2.3.2.4 0 .1 0 .3-.1.4-.1.3-.3.5-.4.8-.1.3-.1.6 0 .8.2.3.4.5.7.6.2.1.4.1.6.1.1 0 .2 0 .3-.1.1 0 .2-.1.3 0 .1.1.2.2.4.3.1.1.3.2.4.3.3.2.7.2 1 .2.2 0 .3-.1.4-.2.1-.1.1-.3.1-.5 0-.3.1-.7.4-.8.2-.1.3-.1.5-.2.1-.1.3-.2.4-.3.2-.2.4-.5.4-.8 0-.2 0-.3-.1-.4-.1-.1-.2-.1-.3-.2-.1 0-.2-.1-.3-.2 0-.1.1-.2.1-.2l.2-.2c.2-.2.4-.5.3-.8l-.3-.3h-.2c-.2-.1-.3 0-.2 0z"/>
        <path fill="#EBE3B2" d="M28.7 23.1c-.2 0-.3-.1-.4-.3-.1-.2-.1-.3-.2-.5 0-.1-.1-.1-.1-.2s0-.1.1-.2c.2-.2.4-.5.7-.5.3 0 .6.3.9.3h.5c.1 0 .2.1.3.2.3.2.6.5.9.7.1.1.1.1.1.2-.4 0-.8-.1-1.1-.2-.1 0-.3-.1-.4-.1-.5 0-1 .4-1.1.9 0 .1 0 .3-.1.4 0 .1-.1.3-.2.4-.2.3-.2-.4-.1-.4-.1 0 .1-.7.2-.7z"/>
        <path fill="#fff" d="M32.6 23.4c0-.2 0-.4.2-.6 0 0 .1 0 .1-.1v-.1c-.2-.7-1.2-.7-1.5-1.4-.2-.4 0-.8.3-1.1.2-.2.5-.3.8-.4.4-.2.8-.6 1.3-.5.4.1.6.5.8.8.5-.3 1-.5 1.6-.7.2 0 .4-.1.5 0 .3.1.4.3.5.6.2.5.1 1.1-.1 1.6-.1.1-.1.2-.1.3 0 .1.1.1.1.1.1.1.3.2.3.4.1.3 0 .6-.3.8-.2.2-.6.2-.8.3-.1 0-.1 0-.2.1s-.1.2-.1.2c-.1.7-.8 1.2-1.5 1.2-.5 0-.9-.2-1.3-.4-.4-.1-.6-.6-.6-1.1z"/>
        <path stroke="#FFFEDC" stroke-miterlimit="10" stroke-width=".117" d="M32.6 23.4c0-.2 0-.4.2-.6 0 0 .1 0 .1-.1v-.1c-.2-.7-1.2-.7-1.5-1.4-.2-.4 0-.8.3-1.1.2-.2.5-.3.8-.4.4-.2.8-.6 1.3-.5.4.1.6.5.8.8.5-.3 1-.5 1.6-.7.2 0 .4-.1.5 0 .3.1.4.3.5.6.2.5.1 1.1-.1 1.6-.1.1-.1.2-.1.3 0 .1.1.1.1.1.1.1.3.2.3.4.1.3 0 .6-.3.8-.2.2-.6.2-.8.3-.1 0-.1 0-.2.1s-.1.2-.1.2c-.1.7-.8 1.2-1.5 1.2-.5 0-.9-.2-1.3-.4-.4-.1-.6-.6-.6-1.1z"/>
        <path fill="#FFFEDC" d="M34.5 24.1c.4 0 .8-.1 1-.5 0-.1 0-.2-.1-.2l-.1-.2c-.2.3-.6.5-1 .5l.1.2c-.1.1 0 .2.1.2zM36 23c-.2 0-.4 0-.5-.1-.2-.1-.2-.3-.3-.4-.1-.1-.1-.2-.2-.3-.2-.1-.4 0-.5-.2 0 .1.1.2.1.2v-.1c0-.1-.1-.2-.1-.2-.1-.1-.2-.1-.3-.1-.4.3-.8.5-1.4.5 0 0 .1.4.2.4.3 0 .6-.1.8-.2.1-.1.2-.1.4-.2.1-.1.2-.2.4-.2-.1-.1-.1-.2-.2-.4.1.2.1.4.3.6.1.1.2.1.3.1.2 0 .2 0 .3.2.2.4.5.8 1 .7 0 .2-.2-.3-.3-.3z"/>
        <path fill="#FFFEDC" d="M34.3 19.7c-.1.4-.2.8-.4 1.2-.2.4-.3.7-.8.8 0 0 .1.5.2.4.4-.1.6-.4.7-.7.2-.4.3-.8.4-1.3 0-.1-.1-.2-.1-.3.2 0 .1-.1 0-.1zM35.4 22.7c.3-.7 1.1-1 1.7-.5V22c0-.1-.1-.2-.2-.3-.6-.5-1.5-.2-1.7.5 0 .1.1.2.1.3 0 .1.1.2.1.2zM35.8 23.5c-.1.3-.3.6-.5.8-.2.2-.5.2-.8.2-.3 0-.7 0-1-.1-.3-.1-.8-.2-.8-.5v-.3s-.1-.4 0-.3c0 .3 0 1 .2 1.2.3.3.7.4 1.1.5.2 0 .5.1.7.1.2 0 .5 0 .7-.1.4-.2.6-.6.7-1 .1-.4-.1-.7-.1-.7-.1-.1-.2.1-.2.2zM37.2 22.1c-.1.5-.5.8-.9.9 0 0 .1.5.2.4.5-.1.8-.5 1-.9 0-.1-.1-.2-.1-.3-.1.1-.2-.1-.2-.1zM32.4 21c0-.2.2-.4.3-.5.2-.1.4-.3.7-.3 0 0-.1-.4-.2-.4-.3 0-.5.1-.7.3-.2.1-.3.3-.4.5 0 .1.1.2.1.3 0-.1.2.1.2.1z"/>
        <path fill="#fff" d="M39.5 20.1c.6.3.9.9 1 1.5.1.5 0 1-.3 1.3-.3.4-.8.6-1.2.5.4.7.4 1.7 0 2.5-.1.3-.4.5-.6.6-.6.2-1.4-.3-2 0-.1-.3-.1-.6-.2-.9 0-.1-.1-.3-.1-.4-.1-.2-.3-.3-.5-.4-.4-.3-.8-.7-1-1.2-.2-.5-.2-1.1 0-1.5.1-.1.2-.3.3-.3.3-.2.6-.2.9-.1.6.1 1.2.3 1.8.6.4.2.9.4 1.2.1.2-.2.1-.6-.1-.9-.3-.4-.8-.7-.3-1.2.2-.3.7-.4 1.1-.2z"/>
        <path fill="#FFFEDC" d="M39.4 20.2c.7.3 1 1.1 1 1.8 0 .4-.1.8-.3 1.1-.2.3-.5.5-.9.4 0 0-.3 0-.3.1.4.6.4 1.5.2 2.1-.1.3-.3.7-.6.8-.1.1-.3.1-.4 0-.2 0-.3-.1-.5-.1-.4-.1-.8-.1-1.1.1h.3c-.1-.3-.1-.5-.2-.8 0-.2-.1-.5-.2-.6-.1-.2-.3-.3-.5-.4-.2-.1-.3-.3-.5-.4-.3-.3-.5-.7-.6-1.2-.1-.4 0-1 .3-1.3.2-.1.4-.1.6-.1.2 0 .5.1.7.2.2.1.5.1.7.2l.6.3c.4.2.8.2 1.1 0 .4-.2.3-.7.1-1-.1-.2-.3-.3-.4-.5-.1-.1-.2-.3-.1-.5 0-.3.6-.4 1-.2h.2s.2-.1.1-.1c-.4-.2-.8-.1-1.2 0-.3.1-.7.5-.5.8.1.2.2.3.3.4.1.2.3.3.3.5s0 .5-.2.5h-.2c-.1 0-.2-.1-.3-.1-.2-.1-.4-.2-.7-.3-.2-.1-.5-.2-.7-.2-.5-.1-1-.3-1.4-.1l-.6.3-.3.6c-.1.5 0 1 .3 1.4.1.2.3.4.5.6.2.2.4.3.6.4l.3.3c.1.1.1.2.1.4.1.3.1.6.2 1 0 .1.2 0 .3 0 .1-.1.3-.1.5 0 .2 0 .4.1.5.1.4.1.7.1 1.1-.1.7-.3 1-1.2 1-1.9 0-.4-.1-.9-.3-1.3-.1 0-.2.1-.3.1.6.2 1.4-.2 1.6-.8.3-.6.2-1.4-.1-2-.2-.3-.4-.6-.7-.7h-.2c-.1.1-.3.1-.2.2z"/>
        <path fill="#EBE3B2" d="M35.6 23.4c-.1-.3-.1-.6 0-.8.1-.1.2-.2.2-.3.1-.1.1-.2-.1-.3h-.6c0 .1-.1.2-.1.3.1.1.2.2.2.3 0 .1-.1.3-.1.4v.1l.1.1c.1.1.2.2.4.2zM39 23c.1-.2.1-.6 0-.8-.1-.2-.2-.4-.1-.5 0-.1.1-.1.1-.2 0-.2-.2-.3-.4-.4-.1 0-.2-.1-.4-.1-.1 0-.2 0-.2.1v.1c.1.2.3.4.4.6.1.1.2.2.1.4 0 .3-.3.3-.1.6.1 0 .6.3.6.2z"/>
        <path fill="#FFFEDC" d="M36.1 24.9c.7.3 1.5.2 2.1-.1.3-.1.7-.3.9-.5.2-.3.2-.8.2-1.2 0 0-.5 0-.5.1 0 .5 0 1-.4 1.4-.5.4-1.2.5-1.7.2h-.3c-.2.1-.4.1-.3.1zM37.1 26c.3.1.8 0 1.1-.1.3-.2.9-.5.7-1 0-.1-.5.1-.5.1.1.3-.1.5-.3.6-.1.1-.2.1-.3.2-.1 0-.1.1-.2.1-.1.1.1 0 0 0h-.3l-.2.1z"/>
        <path fill="#FFFEDC" d="M39.4 23.3c.3 0 .7-.1.9-.3.3-.3.4-.7.4-1.1 0-.8-.3-1.8-1.1-2.2h-.3l-.2.1c.6.3.9.9 1.1 1.6.1.3.1.6 0 1 0 .2-.1.3-.2.5 0 .1-.1.1-.2.2 0 0-.2.1 0 .1-.2 0-.3 0-.4.1-.1 0-.2 0 0 0zM37 24.1c.3.1.7 0 1-.1.3-.2.4-.6.2-.9-.1-.1-.5.1-.5.1.1.2.1.4.1.6 0 .1-.1.2-.2.2l-.1.1s.2 0 0 0h-.3c0-.1-.2 0-.2 0zM37.3 26.5h.7c.2 0 .4 0 .6-.1.3-.1.6-.3.8-.5.3-.4.3-.8.3-1.3 0-.4 0-.8-.3-1.1h-.3l-.3.1c.5.5.4 1.5.2 2.1-.2.4-.5.7-.9.7s-.7 0-1 .1c-.1 0-.2 0-.1.1 0 0 .2-.1.3-.1z"/>
        <path fill="#fff" d="M39.9 22.7c-.3-.1-.5-.3-.5-.6 0-.2 0-.3.1-.5.1-.3.3-.6.5-.6h.3c.3.1.5.2.7.3.1.1.2.1.3.1.2 0 .3-.1.4-.2.2-.2.5-.3.7-.4.3-.1.6 0 .8.2.1.1.2.3.2.5.1.3.1.6 0 .8-.1.3-.3.5-.6.6-.1 0-.1 0-.2.1s0 .2 0 .3c.1.1.1.2.1.3 0 .3-.4.3-.5.6 0 .1.1.3 0 .4 0 .3-.4.3-.6.4-.3 0-.7 0-1 .1h-.8c-.2-.1-.5-.2-.6-.4-.1-.2-.1-.4 0-.6.1-.3.2-.5.4-.7.1-.2.5-.3.5-.5.2-.1 0-.1-.2-.2z"/>
        <path stroke="#FFFEDC" stroke-miterlimit="10" stroke-width=".117" d="M39.9 22.7c-.3-.1-.5-.3-.5-.6 0-.2 0-.3.1-.5.1-.3.3-.6.5-.6h.3c.3.1.5.2.7.3.1.1.2.1.3.1.2 0 .3-.1.4-.2.2-.2.5-.3.7-.4.3-.1.6 0 .8.2.1.1.2.3.2.5.1.3.1.6 0 .8-.1.3-.3.5-.6.6-.1 0-.1 0-.2.1s0 .2 0 .3c.1.1.1.2.1.3 0 .3-.4.3-.5.6 0 .1.1.3 0 .4 0 .3-.4.3-.6.4-.3 0-.7 0-1 .1h-.8c-.2-.1-.5-.2-.6-.4-.1-.2-.1-.4 0-.6.1-.3.2-.5.4-.7.1-.2.5-.3.5-.5.2-.1 0-.1-.2-.2z"/>
        <path fill="#FFFEDC" d="M42.9 23.2c.1-.4.7-.3.7-.8s-.1-1.1-.4-1.5c-.3-.4-.9-.2-1.3 0-.5.4-.7 1-.9 1.5 0 .1.1.2.1.3 0 0 .1.2.1.1.3-.8.8-1.9 1.8-1.8.2 0 .2 0 .3.2 0 .1 0 .3.1.4 0 .2.1.5-.1.6-.2.2-.5.2-.6.5 0 .1.1.2.1.3 0 .1.1.2.1.2z"/>
        <path fill="#FFFEDC" d="M41.1 21.3c-.1-.2-.3-.3-.5-.3-.2-.1-.4-.1-.6-.1-.4.1-.6.7-.7 1.1-.2.8.9 1.5 1.6 1.2-.1-.1-.1-.3-.2-.4-.1 0-.1.1-.2.1 0 0 .1.5.2.4.1 0 .1 0 .2-.1.1 0-.2-.5-.2-.4-.4.2-1.1 0-1.4-.4.1.1.1.2.2.3-.1-.2.1-.5.2-.7.1-.2.2-.4.4-.5.3-.2 1 .1 1.2.3.1.1 0-.1 0-.1-.1-.2-.1-.3-.2-.4z"/>
        <path fill="#FFFEDC" d="M40.2 22.9c-.6.4-.9 1-.6 1.6.1.3.3.5.6.7.3.1.7.1 1.1.1.4 0 .8-.1 1.2-.2.4-.2.3-.3.2-.7 0-.2.1-.2.2-.3.1-.1.2-.3.1-.5 0-.3-.2-.7-.4-.9-.2-.3-.1 0 0 .2.2.3.2.6 0 .8-.1.1-.2.2-.1.4 0 .1.1.2.1.3 0 .1-.1.2-.2.2-.3.1-.5.2-.8.2-.5.1-1.1.1-1.6-.2-.2-.1-.2-.2-.1-.4 0-.1.1-.3.1-.4.1-.2.4-.4.6-.6-.1.1-.4-.4-.4-.3z"/>
        <path fill="#FFFEDC" d="M40.9 24.2c.1.3.4.4.7.4.2 0 .4 0 .5-.2.1-.2 0-.4 0-.5 0 0-.1-.2-.1-.1.1.3 0 .6-.3.6-.2 0-.6 0-.8-.2 0-.1 0-.1 0 0zM40.7 23.9c.1-.3.4-.4.7-.5l-.1-.2c-.3.1-.5.2-.7.5 0 .1.1.2.1.2zM41.9 22.8c.2-.1.4-.1.5-.1H42.7s.1 0 0 0c0 0 .1.2.1.1-.1-.1-.1-.3-.3-.3-.3 0-.6.1-.8.2.1-.1.1.1.2.1zM40.2 22.3c.1-.1 0-.2 0-.3 0-.2.3-.2.4-.2 0 0 0-.2-.1-.2s-.3 0-.4.2v.2c0 .1.1.1 0 .2 0-.1.1.1.1.1zM42.2 22.3c.1-.2.1-.4.3-.6.2-.1.4-.2.6-.1v-.1s0-.1-.1-.1c-.2-.1-.4-.1-.6.1-.2.2-.2.4-.3.6l.1.2z"/>
        <path fill="#fff" d="M42.5 25c-.3-.2-.5-.4-.5-.7 0-.2.1-.4.2-.5.1-.2.3-.4.5-.4s.5.1.7.1c.1 0 .1 0 .1-.1.1-.1 0-.2-.1-.4 0-.3.3-.4.4-.7 0-.1 0-.2.1-.3.1-.2.3-.2.5-.2.4-.1.7-.4 1.1-.4.4 0 .8.2.9.6.1 0 .1-.1.1-.2v-.3c0-.1.2-.2.3-.2.1 0 .2.1.4.1.5.3 1 .7 1.3 1.2.1.2.2.5.1.6-.1.1-.2.1-.2.1-.5.1-.8.6-1 1v.1c0 .1.1.1.1.2.1.2 0 .4-.1.5-.1.1-.3.3-.3.5v.3c0 .1-.1.2-.3.3h-.4c-.3 0-.6-.1-.9-.1-.4 0-.8-.1-1.2-.2-.1 0-.2-.1-.3-.1-.3-.1-.6 0-.8-.1l-.7-.7z"/>
        <path stroke="#FFFEDC" stroke-miterlimit="10" stroke-width=".117" d="M42.5 25c-.3-.2-.5-.4-.5-.7 0-.2.1-.4.2-.5.1-.2.3-.4.5-.4s.5.1.7.1c.1 0 .1 0 .1-.1.1-.1 0-.2-.1-.4 0-.3.3-.4.4-.7 0-.1 0-.2.1-.3.1-.2.3-.2.5-.2.4-.1.7-.4 1.1-.4.4 0 .8.2.9.6.1 0 .1-.1.1-.2v-.3c0-.1.2-.2.3-.2.1 0 .2.1.4.1.5.3 1 .7 1.3 1.2.1.2.2.5.1.6-.1.1-.2.1-.2.1-.5.1-.8.6-1 1v.1c0 .1.1.1.1.2.1.2 0 .4-.1.5-.1.1-.3.3-.3.5v.3c0 .1-.1.2-.3.3h-.4c-.3 0-.6-.1-.9-.1-.4 0-.8-.1-1.2-.2-.1 0-.2-.1-.3-.1-.3-.1-.6 0-.8-.1l-.7-.7z"/>
        <path fill="#EBE3B2" d="M43.4 23.8c.2 0 .3 0 .5.1.2 0 .4 0 .4-.2v-.2c0-.1.1-.2.2-.2-.1-.1 0-.1 0-.2.1-.1.1-.1.2-.1.2 0 .4-.1.5-.1.3-.1.6-.1.8 0 .1.1.2.2.3.2.1.1.3 0 .4-.1.1-.1.2-.2.2-.4 0-.1 0-.2.1-.2.1-.1.3-.2.5-.1s.3.2.4.3c.1.1.1.2 0 .2h-.1c-.2 0-.3-.1-.5 0-.2 0-.3.2-.3.3 0 .2.2.3.1.5-.1.1-.2.1-.3.1-.2.1-.2.4-.4.5-.1.1-.3.1-.5.1s-.4.2-.6.3c-.4.1-.8-.1-1.1-.3-.1-.3-.3-.3-.5-.3s-.3.1-.5.1c-.1-.2.1-.3.2-.3z"/>
        <path fill="#FFFEDC" d="M42.8 24.7c0 .2.2.4.4.4.3 0 .6-.1.8-.2h-.2c-.1 0-.2 0-.3.1h-.1c.3-.1.4 0 .2-.1-.1 0-.1-.1-.2-.1-.1-.1-.1-.2-.1-.3.1.1-.4.1-.5.2zM45.6 22.1s.1 0 .1-.1c.1 0 .1 0-.1.1 0-.1-.1-.1 0 0 .1 0 .1 0 .2.1h.3l.3-.1c-.1-.2-.3-.2-.5-.1-.3 0-.5.1-.7.2h.2c0-.1.1-.1.2-.1z"/>
        <path fill="#FFFEDC" d="M44.2 24.6v.7c0 .1-.1.2-.2.3h-.1.1H43.4s-.2 0-.1.1c.3 0 .7 0 1.1-.1.4-.2.3-.6.3-1 0-.1-.5-.1-.5 0zM42.4 24.4c.2-.2.2-.4.3-.7 0-.1 0-.1.1-.2l.1-.1c-.1 0-.1 0-.1.1h.4c.2 0 .6 0 .6-.3v-.5l.3-.3c.1-.1.1-.3.2-.5s.4-.2.6-.2c.4 0 .8.1 1.2.2.2.1.6.1.7-.1.1-.1.1-.2.1-.3v-.2c0-.1.2.1.2 0 .4.2.3 0 .2-.1-.2-.1-.5-.2-.7-.1-.1.1-.2.1-.2.3 0 .1 0 .4-.1.4h.4c-.2 0-.3-.1-.5-.2s-.4-.1-.5-.1h-.9c-.3 0-.6.1-.9.2-.1 0-.2.1-.3.2-.1.1 0 .3-.1.5l-.3.3c-.1.1 0 .3 0 .5 0 0-.1.3.1.2H42.7c-.2 0-.4.1-.5.3-.1.2-.1.6-.3.7h.5zM47.4 24.1c.2 0 .3 0 .5-.2.1-.2.1-.4.2-.6l.1-.1h-.1.4c.2 0 .4-.1.4-.3 0 0-.5 0-.5.1s0 .1-.1.1h.1-.3c-.1 0-.3 0-.4.1-.3.2-.2.6-.5.8.1.1.2 0 .2.1.1-.1 0-.1 0 0 0-.1-.3 0-.3 0h.3zM46.1 25.4c.2 0 .5 0 .7-.2.1-.1.2-.3.1-.5h-.3l-.3.1c0 .1.1.2 0 .3 0 .1-.1.1-.1.1-.1.1-.3.1.1 0-.1 0-.3 0-.4.1.1.1.2.1.2.1z"/>
        <path fill="#fff" d="M46.1 22.6c-.1-.2-.2-.4-.1-.6.1-.2.3-.2.5-.2.3-.1.6-.1.9-.1h.5c.1 0 .2.1.3.1.1 0 .3-.1.3-.2s.1-.3.1-.4c.1-.6.7-1 1.2-1.3.1-.1.2-.1.3 0 0 0 0 .1.1.1.3.8.4 1.6.3 2.5.4 0 .9.2 1 .6 0 .1.1.1 0 .2l-.1.1c-.4.4-.8.8-1.3.9-.1 0-.3 0-.4.1-.5 0-1 .1-1.5.1h-.9c-.3-.1-.6-.2-.7-.5-.2-.3-.1-.4 0-.7 0-.2.1-.1-.1-.3l-.4-.4z"/>
        <path stroke="#FFFEDC" stroke-miterlimit="10" stroke-width=".117" d="M46.1 22.6c-.1-.2-.2-.4-.1-.6.1-.2.3-.2.5-.2.3-.1.6-.1.9-.1h.5c.1 0 .2.1.3.1.1 0 .3-.1.3-.2s.1-.3.1-.4c.1-.6.7-1 1.2-1.3.1-.1.2-.1.3 0 0 0 0 .1.1.1.3.8.4 1.6.3 2.5.4 0 .9.2 1 .6 0 .1.1.1 0 .2l-.1.1c-.4.4-.8.8-1.3.9-.1 0-.3 0-.4.1-.5 0-1 .1-1.5.1h-.9c-.3-.1-.6-.2-.7-.5-.2-.3-.1-.4 0-.7 0-.2.1-.1-.1-.3l-.4-.4z"/>
        <path fill="#EBE3B2" d="M46.7 22.4c-.1-.1-.2-.1-.4-.2-.1-.1-.2-.2-.1-.3l.1-.1c.6-.2 1.4-.2 2 .1.1-.4.2-.8.4-1.2.3-.3.7-.5 1.1-.3.4.2.5.8.4 1.2 0 .1-.1.3-.1.4-.2.3-.7.4-1 .7l-.3.3c-.1.1-.3 0-.4-.1-.2 0-.4.2-.6.3h-.4c-.2 0-.4.3-.6.1-.2-.3.1-.6-.1-.9z"/>
        <path fill="#FFFEDC" d="M46.9 23.6c.1.3.4.4.7.4.3 0 .6 0 .8-.2h-.2c-.1 0-.3 0-.3.1l-.1.1h.1c-.1 0-.1 0-.2-.1-.2-.1-.3-.1-.3-.3.1-.1-.5 0-.5 0zM49.7 23.5c.1.1.1.1.2.1.2 0 .4 0 .5-.1.2-.1.4-.2.3-.4 0-.1-.5.1-.5.1v.3s-.1 0-.1.1H50.3c-.1 0-.1 0-.1-.1h-.3c0-.1-.2 0-.2 0z"/>
        <path fill="#FFFEDC" d="M46.8 24.2c.8.6 1.9.3 2.8.2.5-.1 1-.1 1.4-.5.3-.3.4-.7.2-1 0-.1-.1-.3-.2-.3s0 0 0 .1c.1.4-.2.8-.6 1-.4.2-.8.3-1.3.3-.8.1-1.8.3-2.6-.2v.2c.1.1.2.2.3.2zM48.6 20.9c.2-.4.5-.6.9-.6.1 0 .2-.4.2-.4-.7.1-1.2.6-1.5 1.2 0 .1.1.1.1.1.1 0 .1-.1.2-.2v-.1h.1z"/>
        <path fill="#fff" d="M30.6 18.2c.2.2.3.4.3.6 0 .2-.2.4-.3.6-.1.2-.1.5-.3.7-.1.2-.3.2-.5.3-.2.1-.5.2-.7.2.1.1 0 .3-.1.4-.1.1-.2.3-.3.4-.2.2-.3.4-.6.6-.3.2-.7.3-1 .4-.2.1-.5.1-.7.1-.4 0-.7-.1-1-.2l-.6-.3c-.1-.1-.2-.3-.3-.5 0-.1-.1-.2-.1-.3 0-.4.4-.7.7-.9-.4-.2-.7-.5-1-.8-.1-.1-.1-.2-.2-.3-.1-.2-.1-.5-.1-.8v-.2c0-.1.1-.1.1-.1.2-.1.4-.2.5-.3.2-.1.4-.3.4-.5v-.2c-.1-.3-.1-.6-.1-1 0-.2 0-.4.1-.6.2-.3.5-.4.8-.5.3-.1.6-.1.8.1.1.1.2.3.3.4.2-.3.5-.7.9-.8h.5c.4.1.8.2 1.2.4.3.2.7.4.8.8.1.2.1.5.1.7 0 .2-.1.4-.2.5-.1.1-.4.2-.4.4s.3.2.4.3c.3.1.5.2.6.4z"/>
        <path fill="#FFFEDC" d="M30.5 18.2c.2.2.3.4.2.7 0 .1-.1.2-.2.3-.1.1-.1.2-.2.4 0 .1-.1.2-.1.4-.1.1-.2.2-.3.2l-.9.3c-.1 0-.2.1-.1.2s-.2.4-.2.5c-.1.2-.3.4-.4.6-.3.3-.7.5-1.2.6-.2.1-.5.1-.7.1-.2 0-.5-.1-.7-.2-.2-.1-.4-.1-.6-.3-.2-.1-.3-.3-.4-.5-.1-.2-.1-.4.1-.6.1-.2.3-.3.5-.4.1 0 .1-.1 0-.2-.2-.1-.5-.3-.7-.5-.2-.2-.4-.4-.5-.6 0-.1-.1-.3-.1-.4v-.2-.2l.1-.1c.1 0 .1-.1.2-.1.1-.1.3-.1.4-.2.2-.1.4-.3.4-.5 0-.1 0-.3-.1-.4 0-.1-.1-.3-.1-.4 0-.3-.1-.6 0-.9.1-.2.2-.4.5-.4.2-.1.5-.2.7-.1.3 0 .3.3.5.5.1.1.2 0 .3 0 .1-.2.3-.4.4-.5.2-.2.4-.2.6-.2.5 0 1 .2 1.5.5.2.1.4.3.5.5.1.2.1.5.1.7 0 .2 0 .4-.2.5-.1.1-.3.2-.4.3-.1.2.1.3.2.4.1 0 .2.1.3.1.4 0 .5.1.6.1.1.1.4 0 .3-.2-.2-.2-.4-.3-.6-.4-.1 0-.2 0-.2-.1s.1-.1.1-.1c.2-.1.3-.2.4-.4.1-.2.1-.5.1-.7 0-.3-.1-.5-.2-.7-.1-.2-.4-.4-.6-.5-.5-.3-1-.5-1.6-.5-.3 0-.6.1-.8.3-.2.2-.4.4-.5.6h.3c-.1-.1-.1-.2-.2-.3-.1-.1-.2-.2-.3-.2-.3-.1-.5 0-.8 0-.3.1-.5.1-.7.3-.2.2-.3.5-.3.7 0 .3 0 .6.1.9 0 .1.1.3.1.4 0 .1-.1.2-.2.3-.1.1-.3.2-.4.2-.1.1-.3.1-.4.3-.1.1-.1.2-.1.4v.5c0 .3.2.6.5.8.2.2.5.4.8.6v-.2c-.4.2-.8.6-.7 1.1 0 .2.2.5.3.7.2.2.4.3.6.4.3.1.5.2.8.2.3 0 .6 0 .9-.1.5-.1 1.1-.3 1.5-.7.2-.2.4-.5.6-.7.1-.2.4-.5.2-.7 0 .1-.1.1-.1.2.3-.1.7-.2 1-.3.1-.1.3-.2.4-.3.1-.1.1-.3.2-.4 0-.1.1-.3.2-.4.1-.1.2-.3.2-.4.1-.3-.1-.6-.3-.8-.1-.1-.2-.1-.2 0-.4.1-.5.2-.4.2z"/>
        <path fill="#FFFEDC" d="M25.8 21.8c.3.4.7.5 1.2.4.2 0 .4-.1.5-.2.2-.2.3-.4.5-.6h-.3c-.1 0-.2 0-.3.1-.1.1-.2.2-.2.3 0 .1-.1.1-.2.2 0 0-.2.1-.1.1h-.1c-.1 0-.1 0-.2-.1s-.3-.2-.4-.3c0-.1-.4.1-.4.1zM27.2 15.8c.1-.3.2-.6.4-.7.3-.2.5-.2.8-.1.5.1 1.1.4 1.4.9 0 .1.5-.1.5-.1-.2-.4-.6-.6-1-.7-.4-.2-.7-.3-1.1-.3-.3 0-.7.1-1 .2-.4.2-.6.5-.7.9.2 0 .7 0 .7-.1zM25 19.1v-.2-.2c0-.1 0-.1 0 0 0 0 .1 0 .1-.1.1 0 .1-.1.2-.1s.1-.1.2-.2l.1-.2c-.6.1-.9.8-.8 1.3 0 .1.1-.1.1-.1 0 .1.1-.1.1-.2zM25.8 19.1v-.2-.2c-.1.1-.1.1 0 .1H26.1c.1 0 .1-.1.2-.2l.1-.2c-.3 0-.4.2-.6.4-.1.2-.2.5-.2.8 0 .1.1-.1.1-.1.1-.2.2-.4.1-.4z"/>
        <path fill="#FFFEDC" d="M28.8 17c.2.1.5-.2.7-.3.2-.2.4-.5.3-.8 0-.1-.1.1-.1.1 0 .1-.2.2-.1.3v.1c0 .1 0 .1 0 0 0 0-.1.1-.2.1-.1.1-.2.1-.4.1-.1 0-.2.4-.2.4z"/>
        <path fill="#EBE3B2" d="M25.7 21.2c-.1-.1-.2-.2-.2-.3 0 0 0-.1.1-.1 0 0 .1-.1.2-.1.2 0 .4-.1.6-.1h.2c.1-.1.1-.2.1-.3v-1c.2-.1.3.1.5.2.1.1.2.1.3.1.1 0 .3 0 .3-.1s0-.2-.1-.2-.2-.1-.3-.1c-.2-.1-.4-.2-.5-.4l-.3-.6c0-.1-.1-.2 0-.3.1-.2.3-.2.3-.4 0-.1-.1-.2-.1-.2-.1 0-.2-.1-.3-.1-.3 0-.5-.1-.7-.3-.1-.2-.1-.5.1-.7h.2c.3.2.7.4.8.7.1-.1.1 0 .1.1.1.1.1.2.3.3h.1c.1 0 0-.2 0-.3 0-.2.3-.2.3-.3.1-.1 0-.3.2-.3.1 0 .2 0 .2.1l.5.5c.1.1.2.2.2.3 0 .1-.1.2-.2.2s-.2.1-.3.1c-.2.2-.2.4-.1.7.1.3.2.5.4.7.1.1.2.3.1.4-.1.1-.3.1-.4.1-.3 0-.5.3-.5.5-.1.1-.4 0-.6 0-.2 0-.3.2-.4.3-.1.1-.1.3 0 .4 0 .1.1.1.2.2v.2c-.2.4-.9.6-.9.1h-.4z"/>
        <path fill="#FFFEDC" d="M30.4 18.6c0 .6-.2 1.2-.6 1.5-.2.2-.5.4-.9.4-.3 0-.7-.2-.9-.4h-.3l-.3.1c.6.5 1.5.5 2.3.2.8-.3 1.3-1.1 1.2-1.9.1 0-.5.1-.5.1zM28.6 17.7c.6-.1 1.2-.2 1.6-.5.5-.4.4-1.1.1-1.6-.1-.1-.5.1-.5.1.2.3.3.7.2 1.1-.2.4-.7.7-1.1.8-.1 0-.3 0-.4.1 0 .1.1 0 .1 0zM24.9 22.1c.4.2.9.5 1.4.5.4 0 .8-.1 1.2-.2.8-.3 1.5-.8 1.8-1.6H29c-.1 0-.2 0-.3.1-.3.6-.7 1-1.3 1.3-.3.2-.7.3-1.1.2-.3-.1-.7-.3-1-.4H25c0 .1-.1.1-.1.1zM24.6 19.4c-.1-.2-.4-.4-.4-.7 0-.3.3-.5.4-.7.4-.4.9-.7 1.5-.7h.4s.2 0 .1-.1c-.7-.1-1.4.1-2 .4-.3.2-.6.4-.8.7-.1.2-.2.4-.2.6.1.2.3.4.4.5.1.1.5-.1.6 0zM25.2 16.8c-.1-.2-.1-.4-.2-.6 0-.2-.1-.5 0-.6.1-.1.4-.2.5-.2h.6c.1 0 .3-.4.3-.4-.6-.1-1.1 0-1.5.6-.3.5-.2 1.1 0 1.7l.2-.2c0-.1.1-.2.1-.3zM25.3 20.4c-.2-.3-.6.3-.7.4-.1.1-.2.3-.2.4 0 .2.1.3.2.5 0 0 .3-.3.3-.4-.1-.1-.2-.3-.1-.4.1-.1.2-.2.3-.1-.1 0 .3-.3.2-.4z"/>
        <path fill="#fff" d="M21.4 19.7c-.1-.3-.1-.6.1-.8.1-.1.3-.2.4-.3.1-.1.1-.2.1-.3.1-.2.4-.3.6-.3h.7c.1 0 .3-.1.4-.1.2 0 .5.1.7.3.2.2.3.4.4.6.1-.2.4-.3.6-.3.2 0 .5.1.7.2.2.1.4.1.6.2.2.2.2.5.2.8 0 .2-.1.3-.2.4-.1.1-.2.2-.2.3-.2.4 0 1-.2 1.5-.1.3-.3.5-.4.8 0 .1 0 .1-.1.2 0 .1-.1.1-.2.1-.8 0-1.6-.5-1.9-1.2 0 .2 0 .4-.1.6-.1.1-.3.2-.5.1-.2 0-.3-.1-.5-.2-.3-.2-.6-.4-.7-.7-.1-.2-.1-.4 0-.6 0-.2.2-.4.2-.6-.1-.3-.5-.4-.7-.7z"/>
        <path fill="#FFFEDC" d="M21.6 19.7c-.1-.2-.1-.3 0-.5s.2-.3.3-.4l.2-.2c0-.1.1-.1.1-.2.1-.2.2-.2.4-.2h.7c.2 0 .4-.1.6-.1.4.1.6.5.8.8.1.1.3 0 .3-.1.1-.3.4-.2.6-.2.1 0 .3.1.4.1.1 0 .3.1.4.1.3.1.3.4.3.6 0 .1-.1.3-.1.4-.1.1-.2.3-.3.4-.3.5-.1 1.1-.3 1.6-.1.3-.3.5-.4.7v.2h-.1c-.1 0-.3 0-.4-.1-.6-.1-1.1-.5-1.3-1.1-.1-.1-.3 0-.3.1 0 .2 0 .3-.1.5s-.2.1-.4.1c-.2-.1-.3-.2-.4-.3-.1-.1-.3-.2-.4-.3-.3-.3-.4-.6-.3-1 .1-.2.3-.5.2-.7-.1.1-.4 0-.5-.2-.1-.1-.4 0-.3.1l.3.3c.1.1.2.1.3.3 0 .1-.1.3-.1.4-.1.2-.1.3-.1.5 0 .4.2.7.5.9.3.2.6.5 1 .5.2 0 .4-.1.5-.3.1-.2.1-.4.1-.6-.1 0-.2.1-.3.1.3.6.8 1 1.4 1.1.3.1.7.1.9 0 .1 0 .1-.1.2-.1 0-.1 0-.1.1-.2 0-.2.1-.3.2-.4.1-.1.2-.3.2-.4v-.5c0-.4 0-.7.2-1 .2-.3.4-.5.4-.9 0-.3-.1-.6-.4-.7-.2-.1-.4-.1-.5-.2-.2-.1-.4-.1-.6-.1-.3 0-.7.1-.8.4.1 0 .2 0 .3-.1-.2-.3-.3-.6-.7-.8-.2-.1-.3-.1-.5-.1s-.4.1-.6.1c-.4 0-.7 0-1.1.2l-.3.3c0 .1-.1.2-.1.2-.1.1-.1.1-.2.1-.3.2-.4.6-.2.9-.1.2.2.1.2 0z"/>
        <path fill="#FFFEDC" d="M22.7 21.2c.6.5 1.3 0 1.8-.4.2-.2.5-.4.6-.8.1-.3 0-.5-.1-.8l-.1-.2.1.2c.2.5-.6 1.1-.9 1.3-.4.3-1 .6-1.5.2v.2c0 .2 0 .3.1.3zM22.3 20.6c.2-.5.1-1.1.5-1.4.2-.1.3-.2.4-.4.1-.2.3-.4.6-.4 0 0-.1-.5-.2-.4-.2 0-.4.1-.5.3-.1.1-.1.2-.2.3-.1.1-.2.2-.3.2-.4.4-.3 1-.5 1.4-.1.1.2.4.2.4zM24.5 22.2c.5.4 1.3 0 1.2-.7 0-.1-.1-.2-.1-.2s-.1-.1-.1 0c.1.6-.7 1-1.2.6v.1c.1 0 .2.1.2.2zM23.3 20c0-.4.4-.6.7-.4v-.1c0-.1-.1-.2-.1-.2-.4-.2-.7.1-.7.5-.1 0 0 .1.1.2-.1 0 0 .1 0 0z"/>
        <path fill="#EBE3B2" d="M25.8 20.2c0 .1 0 0 0 0 .1-.1.1-.1.1-.2s.2-.1.2 0c.1 0 .1.1.1.2v.1h-.1c-.1 0-.2 0-.3-.1z"/>
        <path fill="#fff" d="M28.4 21.4c-.2 0-.3.1-.5.1-.3 0-.6-.2-.8-.5-.1-.3-.1-.7.1-1 .2-.3.6-.4.9-.7l.1-.1c.1-.2-.1-.3-.2-.4-.1-.2 0-.3.1-.5.1-.1.1-.3.1-.5.1-.2.1-.5.2-.6.1-.2.4-.1.6 0 .3.1.6.3.8.4.6-.4 1.3-.7 2-.5.1 0 .3.1.3.2v.3c0 .3 0 .6-.1 1v.1c0 .1.1.1.2.1.4 0 .8.3 1 .7.1.3 0 .5 0 .8 0 .2-.1.5-.3.7h-.1c-.2 0-.4.1-.6.1-.3 0-.7 0-.8.3-.1.2 0 .4.1.7.1.2.1.5-.2.6h-.2c-.4 0-.7.1-1.3 0-.3 0-.7-.2-.8-.5v-.4c0-.3-.3-.4-.6-.4z"/>
        <path fill="#FFFEDC" d="M28.5 21.3c-.3 0-.5.1-.8 0-.2-.1-.4-.3-.5-.5-.1-.2-.1-.5 0-.7.1-.2.3-.3.4-.5.2-.1.4-.2.6-.4.1-.1.1-.1.1-.2s-.1-.2-.1-.3c-.1-.1-.1-.2 0-.3 0-.1.1-.2.2-.4s.1-.5.2-.7c0-.1.1-.3.2-.3h.1c.1 0 .1 0 .2.1.3.1.6.3.8.4.1 0 .2 0 .3-.1.4-.3.8-.5 1.3-.5.2 0 .5 0 .6.1.1.1.1.2.1.3v.8c0 .1-.1.3 0 .4.1.1.2 0 .2 0 .1 0 .2 0 .3.1.4.2.6.6.6 1.1 0 .2 0 .5-.1.7 0 .1-.1.2-.1.3-.1.1-.2.1-.3.1-.4.1-.9 0-1.3.3-.2.1-.2.3-.2.5s.2.4.2.6c0 .1 0 .2-.1.2 0 0 .1 0 0 0h-.8c-.4 0-1.1 0-1.3-.5-.1-.1-.1-.3-.1-.4 0-.1-.1-.2-.1-.3-.2.2-.4.1-.6.1-.1 0-.2 0-.2.1s0 .1.1.1c.2 0 .4.2.5.4 0 .1 0 .2.1.3 0 .1.1.2.1.3.3.4.9.4 1.3.4h.6c.2 0 .5 0 .7-.2.4-.4-.2-.8 0-1.2.1-.2.3-.2.5-.2.3 0 .6 0 .8-.1.2-.1.4-.2.6-.4.1-.2.1-.5.2-.7 0-.3 0-.5-.1-.8-.1-.2-.2-.4-.4-.5-.1-.1-.2-.1-.3-.1h-.4c-.1 0-.1-.3-.1-.3V18c0-.3.1-.6-.2-.8-.2-.1-.5-.1-.8-.1-.6 0-1.2.3-1.6.6.1 0 .2 0 .3-.1-.3-.2-.5-.3-.8-.4-.2-.1-.5-.1-.7 0-.3.1-.4.3-.4.6 0 .1-.1.2-.1.4 0 .1 0 .1-.1.2 0 .1-.1.1-.1.2-.1.1-.1.2-.1.4 0 .1.1.2.2.3.1.1 0 .2-.1.3-.1.1-.2.1-.3.2-.2.1-.4.3-.5.5-.1.2-.2.5-.1.7.1.3.3.5.5.6.1.1.3.1.4.1.2 0 .4 0 .5-.1-.1-.2 0-.2 0-.3.1 0 0 0 0 0z"/>
        <path fill="#EBE3B2" d="M28.3 19.9s-.1-.1 0-.1v-.1c.1-.1.2-.2.2-.4v-.2c0-.2.2-.3.4-.3.2-.1.5-.2.5-.5v-.2c.1-.1.2-.1.3 0v-.3c.2 0 .3.2.4.4l.2-.4h.3c.1.4.1.7.1 1.1v.1l-.1.1c-.4.2-.7.6-.8 1 0 .1 0 .3-.1.3-.2.1-.4-.2-.6-.2 0 .1-.1.2-.1.4-.3-.1-.5-.5-.7-.7z"/>
        <path fill="#FFFEDC" d="M29.8 22c.1.3.2.5.5.5.3.1.7-.3.8-.5 0-.1 0-.2-.1-.2l-.1-.2c-.1.2-.7.8-1.1.4.1.1.2.2.2.3 0-.1 0-.2-.2-.3.1-.1 0-.1 0 0zM30.3 20.8c.7.4 1.6.6 2.4.4.8-.2.8-1.4.6-2 0-.1-.1-.3-.2-.3s-.1-.1-.1 0c.1.4.1.8 0 1.2-.1.4-.3.6-.7.6-.8.1-1.6-.1-2.2-.4-.1 0 0 .2 0 .2.1.2.1.3.2.3zM27.2 20.9c-.2-.3.1-.6.3-.7l.6-.6c.1-.1.1-.2.1-.4-.1-.3 0-.5 0-.8 0-.2-.1-.4 0-.6.1-.2.2-.3.4-.4.5-.2 1 0 1.3.3.1.1 0-.1 0-.1 0-.1-.1-.2-.2-.3-.4-.3-.9-.6-1.4-.3-.2.1-.4.3-.4.5v.3c0 .2 0 .4-.1.5v.4c0 .1.1.2 0 .3 0 .1-.1.1-.1.2l-.7.7c-.4.4-.2.9.1 1.3 0 .1.1.1.1.1.2-.1.1-.3 0-.4z"/>
        <path fill="#FFFEDC" d="M30.8 20s-.1 0 0 0l-.1-.1c0-.1.1-.1-.1.1-.1.2-.1.1 0 .1s.1 0 .2-.1c.1.1.1-.1.1-.1l.1-.2h-.2c-.1.1-.2.2-.2.3-.1.1-.2.4 0 .5 0 0 .1-.2.2-.2-.1-.1 0-.3 0-.3zM31.4 20.4c.3.1.7 0 1-.1.3-.1.5-.5.6-.8 0 0-.5 0-.5.1 0 .2-.1.4-.2.6-.1.1-.2.2-.3.2h-.1.2-.7zM31.9 17.8c-.1-.1-.3-.2-.4-.2H31s-.1 0 0 0c.2 0 .3.1.4.2h.5c-.1 0 0 0 0 0zM28.8 21.5c0 .4.1 1 .5 1.2.4.2 1 .1 1.4.1.3 0 .8 0 .9-.3.3-.4-.3-1 .2-1.3h-.2c-.1 0-.2 0-.3.1-.3.2-.2.5-.2.8 0 .1.1.3 0 .5l-.1.2h-.3c-.4 0-.8 0-1.1-.3-.2-.3-.2-.7-.3-1 .1-.1-.5-.1-.5 0zM28.5 21.3c-.2 0-.4 0-.6-.1h-.3l-.2.1c.2.1.5.2.8.2 0-.1.2-.1.3-.2.1 0 .1 0 0 0zM31.4 18.9c.1-.1.3-.3.5-.3.1 0 .3.1.4.1 0 0 .2 0 .1-.1-.5 0-1.1 0-1.5.3h.2c.1.1.2.1.3 0z"/>
        <path fill="#E7D0AC" d="M37.3 17.6c-.6-.2-2.1-.8-2.1.4.2 0 .3-.1.5-.1-.8 0-1.7-.1-2.4.2-.3.1-.5.3-.4.7l.3.6c.1.3.1.4 0 .6-.5.6-.5 1.7.3 2.1.5.3 1.2.1 1.6-.1-.1 0-.4 0-.5.1-.6.3-1.2-.5-1.2-1-.1-.5.2-1 .6-1.4-.2-.3-.7-1.1-.4-1.5 0-.2.4-.2.7-.2h1c.1 0 .5 0 .5-.1v-.3c0-.2 0-.2.2-.2s.7.2.9.3c0 0 .3-.1.4-.1zM35.2 22.6c.3.5.9.4 1.3.3.1 0 .3 0 .5-.1.2-.2.2-.6.2-.9 0-.1.1-.2.1-.3.1-.1.1-.2.1-.3h.2c.3-.1.5-.2.7-.3.3-.3.7-1.1 0-1.3-.2 0-.4.1-.5.1.5.1.4.7.2 1-.1.2-.3.4-.5.5-.1 0-.2 0-.4.1-.3.1-.4.5-.4.8 0 .1 0 .5-.1.7-.1.1-.3.1-.4 0-.2-.1-.3-.2-.3-.3-.2-.2-.7 0-.7 0zM37.7 19.5c.3-.4 1-.9.4-1.4h-.3l-.3.1c.5.5-.1 1-.4 1.4h.3c.1-.1.3-.1.3-.1z"/>
        <path fill="#E7D0AC" d="M34.9 21.5c.3-.3.3-.6.4-.9 0-.2.1-.3.1-.4 0-.1.1-.1.1-.2l.1-.1c.1-.1.1-.1-.1 0 .2 0 .4-.1.5-.1-.3-.1-.8 0-1 .3-.5.5-.3 1.1-.7 1.6.1-.2.5-.1.6-.2z"/>
        <path fill="#fff" d="M37.9 18c.1 0 .2.1.2.1.2.2.1.5-.1.7-.2.2-.4.4-.4.6.1.2.4.2.6.4.1.1.1.2.1.3 0 .5-.3 1-.8 1.2-.2.1-.4.1-.5.2-.3.2-.3.6-.3 1 0 .1 0 .1-.1.2s-.2.2-.4.2c-.5 0-.9-.2-1.2-.5-.1-.1-.2-.3-.4-.3-.1 0-.3.1-.4.1-.2 0-.4 0-.6-.1-.4-.1-.8-.4-.8-.8-.1-.6.7-1.2.5-1.8-.1-.3-.4-.5-.4-.8 0-.3.2-.5.5-.6.2-.1.5-.1.8-.1h1c.2-.1.2-.3.4-.4.2-.2.4-.2.7-.1.5.1 1.1.3 1.6.5z"/>
        <path fill="#FFFEDC" d="M37.8 18.1c.1.1.3.1.3.3 0 .1 0 .3-.1.4-.1.1-.2.2-.3.4-.1.1-.2.3-.2.4.1.2.4.2.5.3.3.1.2.6.1.8-.1.3-.3.5-.6.6-.1.1-.3.1-.4.2-.1.1-.3.2-.3.3-.1.2-.2.5-.2.8 0 .1 0 .3-.2.3h-.5c-.3-.1-.6-.3-.8-.5 0-.3-.1-.4-.3-.4-.2-.1-.3 0-.5 0-.5.2-1.4-.3-1.3-.9.1-.5.5-.9.6-1.4 0-.3-.2-.5-.3-.8-.1-.1-.1-.3-.1-.4 0-.1.1-.2.3-.3.2-.1.3-.1.5-.1h.6c.3 0 .7.1 1-.2.1-.1.1-.3.3-.3.1-.1.2 0 .4 0 .4.1.7.2 1.1.4 0-.1.2 0 .4.1h.2s.1-.1 0-.1c-.4-.2-.8-.3-1.2-.4-.3-.1-.7-.2-1.1-.1-.2 0-.3.1-.4.3-.1.1-.1.3-.3.3h-1.2c-.3 0-.7.1-.9.4-.2.3-.1.6.1.9.1.1.2.3.2.4 0 .1 0 .3-.1.4-.1.3-.3.5-.4.8-.1.3-.1.6 0 .8.2.3.4.5.7.6.2.1.4.1.6.1.1 0 .2 0 .3-.1.1 0 .2-.1.3 0 .1.1.2.2.4.3.1.1.3.2.4.3.3.2.7.2 1 .2.2 0 .3-.1.4-.2.1-.1.1-.3.1-.5 0-.3.1-.7.4-.8.2-.1.3-.1.5-.2.1-.1.3-.2.4-.3.2-.2.4-.5.4-.8 0-.2 0-.3-.1-.4-.1-.1-.2-.1-.3-.2-.1 0-.2-.1-.3-.2 0-.1.1-.2.1-.2l.2-.2c.2-.2.4-.5.3-.8-.2-.4-.3-.4-.5-.5h-.2c0 .1-.1.1 0 .2z"/>
        <path fill="#EBE3B2" d="M34.6 20c-.2 0-.3-.1-.4-.3-.1-.2-.1-.3-.2-.5 0-.1-.1-.1-.1-.2s0-.1.1-.2c.2-.2.4-.5.7-.5.3 0 .6.3.9.3h.5c.1 0 .2.1.3.2.3.2.6.5.9.7.1.1.1.1.1.2-.4 0-.8-.1-1.1-.2-.1 0-.3-.1-.4-.1-.5 0-1 .4-1.1.9 0 .1 0 .3-.1.4 0 .1-.1.3-.2.4-.2.3-.2-.4-.1-.4-.1 0 0-.7.2-.7z"/>
        <path fill="#fff" d="M38.4 20.3c0-.2 0-.4.2-.6 0 0 .1 0 .1-.1v-.1c-.2-.7-1.2-.7-1.5-1.4-.2-.4 0-.8.3-1.1.2-.2.5-.3.8-.4.4-.2.8-.6 1.3-.5.4.1.6.5.8.8.5-.3 1-.5 1.6-.7.2 0 .4-.1.5 0 .3.1.4.3.5.6.2.5.1 1.1-.1 1.6-.1.1-.1.2-.1.3 0 .1.1.1.1.1.1.1.3.2.3.4.1.3 0 .6-.3.8-.2.2-.6.2-.8.3-.1 0-.1 0-.2.1s-.1.1-.1.2c-.1.7-.8 1.2-1.5 1.2-.5 0-.9-.2-1.3-.4-.4-.1-.5-.6-.6-1.1z"/>
        <path stroke="#FFFEDC" stroke-miterlimit="10" stroke-width=".117" d="M38.4 20.3c0-.2 0-.4.2-.6 0 0 .1 0 .1-.1v-.1c-.2-.7-1.2-.7-1.5-1.4-.2-.4 0-.8.3-1.1.2-.2.5-.3.8-.4.4-.2.8-.6 1.3-.5.4.1.6.5.8.8.5-.3 1-.5 1.6-.7.2 0 .4-.1.5 0 .3.1.4.3.5.6.2.5.1 1.1-.1 1.6-.1.1-.1.2-.1.3 0 .1.1.1.1.1.1.1.3.2.3.4.1.3 0 .6-.3.8-.2.2-.6.2-.8.3-.1 0-.1 0-.2.1s-.1.1-.1.2c-.1.7-.8 1.2-1.5 1.2-.5 0-.9-.2-1.3-.4-.4-.1-.5-.6-.6-1.1z"/>
        <path fill="#FFFEDC" d="M40.3 21.1c.4 0 .8-.1 1-.5 0-.1 0-.2-.1-.2l-.1-.2c-.2.3-.6.5-1 .5l.1.2s.1.1.1.2zM41.9 20c-.2 0-.4 0-.5-.1-.2-.1-.2-.3-.3-.4-.1-.1-.1-.2-.2-.3-.2-.1-.4 0-.5-.2 0 .1.1.2.1.2v-.1c0-.1-.1-.2-.1-.2-.1-.1-.2-.1-.3-.1-.4.3-.8.5-1.4.5 0 0 .1.4.2.4.3 0 .6-.1.8-.2.1-.1.2-.1.4-.2.1-.1.2-.2.4-.2-.1-.1-.1-.2-.2-.4.1.2.1.4.3.6.1.1.2.1.3.1.2 0 .2 0 .3.2.2.4.5.8 1 .7-.1.1-.2-.4-.3-.3z"/>
        <path fill="#FFFEDC" d="M40.2 16.7c-.1.4-.2.8-.4 1.2-.2.4-.3.7-.8.8 0 0 .1.5.2.4.4-.1.6-.4.7-.7.2-.4.3-.8.4-1.3 0-.1-.1-.2-.1-.3.1 0 0-.2 0-.1zM41.3 19.6c.3-.7 1.1-1 1.7-.5v-.2c0-.1-.1-.2-.2-.3-.6-.5-1.5-.2-1.7.5 0 .1.1.2.1.3-.1.1 0 .3.1.2zM41.6 20.4c-.1.3-.3.6-.5.8-.2.2-.5.2-.8.2-.3 0-.7 0-1-.1-.3-.1-.8-.2-.8-.5v-.3s-.1-.4 0-.3c0 .3 0 1 .2 1.2.3.3.7.4 1.1.5.2 0 .5.1.7.1.2 0 .5 0 .7-.1.4-.2.6-.6.7-1 .1-.4-.1-.7-.1-.7 0-.1-.1.2-.2.2zM43.1 19.1c-.1.5-.5.8-.9.9 0 0 .1.5.2.4.5-.1.8-.5 1-.9 0-.1-.1-.2-.1-.3-.1 0-.2-.2-.2-.1zM38.2 17.9c0-.2.2-.4.3-.5.2-.1.4-.3.7-.3 0 0-.1-.4-.2-.4-.3 0-.5.1-.7.3-.2.1-.3.3-.4.5 0 .1.1.2.1.3.1 0 .2.1.2.1z"/>
        <path fill="#fff" d="M45.4 17c.6.3.9.9 1 1.5.1.5 0 1-.3 1.3-.3.4-.8.6-1.2.5.4.7.4 1.7 0 2.5-.1.3-.4.5-.6.6-.6.2-1.4-.3-2 0-.1-.3-.1-.6-.2-.9 0-.1-.1-.3-.1-.4-.1-.2-.3-.3-.5-.4-.4-.3-.8-.7-1-1.2-.2-.5-.2-1.1 0-1.5.1-.1.2-.3.3-.3.3-.2.6-.2.9-.1.6.1 1.2.3 1.8.6.4.2.9.4 1.2.1.2-.2.1-.6-.1-.9-.3-.4-.8-.7-.3-1.2.1-.3.7-.3 1.1-.2z"/>
        <path fill="#FFFEDC" d="M45.2 17.1c.7.3 1 1.1 1 1.8 0 .4-.1.8-.3 1.1-.2.3-.5.5-.9.4 0 0-.3 0-.3.1.4.6.4 1.5.2 2.1-.1.3-.3.7-.6.8-.1.1-.3.1-.4 0-.2 0-.3-.1-.5-.1-.4-.1-.8-.1-1.1.1h.3c-.1-.3-.1-.5-.2-.8 0-.2-.1-.5-.2-.6-.1-.2-.3-.3-.5-.4-.2-.1-.3-.3-.5-.4-.3-.3-.5-.7-.6-1.2-.1-.4 0-1 .3-1.3.2-.1.4-.1.6-.1.2 0 .5.1.7.2.2.1.5.1.7.2l.6.3c.4.2.8.2 1.1 0 .4-.2.3-.7.1-1-.1-.2-.3-.3-.4-.5-.1-.1-.2-.3-.1-.5.1-.3.6-.4 1-.2h.2s.2-.1.1-.1c-.4-.2-.8-.1-1.2 0-.3.1-.7.5-.5.8.1.2.2.3.3.4.1.2.3.3.3.5s0 .5-.2.5H44c-.1 0-.2-.1-.3-.1-.2-.1-.4-.2-.7-.3-.2-.1-.5-.2-.7-.2-.5-.1-1-.3-1.4-.1l-.6.3-.3.6c-.1.5 0 1 .3 1.4.1.2.3.4.5.6.2.2.4.3.6.4l.3.3c.1.1.1.2.1.4.1.3.1.6.2 1 0 .1.2 0 .3 0 .1-.1.3-.1.5 0 .2 0 .4.1.5.1.4.1.7.1 1.1-.1.7-.3 1-1.2 1-1.9 0-.4-.1-.9-.3-1.3-.1 0-.2.1-.3.1.6.2 1.4-.2 1.6-.8.3-.6.2-1.4-.1-2-.2-.3-.4-.6-.7-.7h-.2l-.2.2z"/>
        <path fill="#EBE3B2" d="M41.4 20.3c-.1-.3-.1-.6 0-.8.1-.1.2-.2.2-.3.1-.1.1-.2-.1-.3h-.1l-.4.1c0 .1-.1.2-.1.3.1.1.2.2.2.3 0 .1-.1.3-.1.4v.1l.1.1c.1 0 .2.1.3.1zM44.9 19.9c.1-.2.1-.6 0-.8-.1-.2-.2-.4-.1-.5 0-.1.1-.1.1-.2 0-.2-.2-.3-.4-.4-.1 0-.2-.1-.4-.1-.1 0-.2 0-.2.1v.1c.1.2.3.4.4.6.1.1.2.2.1.4 0 .3-.3.3-.1.6 0 0 .5.3.6.2z"/>
        <path fill="#FFFEDC" d="M41.9 21.9c.7.3 1.5.2 2.1-.1.3-.1.7-.3.9-.5.2-.3.2-.8.2-1.2 0 0-.5 0-.5.1 0 .5 0 1-.4 1.4-.5.4-1.2.5-1.7.2h-.3c-.1 0-.3 0-.3.1zM43 22.9c.3.1.8 0 1.1-.1.3-.2.9-.5.7-1 0-.1-.5.1-.5.1.1.3-.1.5-.3.6-.1.1-.2.1-.3.2-.1 0-.1.1-.2.1-.1.1.1 0 0 0h-.3l-.2.1z"/>
        <path fill="#FFFEDC" d="M45.2 20.3c.3 0 .7-.1.9-.3.3-.3.4-.7.4-1.1 0-.8-.3-1.8-1.1-2.2h-.3l-.2.1c.6.3.9.9 1.1 1.6.1.3.1.6 0 1 0 .2-.1.3-.2.5 0 .1-.1.1-.2.2 0 0-.2.1 0 .1-.1 0-.3 0-.4.1-.1-.1-.1 0 0 0zM42.9 21c.3.1.7 0 1-.1.3-.2.4-.6.2-.9-.1-.1-.5.1-.5.1.1.2.1.4.1.6 0 .1-.1.2-.2.2l-.1.1s.2 0 0 0h-.3c-.1-.1-.2 0-.2 0zM43.2 23.4h.7c.2 0 .4 0 .6-.1.3-.1.6-.3.8-.5.3-.4.3-.8.3-1.3 0-.4 0-.8-.3-1.1H45l-.3.1c.5.5.4 1.5.2 2.1-.2.4-.5.7-.9.7s-.7 0-1 .1c-.1 0-.2 0-.1.1 0 0 .2-.1.3-.1z"/>
        <path fill="#fff" d="M45.8 19.6c-.3-.1-.5-.3-.5-.6 0-.2 0-.3.1-.5.1-.3.3-.6.5-.6h.3c.3.1.5.2.7.3.1.1.2.1.3.1.2 0 .3-.1.4-.2.2-.2.5-.3.7-.4.3-.1.6 0 .8.2.1.1.2.3.2.5.1.3.1.6 0 .8-.1.3-.3.5-.6.6-.1 0-.1 0-.2.1s0 .2 0 .3c.1.1.1.2.1.3 0 .3-.4.3-.5.6 0 .1.1.3 0 .4 0 .3-.4.3-.6.4-.3 0-.7 0-1 .1h-.8c-.2-.1-.5-.2-.6-.4-.1-.2-.1-.4 0-.6.1-.3.2-.5.4-.7.1-.2.5-.3.5-.5.2-.1 0-.1-.2-.2z"/>
        <path stroke="#FFFEDC" stroke-miterlimit="10" stroke-width=".117" d="M45.8 19.6c-.3-.1-.5-.3-.5-.6 0-.2 0-.3.1-.5.1-.3.3-.6.5-.6h.3c.3.1.5.2.7.3.1.1.2.1.3.1.2 0 .3-.1.4-.2.2-.2.5-.3.7-.4.3-.1.6 0 .8.2.1.1.2.3.2.5.1.3.1.6 0 .8-.1.3-.3.5-.6.6-.1 0-.1 0-.2.1s0 .2 0 .3c.1.1.1.2.1.3 0 .3-.4.3-.5.6 0 .1.1.3 0 .4 0 .3-.4.3-.6.4-.3 0-.7 0-1 .1h-.8c-.2-.1-.5-.2-.6-.4-.1-.2-.1-.4 0-.6.1-.3.2-.5.4-.7.1-.2.5-.3.5-.5.2-.1 0-.1-.2-.2z"/>
        <path fill="#FFFEDC" d="M48.8 20.1c.1-.4.7-.3.7-.8s-.1-1.1-.4-1.5c-.3-.4-.9-.2-1.3 0-.5.4-.7 1-.9 1.5 0 .1.1.2.1.3 0 0 .1.2.1.1.2-.8.7-1.9 1.7-1.8.2 0 .2 0 .3.2 0 .1 0 .3.1.4 0 .2.1.5-.1.6-.2.2-.5.2-.6.5 0 .1.1.2.1.3.1.1.2.3.2.2z"/>
        <path fill="#FFFEDC" d="M47 18.2c-.1-.2-.3-.3-.5-.3-.2-.1-.4-.1-.6-.1-.4.1-.6.7-.7 1.1-.2.8.9 1.5 1.6 1.2-.1-.1-.1-.3-.2-.4-.1 0-.1.1-.2.1 0 0 .1.5.2.4.1 0 .1 0 .2-.1.1 0-.2-.5-.2-.4-.4.2-1.1 0-1.4-.4.1.1.1.2.2.3-.1-.2.1-.5.2-.7.1-.2.2-.4.4-.5.3-.2 1 .1 1.2.3.1.1 0-.1 0-.1-.1-.2-.2-.3-.2-.4z"/>
        <path fill="#FFFEDC" d="M46.1 19.8c-.6.4-.9 1-.6 1.6.1.3.3.5.6.7.3.1.7.1 1.1.1.4 0 .8-.1 1.2-.2.4-.2.3-.3.2-.7 0-.2.1-.2.2-.3.1-.1.2-.3.1-.5 0-.3-.2-.7-.4-.9-.2-.3-.1 0 0 .2.2.3.2.6 0 .8-.1.1-.2.2-.1.4 0 .1.1.2.1.3 0 .1-.1.2-.2.2-.3.1-.5.2-.8.2-.5.1-1.1.1-1.6-.2-.2-.1-.2-.2-.1-.4 0-.1.1-.3.1-.4.1-.2.4-.4.6-.6-.2.1-.4-.3-.4-.3z"/>
        <path fill="#FFFEDC" d="M46.8 21.1c.1.3.4.4.7.4.2 0 .4 0 .5-.2.1-.2 0-.4 0-.5 0 0-.1-.2-.1-.1.1.3 0 .6-.3.6-.2 0-.7 0-.8-.2 0-.1 0-.1 0 0zM46.6 20.9c.1-.3.4-.4.7-.5l-.1-.2c-.3.1-.5.2-.7.5-.1 0 .1.2.1.2zM47.8 19.7c.2-.1.4-.1.5-.1H48.6s.1 0 0 0c0 0 .1.2.1.1-.1-.1-.1-.3-.3-.3-.3 0-.6.1-.8.2 0-.1.1.1.2.1zM46.1 19.2c.1-.1 0-.2 0-.3 0-.2.3-.2.4-.2 0 0 0-.2-.1-.2s-.3 0-.4.2v.2c0 .1.1.1 0 .2 0-.1.1.1.1.1zM48.1 19.2c.1-.2.1-.4.3-.6.2-.1.4-.2.6-.1v-.1s0-.1-.1-.1c-.2-.1-.4-.1-.6.1-.2.1-.3.4-.3.6-.1 0 .1.2.1.2z"/>
        <path fill="#fff" d="M48.3 21.9c-.3-.2-.5-.4-.5-.7 0-.2.1-.4.2-.5.1-.2.3-.4.5-.4s.5.1.7.1c.1 0 .1 0 .1-.1.1-.1 0-.2-.1-.4 0-.3.3-.4.4-.7 0-.1 0-.2.1-.3.1-.2.3-.2.5-.2.4-.1.7-.4 1.1-.4.4 0 .8.2.9.6.1 0 .1-.1.1-.2v-.3c0-.1.2-.2.3-.2.1 0 .2.1.4.1.5.3 1 .7 1.3 1.2.1.2.2.5.1.6-.1.1-.2.1-.2.1-.5.1-.8.6-1 1v.1c0 .1.1.1.1.2.1.2 0 .4-.1.5-.1.1-.3.3-.3.5v.3c0 .1-.1.2-.3.3h-.4c-.3 0-.6-.1-.9-.1-.4 0-.8-.1-1.2-.2-.1 0-.2-.1-.3-.1-.3-.1-.6 0-.8-.1-.2-.3-.4-.5-.7-.7z"/>
        <path stroke="#FFFEDC" stroke-miterlimit="10" stroke-width=".117" d="M48.3 21.9c-.3-.2-.5-.4-.5-.7 0-.2.1-.4.2-.5.1-.2.3-.4.5-.4s.5.1.7.1c.1 0 .1 0 .1-.1.1-.1 0-.2-.1-.4 0-.3.3-.4.4-.7 0-.1 0-.2.1-.3.1-.2.3-.2.5-.2.4-.1.7-.4 1.1-.4.4 0 .8.2.9.6.1 0 .1-.1.1-.2v-.3c0-.1.2-.2.3-.2.1 0 .2.1.4.1.5.3 1 .7 1.3 1.2.1.2.2.5.1.6-.1.1-.2.1-.2.1-.5.1-.8.6-1 1v.1c0 .1.1.1.1.2.1.2 0 .4-.1.5-.1.1-.3.3-.3.5v.3c0 .1-.1.2-.3.3h-.4c-.3 0-.6-.1-.9-.1-.4 0-.8-.1-1.2-.2-.1 0-.2-.1-.3-.1-.3-.1-.6 0-.8-.1-.2-.3-.4-.5-.7-.7z"/>
        <path fill="#EBE3B2" d="M49.3 20.7c.2 0 .3 0 .5.1.2 0 .4 0 .4-.2v-.2c0-.1.1-.2.2-.2-.1-.1 0-.1 0-.2.1-.1.1-.1.2-.1.2 0 .4-.1.5-.1.3-.1.6-.1.8 0 .1.1.2.2.3.2.1.1.3 0 .4-.1.1-.1.2-.2.2-.4 0-.1 0-.2.1-.2.1-.1.3-.2.5-.1s.3.2.4.3c.1.1.1.2 0 .2h-.1c-.2 0-.3-.1-.5 0-.2 0-.3.2-.3.3 0 .2.2.3.1.5-.1.1-.2.1-.3.1-.2.1-.2.4-.4.5-.1.1-.3.1-.5.1s-.4.2-.6.3c-.4.1-.8-.1-1.1-.3-.2-.1-.4-.1-.6-.1-.2 0-.3.1-.5.1 0-.3.1-.5.3-.5z"/>
        <path fill="#FFFEDC" d="M48.7 21.6c0 .2.2.4.4.4.3 0 .6-.1.8-.2h-.2c-.1 0-.2 0-.3.1h-.1c.3-.1.4 0 .2-.1-.1 0-.1-.1-.2-.1-.1-.1-.1-.2-.1-.3.1.1-.5.1-.5.2zM51.5 19s.1 0 .1-.1l-.1.1c-.1 0-.1 0 0 0s.1 0 .2.1h.3l.3-.1c-.1-.2-.3-.2-.5-.1-.3 0-.5.1-.7.2h.2c-.1 0 .1 0 .2-.1z"/>
        <path fill="#FFFEDC" d="M50.1 21.5v.7c0 .1-.1.2-.2.3h-.1.1H49.3s-.2 0-.1.1c.3 0 .7 0 1.1-.1.4-.2.3-.6.3-1 0-.1-.5-.1-.5 0zM48.3 21.3c.2-.2.2-.4.3-.7 0-.1 0-.1.1-.2l.1-.1c-.1 0-.1 0-.1.1h.4c.2 0 .6 0 .6-.3v-.5l.3-.3c.1-.1.1-.3.2-.5s.4-.2.6-.2c.4 0 .8.1 1.2.2.2.1.6.1.7-.1.1-.1.1-.2.1-.3v-.2c0-.1.2.1.2 0 .4.2.3 0 .2-.1-.2-.1-.5-.2-.7-.1-.1.1-.2.1-.2.3 0 .1 0 .4-.1.4h.4c-.2 0-.3-.1-.5-.2s-.4-.1-.5-.1h-.9c-.3 0-.6.1-.9.2-.1 0-.2.1-.3.2-.1.1 0 .3-.1.5l-.3.3c-.1.1 0 .3 0 .5 0 0-.1.3.1.2H48.6c-.2 0-.4.1-.5.3-.1.2-.1.6-.3.7h.2c0 .1.2.1.3 0zM53.3 21c.2 0 .3 0 .5-.2.1-.2.1-.4.2-.6l.1-.1H54h.4c.2 0 .4-.1.4-.3 0 0-.5 0-.5.1s0 .1-.1.1h.1-.3c-.1 0-.3 0-.4.1-.3.2-.2.6-.5.8.1.1.2.1.2.1 0-.1 0-.1 0 0 0-.1-.3 0-.3 0 .1.1.3 0 .3 0zM52 22.3c.2 0 .5 0 .7-.2.1-.1.2-.3.1-.5h-.3l-.3.1c0 .1.1.2 0 .3 0 .1-.1.1-.1.1-.1.1-.3.1.1 0-.1 0-.3 0-.4.1.1.1.2.1.2.1z"/>
        <path fill="#fff" d="M51.9 19.5c-.1-.2-.2-.4-.1-.5.1-.2.3-.2.5-.2.3-.1.6-.1.9-.1h.5c.1 0 .2.1.3.1.1 0 .3-.1.3-.2s.1-.3.1-.4c.1-.6.7-1 1.2-1.3.1-.1.2-.1.3 0 0 0 0 .1.1.1.3.8.4 1.6.3 2.5.4 0 .9.2 1 .6 0 .1.1.1 0 .2l-.1.1c-.4.4-.8.8-1.3.9-.1 0-.3 0-.4.1-.5 0-1 .1-1.5.1h-.9c-.3-.1-.6-.2-.7-.5-.2-.3-.1-.4 0-.7 0-.2.1-.1-.1-.3-.1-.3-.3-.4-.4-.5z"/>
        <path stroke="#FFFEDC" stroke-miterlimit="10" stroke-width=".117" d="M51.9 19.5c-.1-.2-.2-.4-.1-.5.1-.2.3-.2.5-.2.3-.1.6-.1.9-.1h.5c.1 0 .2.1.3.1.1 0 .3-.1.3-.2s.1-.3.1-.4c.1-.6.7-1 1.2-1.3.1-.1.2-.1.3 0 0 0 0 .1.1.1.3.8.4 1.6.3 2.5.4 0 .9.2 1 .6 0 .1.1.1 0 .2l-.1.1c-.4.4-.8.8-1.3.9-.1 0-.3 0-.4.1-.5 0-1 .1-1.5.1h-.9c-.3-.1-.6-.2-.7-.5-.2-.3-.1-.4 0-.7 0-.2.1-.1-.1-.3-.1-.3-.3-.4-.4-.5z"/>
        <path fill="#EBE3B2" d="M52.6 19.3c-.1-.1-.2-.1-.4-.2-.1-.1-.2-.2-.1-.3l.1-.1c.6-.2 1.4-.2 2 .1.1-.4.2-.8.4-1.2.3-.3.7-.5 1.1-.3.4.2.5.8.4 1.2 0 .1-.1.3-.1.4-.2.3-.7.4-1 .7l-.3.3c-.1.1-.3 0-.4-.1-.2 0-.4.2-.6.3h-.4c-.2 0-.4.3-.6.1-.2-.2 0-.6-.1-.9z"/>
        <path fill="#FFFEDC" d="M52.8 20.5c.1.3.4.4.7.4.3 0 .6 0 .8-.2h-.2c-.1 0-.3 0-.3.1l-.1.1h.1c-.1 0-.1 0-.2-.1-.2-.1-.3-.1-.3-.3 0-.1-.5 0-.5 0zM55.5 20.4c.1.1.1.1.2.1.2 0 .4 0 .5-.1.2-.1.4-.2.3-.4 0-.1-.5.1-.5.1v.3s-.1 0-.1.1H56.1c-.1 0-.1 0-.1-.1h-.3c.1-.1-.2 0-.2 0z"/>
        <path fill="#FFFEDC" d="M52.6 21.1c.8.6 1.9.3 2.8.2.5-.1 1-.1 1.4-.5.3-.3.4-.7.2-1 0-.1-.1-.3-.2-.3s0 0 0 .1c.1.4-.2.8-.6 1-.4.2-.9.2-1.3.3-.8.1-1.8.3-2.6-.2v.2c.2.1.3.2.3.2zM54.5 17.8c.2-.4.5-.6.9-.6.1 0 .2-.4.2-.4-.7.1-1.2.6-1.5 1.2 0 .1.1.1.1.1.1 0 .1-.1.2-.2v-.1h.1z"/>
        <path fill="#fff" d="M37.5 14.7c.2.2.3.4.3.6 0 .2-.2.4-.3.6-.1.2-.1.5-.3.7-.1.2-.3.2-.5.3-.2.1-.5.2-.7.2.1.1 0 .3-.1.4-.1.1-.2.3-.3.4-.2.2-.3.4-.6.6-.3.2-.7.3-1 .4-.2.1-.5.1-.7.1-.4 0-.7-.1-1-.2l-.6-.3c-.1-.1-.2-.3-.3-.5 0-.1-.1-.2-.1-.3 0-.4.4-.7.7-.9-.4-.2-.7-.5-1-.8-.1-.1-.1-.2-.2-.3-.1-.2-.1-.5-.1-.8v-.2c0-.1.1-.1.1-.1.2-.1.4-.2.5-.3.2-.1.4-.3.4-.5v-.2c-.1-.3-.1-.6-.1-1 0-.2 0-.4.1-.6.2-.3.5-.4.8-.5.3-.1.6-.1.8.1.1.1.2.3.3.4.2-.3.5-.7.9-.8h.5c.4.1.8.2 1.2.4.3.2.7.4.8.8.1.2.1.5.1.7 0 .2-.1.4-.2.5-.1.1-.4.2-.4.4s.3.2.4.3c.3.1.4.2.6.4z"/>
        <path fill="#FFFEDC" d="M37.3 14.8c.2.2.3.4.2.7 0 .1-.1.2-.2.3-.1.1-.1.2-.2.4 0 .1-.1.2-.1.4-.1.1-.2.2-.3.2l-.9.3c-.1 0-.2.1-.1.2s-.2.4-.2.5c-.1.2-.3.4-.4.6-.3.3-.7.5-1.2.6-.2.1-.5.1-.7.1-.2 0-.5-.1-.7-.2-.2-.1-.4-.1-.6-.3-.2-.1-.3-.3-.4-.5-.1-.2-.1-.4.1-.6.1-.2.3-.3.5-.4.1 0 .1-.1 0-.2-.2-.1-.5-.3-.7-.5-.2-.2-.4-.4-.5-.6 0-.1-.1-.3-.1-.4v-.2-.2l.1-.1c.1 0 .1-.1.2-.1.1-.1.3-.1.4-.2.2-.1.4-.3.4-.5 0-.1 0-.3-.1-.4 0-.1-.1-.3-.1-.4 0-.3-.1-.6 0-.9.1-.2.2-.4.5-.4.2-.1.5-.2.7-.1.3 0 .3.3.5.5.1.1.2 0 .3 0 .1-.2.3-.4.4-.5.2-.2.4-.2.6-.2.5 0 1 .2 1.5.5.2.1.4.3.5.5.1.2.1.5.1.7 0 .2 0 .4-.2.5-.1.1-.3.2-.4.3-.1.2.1.3.2.4.1 0 .2.1.3.1.4-.1.5 0 .6.1.1.1.4 0 .3-.2-.2-.2-.4-.3-.6-.4-.1 0-.2 0-.2-.1s.1-.1.1-.1c.2-.1.3-.2.4-.4.1-.2.1-.5.1-.7 0-.3-.1-.5-.2-.7-.1-.2-.4-.4-.6-.5-.5-.3-1-.5-1.6-.5-.3 0-.6.1-.8.3-.2.2-.4.4-.5.6h.3c-.1-.1-.1-.2-.2-.3-.1-.1-.2-.2-.3-.2-.3-.1-.5 0-.8 0-.3.1-.5.1-.7.3-.2.2-.3.5-.3.7 0 .3 0 .6.1.9 0 .1.1.3.1.4 0 .1-.1.2-.2.3-.1.1-.3.2-.4.2-.1.1-.3.1-.4.3-.1.1-.1.2-.1.4v.5c0 .3.2.6.5.8.2.2.5.4.8.6v-.2c-.4.2-.8.6-.7 1.1 0 .2.2.5.3.7.2.2.4.3.6.4.3.1.5.2.8.2.3 0 .6 0 .9-.1.5-.1 1.1-.3 1.5-.7.2-.2.4-.5.6-.7.1-.2.4-.5.2-.7 0 .1-.1.1-.1.2.3-.1.7-.2 1-.3.1-.1.3-.2.4-.3.1-.1.1-.3.2-.4 0-.1.1-.3.2-.4.1-.1.2-.3.2-.4.1-.3-.1-.6-.3-.8-.1-.1-.2-.1-.2 0-.4 0-.4.1-.4.2z"/>
        <path fill="#FFFEDC" d="M32.6 18.3c.3.4.7.5 1.2.4.2 0 .4-.1.5-.2.2-.2.3-.4.5-.6h-.3c-.1 0-.2 0-.3.1-.1.1-.2.2-.2.3 0 .1-.1.1-.2.2 0 0-.2.1-.1.1h-.1c-.1 0-.1 0-.2-.1s-.3-.2-.4-.3c.1-.1-.4.1-.4.1zM34 12.3c.1-.3.2-.6.4-.7.3-.2.5-.2.8-.1.5.1 1.1.4 1.4.9 0 .1.5-.1.5-.1-.2-.4-.6-.6-1-.7-.4-.2-.7-.3-1.1-.3-.3 0-.7.1-1 .2-.4.2-.6.5-.7.9.2 0 .7 0 .7-.1zM31.8 15.7v-.2-.2c0-.1 0-.1 0 0 0 0 .1 0 .1-.1.1 0 .1-.1.2-.1s.1-.1.2-.2l.1-.2c-.6.1-.9.8-.8 1.3 0 .1.1-.1.1-.1.1 0 .2-.2.1-.2zM32.7 15.6v-.2-.2c-.1.1-.1.1 0 .1H33c.1 0 .1-.1.2-.2l.1-.2c-.3 0-.4.2-.6.4-.1.2-.2.5-.2.8 0 .1.1-.1.1-.1 0-.2.1-.4.1-.4z"/>
        <path fill="#FFFEDC" d="M35.6 13.5c.2.1.5-.2.7-.3.2-.2.4-.5.3-.8 0-.1-.1.1-.1.1 0 .1-.2.2-.1.3v.1c0 .1 0 .1 0 0 0 0-.1.1-.2.1-.1.1-.2.1-.4.1l-.2.4z"/>
        <path fill="#EBE3B2" d="M32.6 17.7c-.1-.1-.2-.2-.2-.3 0 0 0-.1.1-.1 0 0 .1-.1.2-.1.2 0 .4-.1.6-.1h.2c.1-.1.1-.2.1-.3v-1c.2-.1.3.1.5.2.1.1.2.1.3.1.1 0 .3 0 .3-.1s0-.2-.1-.2-.2-.1-.3-.1c-.2-.1-.4-.2-.5-.4l-.3-.6c0-.1-.1-.2 0-.3.1-.2.3-.2.3-.4 0-.1-.1-.2-.1-.2s-.2-.1-.3-.1c-.3 0-.5-.1-.7-.3-.1-.2-.1-.5.1-.7h.2c.3.2.7.4.8.7.1.1.1.2.1.4.1.1.1.2.3.3h.1c.1 0 0-.2 0-.3 0-.2.3-.2.3-.3.1-.1 0-.3.2-.3.1 0 .2 0 .2.1l.5.5c.1.1.2.2.2.3 0 .1-.1.2-.2.2s-.2.1-.3.1c-.2.2-.2.4-.1.7.1.3.2.5.4.7.1.1.2.3.1.4-.1-.2-.3-.2-.4-.2-.3 0-.5.3-.5.5-.1.1-.4 0-.6 0-.2 0-.3.2-.4.3-.1.1-.1.3 0 .4 0 .1.1.1.2.2v.2c-.2.4-.9.6-.9.1-.2.1-.3.1-.4 0z"/>
        <path fill="#FFFEDC" d="M37.3 15.2c0 .6-.2 1.2-.6 1.5-.2.2-.5.4-.9.4-.3 0-.7-.2-.9-.4h-.3l-.3.1c.6.5 1.5.5 2.3.2.8-.3 1.3-1.1 1.2-1.9 0-.1-.5 0-.5.1zM35.5 14.3c.6-.1 1.2-.2 1.6-.5.5-.4.4-1.1.1-1.6-.1-.1-.5.1-.5.1.2.3.3.7.2 1.1-.2.4-.7.7-1.1.8-.1 0-.3 0-.4.1h.1zM31.7 18.7c.4.2.9.5 1.4.5.4 0 .8-.1 1.2-.2.8-.3 1.5-.8 1.8-1.6h-.3c-.1 0-.2 0-.3.1-.3.6-.7 1-1.3 1.3-.3.2-.7.3-1.1.2-.3-.1-.7-.3-1-.4h-.3c.1 0-.1 0-.1.1zM31.4 15.9c-.1-.2-.4-.4-.4-.7 0-.3.3-.5.4-.7.4-.4.9-.7 1.5-.7h.4s.2 0 .1-.1c-.7-.1-1.4.1-2 .4-.3.2-.6.4-.8.7-.1.2-.2.4-.2.6.1.2.3.4.4.5.1.2.6-.1.6 0zM32.1 13.3c-.1-.2-.1-.4-.2-.6 0-.2-.1-.5 0-.6.1-.1.4-.2.5-.2h.6c.1 0 .3-.4.3-.4-.6-.1-1.1 0-1.5.6-.3.5-.2 1.1 0 1.7l.2-.2c0-.1.1-.2.1-.3zM32.1 16.9c-.2-.3-.6.3-.7.4-.1.1-.2.3-.2.4 0 .2.1.3.2.5 0 0 .3-.3.3-.4-.1-.1-.2-.3-.1-.4.1-.1.2-.2.3-.1 0 0 .3-.3.2-.4z"/>
        <path fill="#fff" d="M28.3 16.3c-.1-.3-.1-.6.1-.8.1-.1.3-.2.4-.3.1-.1.1-.2.1-.3.1-.2.4-.3.6-.3h.7c.1 0 .3-.1.4-.1.2 0 .5.1.7.3.2.2.3.4.4.6.1-.2.4-.3.6-.3.2 0 .5.1.7.2.2.1.4.1.6.2.2.2.2.5.2.8 0 .2-.1.3-.2.4-.1.1-.2.2-.2.3-.2.4 0 1-.2 1.5-.1.3-.3.5-.4.8 0 .1 0 .1-.1.2 0 .1-.1.1-.2.1-.8 0-1.6-.5-1.9-1.2 0 .2 0 .4-.1.6-.1.1-.3.2-.5.1-.2 0-.3-.1-.5-.2-.3-.2-.6-.4-.7-.7-.1-.2-.1-.4 0-.6 0-.2.2-.4.2-.6-.2-.4-.6-.5-.7-.7z"/>
        <path fill="#FFFEDC" d="M28.4 16.2c-.1-.2-.1-.3 0-.5s.2-.3.3-.4l.2-.2c0-.1.1-.1.1-.2.1-.2.2-.2.4-.2h.7c.2 0 .4-.1.6-.1.4.1.6.5.8.8.1.1.3 0 .3-.1.1-.3.4-.2.6-.2.1 0 .3.1.4.1.1 0 .3.1.4.1.3.1.3.4.3.6 0 .1-.1.3-.1.4-.1.1-.2.3-.3.4-.3.5-.1 1.1-.3 1.6-.1.3-.3.5-.4.7v.2h-.1c-.1 0-.3 0-.4-.1-.6-.1-1.1-.5-1.3-1.1-.1-.1-.3 0-.3.1 0 .2 0 .3-.1.5 0 .4-.2.4-.3.4-.2-.1-.3-.2-.4-.3-.1-.1-.3-.2-.4-.3-.3-.3-.4-.6-.3-1 .1-.2.3-.5.2-.7-.1-.2-.4-.2-.6-.5-.1-.1-.4 0-.3.1l.3.3c.1.1.2.1.3.3 0 .1-.1.3-.1.4-.1.2-.1.3-.1.5 0 .4.2.7.5.9.3.2.6.5 1 .5.2 0 .4-.1.5-.3.1-.2.1-.4.1-.6-.1 0-.2.1-.3.1.3.6.8 1 1.4 1.1.3.1.7.1.9 0 .1 0 .1-.1.2-.1 0-.1 0-.1.1-.2 0-.2.1-.3.2-.4.1-.1.2-.3.2-.4v-.5c0-.4 0-.7.2-1 .2-.3.4-.5.4-.9 0-.3-.1-.6-.4-.7-.2-.1-.4-.1-.5-.2-.2-.1-.4-.1-.6-.1-.3 0-.7.1-.8.4.1 0 .2 0 .3-.1-.2-.3-.3-.6-.7-.8-.2-.1-.3-.1-.5-.1s-.4.1-.6.1c-.4 0-.7 0-1.1.2l-.3.3c0 .1-.1.2-.1.2-.1.1-.1.1-.2.1-.3.2-.4.6-.2.9-.1.2.3.1.2 0z"/>
        <path fill="#FFFEDC" d="M29.6 17.7c.6.5 1.3 0 1.8-.4.2-.2.5-.4.6-.8.1-.3 0-.5-.1-.8l-.1-.2.1.2c.2.5-.6 1.1-.9 1.3-.4.3-1 .6-1.5.2v.2c-.1.2 0 .3.1.3zM29.1 17.1c.2-.5.1-1.1.5-1.4.2-.1.3-.2.4-.4.1-.2.3-.4.6-.4 0 0-.1-.5-.2-.4-.2 0-.4.1-.5.3-.1.1-.1.2-.2.3-.1.1-.2.2-.3.2-.4.4-.3 1-.5 1.4-.1.1.2.4.2.4zM31.4 18.7c.5.4 1.3 0 1.2-.7 0-.1-.1-.2-.1-.2s-.1-.1-.1 0c.1.6-.7 1-1.2.6v.1c.1 0 .1.1.2.2zM30.1 16.5c0-.4.4-.6.7-.4V16c0-.1-.1-.2-.1-.2-.4-.2-.7.1-.7.5 0 .1 0 .1.1.2 0 0 .1.1 0 0z"/>
        <path fill="#EBE3B2" d="M32.6 16.8s.1-.1 0 0c.1-.1.1-.1.1-.2s.2-.1.2 0c.1 0 .1.1.1.2v.1h-.1c-.1-.1-.2-.1-.3-.1z"/>
        <path fill="#fff" d="M35.2 17.9c-.2 0-.3.1-.5.1-.3 0-.6-.2-.8-.5-.2-.3-.1-.7.1-.9.2-.3.6-.4.9-.7l.1-.1c.1-.2-.1-.3-.2-.4-.1-.2 0-.3.1-.5.1-.1.1-.3.1-.5.1-.2.1-.5.2-.6.1-.2.4-.1.6 0 .3.1.6.3.8.4.6-.4 1.3-.7 2-.5.1 0 .3.1.3.2v.3c0 .3 0 .6-.1 1v.1c0 .1.1.1.2.1.4 0 .8.3 1 .7.1.3 0 .5 0 .8 0 .2-.1.5-.3.7-.1.1-.2.1-.3.1-.2 0-.4.1-.6.1-.3 0-.7 0-.8.3-.1.2 0 .4.1.7.1.2.1.5-.2.6h-.2c-.4 0-.7.1-1.3 0-.3 0-.7-.2-.8-.5-.1-.1-.1-.3-.1-.4.3-.4 0-.6-.3-.6z"/>
        <path fill="#FFFEDC" d="M35.3 17.8c-.3 0-.5.1-.8 0-.2-.1-.4-.3-.5-.5-.1-.2-.1-.5 0-.7.1-.2.3-.3.4-.5.2-.1.4-.2.6-.4.1-.1.1-.1.1-.2s-.1-.2-.1-.3c-.1-.1-.1-.2 0-.3 0-.1.1-.2.2-.4s.1-.5.2-.7c0-.1.1-.3.2-.3h.1c.1 0 .1 0 .2.1.3.1.6.3.8.4.1 0 .2 0 .3-.1.4-.3.8-.5 1.3-.5.2 0 .5 0 .6.1.1.3.1.4.1.5v.8c0 .1-.1.3 0 .4.1.1.2 0 .2 0 .1 0 .2 0 .3.1.4.2.6.6.6 1.1 0 .2 0 .5-.1.7 0 .1-.1.2-.1.3-.1.1-.2.1-.3.1-.4.1-.9 0-1.3.3-.2.1-.2.3-.2.5s.2.4.2.6c0 .1 0 .2-.1.2 0 0 .1 0 0 0h-.8c-.4 0-1.1 0-1.3-.5-.1-.1-.1-.3-.1-.4 0-.1-.1-.2-.1-.3-.1 0-.4-.1-.6-.1-.1 0-.2 0-.2.1s0 .1.1.1c.2 0 .4.2.5.4 0 .1 0 .2.1.3 0 .1.1.2.1.3.3.4.9.4 1.3.4h.6c.2 0 .5 0 .7-.2.4-.4-.2-.8 0-1.2.1-.2.3-.2.5-.2.3 0 .6 0 .8-.1.2-.1.4-.2.6-.4.1-.2.1-.5.2-.7 0-.3 0-.5-.1-.8-.1-.2-.2-.4-.4-.5-.1-.1-.2-.1-.3-.1h-.4c-.1 0-.1-.3-.1-.3v-.4c0-.3.1-.6-.2-.8-.2-.1-.5-.1-.8-.1-.6 0-1.2.3-1.6.6.1 0 .2 0 .3-.1-.3-.2-.5-.3-.8-.4-.2-.1-.5-.1-.7 0-.3.1-.4.3-.4.6 0 .1-.1.2-.1.4 0 .1 0 .1-.1.2 0 .1-.1.1-.1.2-.1.1-.1.2-.1.4 0 .1.1.2.2.3.1.1 0 .2-.1.3-.1.1-.2.1-.3.2-.2.1-.4.3-.5.5-.1.2-.2.5-.1.7.1.3.3.5.5.6.1.1.3.1.4.1.2 0 .4 0 .5-.1-.1-.1.1-.2 0-.3.1 0 .1 0 0 0z"/>
        <path fill="#EBE3B2" d="M35.1 16.4s-.1-.1 0-.1v-.1c.1-.1.2-.2.2-.4v-.2c0-.2.2-.3.4-.3.2-.1.5-.2.5-.5v-.2c.1-.1.2-.1.3 0v-.3c.2 0 .3.2.4.4l.2-.4h.3c.1.4.1.7.1 1.1v.1l-.1.1c-.4.2-.7.6-.8 1 0 .1 0 .3-.1.3-.2.1-.4-.2-.6-.2 0 .1-.1.2-.1.4-.3-.1-.5-.4-.7-.7z"/>
        <path fill="#FFFEDC" d="M36.7 18.5c.1.3.2.5.5.5.3.1.7-.3.8-.5 0-.1 0-.2-.1-.2l-.1-.2c-.2.2-.7.8-1.1.4.1.1.2.2.2.3 0-.1-.1-.2-.2-.3 0 0 0-.1 0 0zM37.2 17.4c.7.4 1.6.6 2.4.4.8-.2.8-1.4.6-2 0-.1-.1-.3-.2-.3s-.1-.1-.1 0c.1.4.1.8 0 1.2-.1.4-.3.6-.7.6-.8.1-1.6-.1-2.2-.4-.1 0 0 .2 0 .2 0 .1.1.2.2.3zM34.1 17.4c-.2-.3.1-.6.3-.7l.6-.6c.1-.1.1-.2.1-.4-.1-.3 0-.5 0-.8 0-.2-.1-.4 0-.6.1-.2.2-.3.4-.4.5-.2 1 0 1.3.3.1.1 0-.1 0-.1 0-.1-.1-.2-.2-.3-.4-.3-.9-.6-1.4-.3-.2.1-.4.3-.4.5v.3c0 .2 0 .4-.1.5v.4c0 .1.1.2 0 .3 0 .1-.1.1-.1.2l-.7.7c-.4.4-.2.9.1 1.3 0 .1.1.1.1.1.1-.1 0-.3 0-.4z"/>
        <path fill="#FFFEDC" d="M37.6 16.5l-.1-.1c0-.1.1-.1-.1.1-.1.2-.1.1 0 .1s.2 0 .2-.1c.1.1.1-.1.1-.1l.1-.2h-.2c-.1.1-.2.2-.2.3-.1.1-.2.4 0 .5 0 0 .1-.2.2-.2 0-.1.1-.3 0-.3zM38.2 17c.3.1.7 0 1-.1.3-.1.5-.5.6-.8 0 0-.5 0-.5.1 0 .2-.1.4-.2.6-.1.1-.2.2-.3.2h-.1.2-.4c-.1-.1-.3-.1-.3 0zM38.7 14.3c-.1-.1-.3-.2-.4-.2h-.5s-.1 0 0 0c.2 0 .3.1.4.2h.5c-.1 0 0 0 0 0zM35.7 18c0 .4.1 1 .5 1.2.4.2 1 .1 1.4.1.3 0 .8 0 .9-.3.3-.4-.3-1 .2-1.3h-.2c-.1 0-.2 0-.3.1-.3.2-.2.5-.2.8 0 .1.1.3 0 .5l-.1.2h-.3c-.4 0-.8 0-1.1-.3-.2-.3-.2-.7-.3-1 0-.1-.5-.1-.5 0zM35.3 17.8c-.2 0-.4 0-.6-.1h-.3l-.2.1c.2.1.5.2.8.2.1-.1.2-.1.3-.2.1.1.1 0 0 0zM38.3 15.4c.1-.1.3-.3.5-.3.1 0 .3.1.4.1 0 0 .2 0 .1-.1-.5 0-1.1 0-1.5.3h.2c0 .1.2.1.3 0z"/>
        <path fill="#E7D0AC" d="M44.2 14.1c-.6-.2-2.1-.8-2.1.4.2 0 .3-.1.5-.1-.8 0-1.7-.1-2.4.2-.3.1-.5.3-.4.7l.3.6c.1.3.1.4 0 .6-.5.6-.5 1.7.3 2.1.5.3 1.2.1 1.6-.1-.1 0-.4 0-.5.1-.6.3-1.2-.5-1.2-1-.1-.5.2-1 .6-1.4-.2-.3-.7-1.1-.4-1.5.2-.2.6-.2.9-.2h1c.1 0 .5 0 .5-.1v-.3c0-.2 0-.2.2-.2s.7.2.9.3c-.2.1.1-.1.2-.1zM42 19.1c.3.5.9.4 1.3.3.1 0 .3 0 .5-.1.2-.2.2-.6.2-.9 0-.1.1-.2.1-.3.1-.1.1-.2.1-.3h.2c.3-.1.5-.2.7-.3.3-.3.7-1.1 0-1.3-.2 0-.4.1-.5.1.5.1.4.7.2 1-.1.2-.3.4-.5.5-.1 0-.2 0-.4.1-.3.1-.4.5-.4.8 0 .1 0 .5-.1.7-.1.1-.3.1-.4 0-.2-.1-.3-.2-.3-.3-.2-.2-.7 0-.7 0zM44.6 16c.3-.4 1-.9.4-1.4h-.3l-.3.1c.5.5-.1 1-.4 1.4h.3c.1-.1.2-.1.3-.1z"/>
        <path fill="#E7D0AC" d="M41.7 18c.3-.3.3-.6.4-.9 0-.2.1-.3.1-.4 0-.1.1-.1.1-.2l.1-.1c.1-.1.1-.1-.1 0 .2 0 .4-.1.5-.1-.3-.1-.8 0-1 .3-.5.5-.3 1.1-.7 1.6.2-.2.5-.1.6-.2z"/>
        <path fill="#fff" d="M44.8 14.5c.1 0 .2.1.2.1.2.2.1.5-.1.7-.2.2-.4.4-.4.6.1.2.4.2.6.4.1.1.1.2.1.3 0 .5-.3 1-.8 1.2-.2.1-.4.1-.5.2-.3.2-.3.6-.3 1 0 .1 0 .1-.1.2s-.2.2-.4.2c-.5 0-.9-.2-1.2-.5-.1-.1-.2-.3-.4-.3-.1 0-.3.1-.4.1-.2 0-.4 0-.6-.1-.4-.1-.8-.4-.8-.8-.1-.6.7-1.2.5-1.8-.1-.3-.4-.5-.4-.8 0-.3.2-.5.5-.6.2-.1.5-.1.8-.1h1c.2-.1.2-.3.4-.4.2-.2.4-.2.7-.1.5.1 1 .3 1.6.5z"/>
        <path fill="#FFFEDC" d="M44.6 14.6c.1.1.3.1.3.3 0 .1 0 .3-.1.4-.1.1-.2.2-.3.4-.1.1-.2.3-.2.4.1.2.4.2.5.3.3.1.2.6.1.8-.1.3-.3.5-.6.6-.1.1-.3.1-.4.2-.1.1-.3.2-.3.3-.1.2-.2.5-.2.8 0 .1 0 .3-.2.3h-.5c-.3-.1-.6-.3-.8-.5l-.3-.3c-.2-.1-.3 0-.5 0-.5.2-1.4-.3-1.3-.9.1-.5.5-.9.6-1.4 0-.3-.2-.5-.3-.8-.1-.1-.1-.3-.1-.4 0-.1.1-.2.3-.3.2-.1.3-.1.5-.1h.6c.3 0 .7.1 1-.2.1-.1.1-.3.3-.3.1-.1.2 0 .4 0 .4.1.7.2 1.1.4.1-.2.2-.1.4 0h.2s.1-.1 0-.1c-.4-.2-.8-.3-1.2-.4-.3-.1-.7-.2-1.1-.1-.2 0-.3.1-.4.3-.1.1-.1.3-.3.3h-1.2c-.3 0-.7.1-.9.4-.2.3-.1.6.1.9.1.1.2.3.2.4 0 .1 0 .3-.1.4-.1.3-.3.5-.4.8-.1.3-.1.6 0 .8.2.3.4.5.7.6.2.1.4.1.6.1.1 0 .2 0 .3-.1.1 0 .2-.1.3 0 .1.1.2.2.4.3.1.1.3.2.4.3.3.2.7.2 1 .2.2 0 .3-.1.4-.2.1-.1.1-.3.1-.5 0-.3.1-.7.4-.8.2-.1.3-.1.5-.2.1-.1.3-.2.4-.3.2-.2.4-.5.4-.8 0-.2 0-.3-.1-.4-.1-.1-.2-.1-.3-.2-.1 0-.2-.1-.3-.2 0-.1.1-.2.1-.2l.2-.2c.2-.2.4-.5.3-.8l-.3-.3h-.2c-.2-.1-.3 0-.2 0z"/>
        <path fill="#EBE3B2" d="M41.4 16.5c-.2 0-.3-.1-.4-.3-.1-.2-.1-.3-.2-.5 0-.1-.1-.1-.1-.2s0-.1.1-.2c.2-.2.4-.5.7-.5.3 0 .6.3.9.3h.5c.1 0 .2.1.3.2.3.2.6.5.9.7.1.1.1.1.1.2-.4 0-.8-.1-1.1-.2-.1 0-.3-.1-.4-.1-.5 0-1 .4-1.1.9 0 .1 0 .3-.1.4 0 .1-.1.3-.2.4-.2.3-.2-.4-.1-.4 0 0 .1-.7.2-.7z"/>
        <path fill="#fff" d="M45.3 16.8c0-.2 0-.4.2-.6 0 0 .1 0 .1-.1V16c-.2-.7-1.2-.7-1.5-1.4-.2-.4 0-.8.3-1.1.2-.2.5-.3.8-.4.4-.2.8-.6 1.3-.5.4.1.6.5.8.8.5-.3 1-.5 1.6-.7.2 0 .4-.1.5 0 .3.1.4.3.5.6.2.5.1 1.1-.1 1.6-.1.1-.1.2-.1.3 0 .1.1.1.1.1.1.1.3.2.3.4.1.3 0 .6-.3.8-.2.2-.6.2-.8.3-.1 0-.1 0-.2.1s-.1.1-.1.2c-.1.7-.8 1.2-1.5 1.2-.5 0-.9-.2-1.3-.4-.4-.1-.6-.6-.6-1.1z"/>
        <path stroke="#FFFEDC" stroke-miterlimit="10" stroke-width=".117" d="M45.3 16.8c0-.2 0-.4.2-.6 0 0 .1 0 .1-.1V16c-.2-.7-1.2-.7-1.5-1.4-.2-.4 0-.8.3-1.1.2-.2.5-.3.8-.4.4-.2.8-.6 1.3-.5.4.1.6.5.8.8.5-.3 1-.5 1.6-.7.2 0 .4-.1.5 0 .3.1.4.3.5.6.2.5.1 1.1-.1 1.6-.1.1-.1.2-.1.3 0 .1.1.1.1.1.1.1.3.2.3.4.1.3 0 .6-.3.8-.2.2-.6.2-.8.3-.1 0-.1 0-.2.1s-.1.1-.1.2c-.1.7-.8 1.2-1.5 1.2-.5 0-.9-.2-1.3-.4-.4-.1-.6-.6-.6-1.1z"/>
        <path fill="#FFFEDC" d="M47.2 17.6c.4 0 .8-.1 1-.5 0-.1 0-.2-.1-.2l-.1-.2c-.2.3-.6.5-1 .5l.1.2s0 .2.1.2zM48.7 16.5c-.2 0-.4 0-.5-.1-.2-.1-.2-.3-.3-.4-.1-.1-.1-.2-.2-.3-.2-.1-.4 0-.5-.2 0 .1.1.2.1.2v-.1c0-.1-.1-.2-.1-.2-.1-.1-.2-.1-.3-.1-.4.3-.8.5-1.4.5 0 0 .1.4.2.4.3 0 .6-.1.8-.2.1-.1.2-.1.4-.2.1-.1.2-.2.4-.2-.1-.1-.1-.2-.2-.4.1.2.1.4.3.6.1.1.2.1.3.1.2 0 .2 0 .3.2.2.4.5.8 1 .7 0 .1-.2-.3-.3-.3z"/>
        <path fill="#FFFEDC" d="M47.1 13.2c-.1.4-.2.8-.4 1.2-.2.4-.3.7-.8.8 0 0 .1.5.2.4.4-.1.6-.4.7-.7.2-.4.3-.8.4-1.3 0-.1-.1-.2-.1-.3.1 0 0-.2 0-.1zM48.1 16.1c.3-.7 1.1-1 1.7-.5v-.2c0-.1-.1-.2-.2-.3-.6-.5-1.5-.2-1.7.5 0 .1.1.2.1.3 0 .1.1.3.1.2zM48.5 16.9c-.1.3-.3.6-.5.8-.2.3-.5.3-.8.3-.3 0-.7 0-1-.1-.3-.1-.8-.2-.8-.5v-.3s-.1-.4 0-.3c0 .3 0 1 .2 1.2.3.3.7.4 1.1.5.2 0 .5.1.7.1.2 0 .5 0 .7-.1.4-.2.6-.6.7-1 .1-.4-.1-.7-.1-.7-.1-.2-.2.1-.2.1zM49.9 15.6c-.1.5-.5.8-.9.9 0 0 .1.5.2.4.5-.1.8-.5 1-.9 0-.1-.1-.2-.1-.3-.1 0-.2-.2-.2-.1zM45.1 14.4c0-.2.2-.4.3-.5.2-.1.4-.3.7-.3 0 0-.1-.4-.2-.4-.3 0-.5.1-.7.3-.2.1-.3.3-.4.5 0 .1.1.2.1.3.1 0 .2.1.2.1z"/>
        <path fill="#fff" d="M52.2 13.6c.6.3.9.9 1 1.5.1.5 0 1-.3 1.3-.3.4-.8.6-1.2.5.4.7.4 1.7 0 2.5-.1.3-.4.5-.6.6-.6.2-1.4-.3-2 0-.1-.3-.1-.6-.2-.9 0-.1-.1-.3-.1-.4-.1-.2-.3-.3-.5-.4-.4-.3-.8-.7-1-1.2-.2-.5-.2-1.1 0-1.5.1-.1.2-.3.3-.3.3-.2.6-.2.9-.1.6.1 1.2.3 1.8.6.4.2.9.4 1.2.1.2-.2.1-.6-.1-.9-.3-.4-.8-.7-.3-1.2.2-.3.7-.4 1.1-.2z"/>
        <path fill="#FFFEDC" d="M52.1 13.6c.7.3 1 1.1 1 1.8 0 .4-.1.8-.3 1.1-.2.3-.5.5-.9.4 0 0-.3 0-.3.1.4.6.4 1.5.2 2.1-.1.3-.3.7-.6.8-.2.1-.4.1-.5.1-.2 0-.3-.1-.5-.1-.4-.1-.8-.1-1.1.1h.3c-.1-.3-.1-.5-.2-.8 0-.2-.1-.5-.2-.6-.1-.2-.3-.3-.5-.4-.2-.1-.3-.3-.5-.4-.3-.3-.5-.7-.6-1.2-.1-.4 0-1 .3-1.3.2-.1.4-.1.6-.1.2 0 .5.1.7.2.2.1.5.1.7.2l.6.3c.4.2.8.2 1.1 0 .4-.2.3-.7.1-1-.1-.2-.3-.3-.4-.5-.1-.1-.2-.3-.1-.4.2-.5.7-.6 1.1-.4h.2s.2-.1.1-.1c-.4-.2-.8-.1-1.2 0-.3.1-.7.5-.5.8.1.2.2.3.3.4.1.2.3.3.3.5s0 .5-.2.5h-.2c-.1 0-.2-.1-.3-.1-.2-.1-.4-.2-.7-.3-.2-.1-.5-.2-.7-.2-.5-.1-1-.3-1.4-.1l-.6.3-.3.6c-.1.5 0 1 .3 1.4.1.2.3.4.5.6.2.2.4.3.6.4l.3.3c.1.1.1.2.1.4.1.3.1.6.2 1 0 .1.2 0 .3 0 .1-.1.3-.1.5 0 .2 0 .4.1.5.1.4.1.7.1 1.1-.1.7-.3 1-1.2 1-1.9 0-.4-.1-.9-.3-1.3-.1 0-.2.1-.3.1.6.2 1.4-.2 1.6-.8.3-.6.2-1.4-.1-2-.2-.3-.4-.6-.7-.7h-.2c-.1.1-.3.2-.2.2z"/>
        <path fill="#EBE3B2" d="M48.3 16.8c-.1-.3-.1-.6 0-.8.1-.1.2-.2.2-.3.1-.1.1-.2-.1-.3h-.6c0 .1-.1.2-.1.3.1.1.2.2.2.3 0 .1-.1.3-.1.4v.1l.1.1c.1.1.2.2.4.2zM51.7 16.4c.1-.2.1-.6 0-.8-.1-.2-.2-.4-.1-.5 0-.1.1-.1.1-.2 0-.2-.2-.3-.4-.4-.1 0-.2-.1-.4-.1-.1 0-.2 0-.2.1v.1c.1.2.3.4.4.6.1.1.2.2.1.4 0 .3-.3.3-.1.6.1.1.6.3.6.2z"/>
        <path fill="#FFFEDC" d="M48.8 18.4c.7.3 1.5.2 2.1-.1.3-.1.7-.3.9-.5.2-.4.2-.8.2-1.2 0 0-.5 0-.5.1 0 .5 0 1-.4 1.4-.5.4-1.2.5-1.7.2h-.3c-.2 0-.4.1-.3.1zM49.8 19.4c.3.1.8 0 1.1-.1.3-.2.9-.5.7-1 0-.1-.5.1-.5.1.1.3-.1.5-.3.6-.1.1-.2.1-.3.2-.1 0-.1.1-.2.1-.1.1.1 0 0 0H50l-.2.1z"/>
        <path fill="#FFFEDC" d="M52.1 16.8c.3 0 .7-.1.9-.3.3-.3.4-.7.4-1.1 0-.8-.3-1.8-1.1-2.2H52l-.2.1c.6.3.9.9 1.1 1.6.1.3.1.6 0 1 0 .2-.1.3-.2.5 0 .1-.1.1-.2.2 0 0-.2.1 0 .1-.2 0-.3 0-.4.1-.1 0-.1 0 0 0zM49.7 17.5c.3.1.7 0 1-.1.3-.2.4-.6.2-.9-.1-.1-.5.1-.5.1.1.2.1.4.1.6 0 .1-.1.2-.2.2l-.1.1s.2 0 0 0h-.3c0-.1-.2 0-.2 0zM50 19.9h.7c.2 0 .4 0 .6-.1.3-.1.6-.3.8-.5.3-.4.3-.8.3-1.3 0-.4 0-.8-.3-1.1h-.3l-.3.1c.5.5.4 1.5.2 2.1-.2.4-.5.7-.9.7s-.7 0-1 .1c-.1 0-.2 0-.1.1 0 0 .2 0 .3-.1z"/>
        <path fill="#fff" d="M52.7 16.2c-.3-.1-.5-.3-.5-.6 0-.2 0-.3.1-.5.1-.3.3-.6.5-.6h.3c.3.1.5.2.7.3.1.1.2.1.3.1.2 0 .3-.1.4-.2.2-.2.5-.3.7-.4.3-.1.6 0 .8.2.1.1.2.3.2.5.1.3.1.6 0 .8-.1.3-.3.5-.6.6-.1 0-.1 0-.2.1s0 .2 0 .3c.1.1.1.2.1.3 0 .3-.4.3-.5.6 0 .1.1.3 0 .4 0 .3-.4.3-.6.4-.3 0-.7 0-1 .1h-.8c-.2-.1-.5-.2-.6-.4-.1-.2-.1-.4 0-.6.1-.3.2-.5.4-.7.1-.2.5-.3.5-.5.1-.2-.1-.2-.2-.2z"/>
        <path stroke="#FFFEDC" stroke-miterlimit="10" stroke-width=".117" d="M52.7 16.2c-.3-.1-.5-.3-.5-.6 0-.2 0-.3.1-.5.1-.3.3-.6.5-.6h.3c.3.1.5.2.7.3.1.1.2.1.3.1.2 0 .3-.1.4-.2.2-.2.5-.3.7-.4.3-.1.6 0 .8.2.1.1.2.3.2.5.1.3.1.6 0 .8-.1.3-.3.5-.6.6-.1 0-.1 0-.2.1s0 .2 0 .3c.1.1.1.2.1.3 0 .3-.4.3-.5.6 0 .1.1.3 0 .4 0 .3-.4.3-.6.4-.3 0-.7 0-1 .1h-.8c-.2-.1-.5-.2-.6-.4-.1-.2-.1-.4 0-.6.1-.3.2-.5.4-.7.1-.2.5-.3.5-.5.1-.2-.1-.2-.2-.2z"/>
        <path fill="#FFFEDC" d="M55.7 16.6c.1-.4.7-.3.7-.8s-.1-1.1-.4-1.5c-.3-.4-.9-.2-1.3 0-.5.4-.7 1-.9 1.5 0 .1.1.2.1.3 0 0 .1.2.1.1.2-.8.7-1.9 1.7-1.8.2 0 .2 0 .3.2 0 .1 0 .3.1.4 0 .2.1.5-.1.6-.2.2-.5.2-.6.5 0 .1.1.2.1.3 0 .1.1.3.2.2z"/>
        <path fill="#FFFEDC" d="M53.8 14.7c-.1-.2-.3-.3-.5-.3-.2-.1-.4-.1-.6-.1-.4 0-.7.7-.7 1-.2.8.9 1.5 1.6 1.2-.1-.1-.1-.3-.2-.4-.1 0-.1.1-.2.1 0 0 .1.5.2.4.1 0 .1 0 .2-.1.1 0-.2-.5-.2-.4-.4.2-1.1 0-1.4-.4.1.1.1.2.2.3-.1-.2.1-.5.2-.7.1-.2.2-.4.4-.5.3-.2 1 .1 1.2.3.1.1 0-.1 0-.1-.1-.1-.1-.2-.2-.3z"/>
        <path fill="#FFFEDC" d="M52.9 16.3c-.6.4-.9 1-.6 1.6.1.3.3.5.6.7.3.1.7.1 1.1.1.4 0 .8-.1 1.2-.2.4-.2.3-.3.2-.7 0-.2.1-.2.2-.3.1-.1.2-.3.1-.5 0-.3-.2-.7-.4-.9-.2-.3-.1 0 0 .2.2.3.2.6 0 .8-.1.1-.2.2-.1.4 0 .1.1.2.1.3 0 .1-.1.2-.2.2-.3.1-.5.2-.8.2-.5.1-1.1.1-1.6-.2-.2-.1-.2-.2-.1-.4 0-.1.1-.3.1-.4.1-.2.4-.4.6-.6-.1.1-.3-.3-.4-.3z"/>
        <path fill="#FFFEDC" d="M53.7 17.7c.1.3.4.4.7.4.2 0 .4 0 .5-.2.1-.2 0-.4 0-.5 0 0-.1-.2-.1-.1.1.3 0 .6-.3.6-.3-.1-.7-.1-.8-.2-.1-.2-.1-.2 0 0zM53.4 17.4c.1-.3.4-.4.7-.5l-.1-.2c-.3.1-.5.2-.7.5l.1.2zM54.6 16.2c.2-.1.4-.1.5-.1H55.4s.1 0 0 0c0 0 .1.2.1.1-.1-.1-.1-.3-.3-.3-.3 0-.6.1-.8.2.1-.1.2.1.2.1zM53 15.7c.1-.1 0-.2 0-.3 0-.2.3-.2.4-.2 0 0 0-.2-.1-.2s-.3 0-.4.2v.2c0 .1.1.1 0 .2-.1-.1 0 .1.1.1zM54.9 15.7c.1-.2.1-.4.3-.6.2-.1.4-.2.6-.1v-.1s0-.1-.1-.1c-.2-.1-.4-.1-.6.1-.2.2-.2.4-.3.6 0 .1.1.2.1.2z"/>
        <path fill="#fff" d="M55.2 18.4c-.3-.2-.5-.4-.5-.7 0-.2.1-.4.2-.5.1-.2.3-.4.5-.4s.5.1.7.1c.1 0 .1 0 .1-.1.1-.1 0-.2-.1-.4 0-.3.3-.4.4-.7 0-.1 0-.2.1-.3.1-.2.3-.2.5-.2.4-.1.7-.4 1.1-.4.4 0 .8.2.9.6.1 0 .1-.1.1-.2v-.3c0-.1.2-.2.3-.2.1 0 .2.1.4.1.5.3 1 .7 1.3 1.2.1.2.2.5.1.6-.1.1-.2.1-.2.1-.5.1-.8.6-1 1v.1c0 .1.1.1.1.2.1.2 0 .4-.1.5-.1.1-.3.3-.3.5v.3c0 .1-.1.2-.3.3h-.4c-.3 0-.6-.1-.9-.1-.4 0-.8-.1-1.2-.2-.1 0-.2-.1-.3-.1-.3-.1-.6 0-.8-.1l-.7-.7z"/>
        <path stroke="#FFFEDC" stroke-miterlimit="10" stroke-width=".117" d="M55.2 18.4c-.3-.2-.5-.4-.5-.7 0-.2.1-.4.2-.5.1-.2.3-.4.5-.4s.5.1.7.1c.1 0 .1 0 .1-.1.1-.1 0-.2-.1-.4 0-.3.3-.4.4-.7 0-.1 0-.2.1-.3.1-.2.3-.2.5-.2.4-.1.7-.4 1.1-.4.4 0 .8.2.9.6.1 0 .1-.1.1-.2v-.3c0-.1.2-.2.3-.2.1 0 .2.1.4.1.5.3 1 .7 1.3 1.2.1.2.2.5.1.6-.1.1-.2.1-.2.1-.5.1-.8.6-1 1v.1c0 .1.1.1.1.2.1.2 0 .4-.1.5-.1.1-.3.3-.3.5v.3c0 .1-.1.2-.3.3h-.4c-.3 0-.6-.1-.9-.1-.4 0-.8-.1-1.2-.2-.1 0-.2-.1-.3-.1-.3-.1-.6 0-.8-.1l-.7-.7z"/>
        <path fill="#EBE3B2" d="M56.1 17.2c.2 0 .3 0 .5.1.2 0 .4 0 .4-.2v-.2c0-.1.1-.2.2-.2-.1-.1 0-.1 0-.2.1-.1.1-.1.2-.1.2 0 .4-.1.5-.1.3-.1.6-.1.8 0 .1.1.2.2.3.2.1.1.3 0 .4-.1.1-.1.2-.2.2-.4 0-.1 0-.2.1-.2.1-.1.3-.2.5-.1s.3.2.4.3c.1.1.1.2 0 .2h-.1c-.2 0-.3-.1-.5 0-.2 0-.3.2-.3.3 0 .2.2.3.1.5-.1.1-.2.1-.3.1-.2.1-.2.4-.4.5-.1.1-.3.1-.5.1s-.4.2-.6.3c-.4.1-.8-.1-1.1-.3-.2-.1-.4-.1-.6-.1-.2 0-.3.1-.5.1.1-.3.2-.5.3-.5z"/>
        <path fill="#FFFEDC" d="M55.6 18.1c0 .2.2.4.4.4.3 0 .6-.1.8-.2h-.2c-.1 0-.2 0-.3.1h-.1c.3-.1.4 0 .2-.1-.1 0-.1-.1-.2-.1-.1-.1-.1-.2-.1-.3 0 .1-.5.1-.5.2zM58.3 15.5s.1 0 .1-.1c.1 0 .1 0-.1.1.1 0 .1 0 .2.1h.3l.3-.1c-.1-.2-.3-.2-.5-.1-.3 0-.5.1-.7.2h.2s.1 0 .2-.1z"/>
        <path fill="#FFFEDC" d="M56.9 18v.7c0 .1-.1.2-.2.3h-.1.1H56.1s-.2 0-.1.1c.3 0 .7 0 1.1-.1.4-.2.3-.6.3-1 .1-.1-.5-.1-.5 0zM55.1 17.8c.2-.2.2-.4.3-.7 0-.1 0-.1.1-.2l.1-.1c-.1 0-.1 0-.1.1h.4c.2 0 .6 0 .6-.3v-.5l.3-.3c.1-.1.1-.3.2-.5s.4-.2.6-.2c.4 0 .8.1 1.2.2.2.1.6.1.7-.1.1-.1.1-.2.1-.3v-.2c0-.1.2.1.2 0 .4.2.3 0 .2-.1-.2-.1-.5-.2-.7-.1-.1.1-.2.1-.2.3 0 .1 0 .4-.1.4h.4c-.2 0-.3-.1-.5-.2s-.4-.1-.5-.1h-.9c-.3 0-.6.1-.9.2-.1 0-.2.1-.3.2-.1.1 0 .3-.1.5l-.3.3c-.1.1 0 .3 0 .5 0 0-.1.3.1.2H55.4c-.2 0-.4.1-.5.3-.1.2-.1.6-.3.7h.2c.1.1.3.1.3 0zM60.2 17.5c.2 0 .3 0 .5-.2.1-.2.1-.4.2-.6l.1-.1h-.1.4c.2 0 .4-.1.4-.3 0 0-.5 0-.5.1s0 .1-.1.1h.1-.3c-.1 0-.3 0-.4.1-.3.2-.2.6-.5.8 0 .1.1.1.2.1 0-.1-.3 0-.3 0 0 .1.2 0 .3 0zM58.9 18.8c.2 0 .5 0 .7-.2.1-.1.2-.3.1-.5h-.3l-.3.1c0 .1.1.2 0 .3 0 .1-.1.1-.1.1-.1.1-.3.1.1 0-.1 0-.3 0-.4.1.1.1.2.1.2.1z"/>
        <path fill="#fff" d="M56.2 19.5c-.1-.2-.2-.4-.1-.5.1-.2.3-.2.5-.2.3-.1.6-.1.9-.1h.5c.1 0 .2.1.3.1.1 0 .3-.1.3-.2s.1-.3.1-.4c.1-.6.7-1 1.2-1.3.1-.1.2-.1.3 0 0 0 0 .1.1.1.3.8.4 1.6.3 2.5.4 0 .9.2 1 .6 0 .1.1.1 0 .2l-.1.1c-.5.2-.9.6-1.5.7-.1 0-.3 0-.4.1-.5 0-1 .1-1.5.1h-.9c-.3-.1-.6-.2-.7-.5-.2-.3-.1-.4 0-.7 0-.2.1-.1-.1-.3 0-.1-.1-.2-.2-.3z"/>
        <path stroke="#FFFEDC" stroke-miterlimit="10" stroke-width=".117" d="M56.2 19.5c-.1-.2-.2-.4-.1-.5.1-.2.3-.2.5-.2.3-.1.6-.1.9-.1h.5c.1 0 .2.1.3.1.1 0 .3-.1.3-.2s.1-.3.1-.4c.1-.6.7-1 1.2-1.3.1-.1.2-.1.3 0 0 0 0 .1.1.1.3.8.4 1.6.3 2.5.4 0 .9.2 1 .6 0 .1.1.1 0 .2l-.1.1c-.5.2-.9.6-1.5.7-.1 0-.3 0-.4.1-.5 0-1 .1-1.5.1h-.9c-.3-.1-.6-.2-.7-.5-.2-.3-.1-.4 0-.7 0-.2.1-.1-.1-.3 0-.1-.1-.2-.2-.3z"/>
        <path fill="#EBE3B2" d="M56.8 19.3c-.1-.1-.2-.1-.4-.2-.1-.1-.2-.2-.1-.3l.1-.1c.6-.2 1.4-.2 2 .1.1-.4.2-.8.4-1.2.3-.3.7-.5 1.1-.3.4.2.5.8.4 1.2 0 .1-.1.3-.1.4-.2.3-.7.4-1 .7l-.3.3c-.1.1-.3 0-.4-.1-.2 0-.4.2-.6.3h-.4c-.2 0-.4.3-.6.1-.2-.2.1-.6-.1-.9z"/>
        <path fill="#FFFEDC" d="M57 20.5c.1.3.4.4.7.4.3 0 .6 0 .8-.2h-.2c-.1 0-.3 0-.3.1l-.1.1h.1c-.1 0-.1 0-.2-.1-.2-.1-.3-.1-.3-.3.1-.1-.5 0-.5 0zM59.8 20.4c.1.1.1.1.2.1.2 0 .4 0 .5-.1.2-.1.4-.2.3-.4 0-.1-.5.1-.5.1v.3s-.1 0-.1.1H60.4c-.1 0-.1 0-.1-.1H60c0-.1-.3 0-.2 0z"/>
        <path fill="#FFFEDC" d="M56.8 21.1c.8.6 1.9.3 2.8.2.5-.1 1-.1 1.4-.5.3-.3.4-.7.2-1 0-.1-.1-.3-.2-.3s0 0 0 .1c.1.4-.2.8-.6 1-.4.2-.9.2-1.3.3-.8.1-1.8.3-2.6-.2v.2c.2.1.3.2.3.2zM58.7 17.8c.2-.4.5-.6.9-.6.1 0 .2-.4.2-.4-.7.1-1.2.6-1.5 1.2 0 .1.1.1.1.1.1 0 .1-.1.2-.2v-.1h.1z"/>
        <path fill="#fff" d="M21.7 70.9L15 24.6s.5-.2 2.8 0 3.3 1.2 3.3 1.2 1.8-1.1 3.1-1.3c1.3-.2 3.7.4 3.7.4s1.6-.9 3-.9 3.3.8 3.3.8.9-.7 3.2-.7c2.3.1 3.5.8 3.5.8s1.6-.7 4-.7 3.5.9 3.5.9 2.4-.8 4.7-.8c2.2.1 4 1 4 1s2.4-1.3 4.5-1.2c2 0 2.6.8 2.6.8l-6.5 46.2-36-.2z"/>
        <path fill="red" d="M26.1 71L21 25.8s-.5-.7-3.3-1.2c-2.8-.4-2.8 0-2.8 0l6.7 46.3 4.5.1zM35.9 71l-1.8-46.2s-1.8-.8-3.3-.8c-1.6 0-3 .9-3 .9L31.4 71h4.5zM47.6 71.1l.8-46s-1-.8-3.5-.9c-2.5-.1-4 .7-4 .7v46.2h6.7zM53.2 71.1l4.1-45.8s1.7-1.3 4.3-1.2c2.6 0 2.6.8 2.6.8l-6.5 46.2h-4.5z"/>
    </g>
    <defs>
        <clipPath id="prefix__clip0">
            <path fill="#fff" d="M0 0H80V80H0z"/>
        </clipPath>
    </defs>
</svg>
