<svg xmlns="http://www.w3.org/2000/svg" width="90" height="80" fill="none" viewBox="0 0 90 80">
    <path fill="#fff" d="M78.5 62H11.7c-4.4 0-8-3.6-8-8V12.6c0-4.4 3.6-8 8-8h66.8c4.4 0 8 3.6 8 8V54c0 4.4-3.6 8-8 8zM69.6 71.1h-15v-7.9H35.2v7.9h-15c-1.1 0-2 .9-2 2s.9 2 2 2h49.4c1.1 0 2-.9 2-2s-.9-2-2-2z"/>
    <path fill="#8F9196" d="M45.6 59.9c1.325 0 2.4-1.075 2.4-2.4s-1.075-2.4-2.4-2.4-2.4 1.075-2.4 2.4 1.075 2.4 2.4 2.4z"/>
    <path fill="#9D91C6" stroke="#231F20" stroke-linecap="round" stroke-linejoin="round" stroke-miterlimit="10" stroke-width=".839" d="M81.9 50.8H8.5V15.3c0-3.7 3-6.7 6.7-6.7h60.1c3.7 0 6.7 3 6.7 6.7v35.5h-.1z"/>
    <path fill="#DF4446" stroke="#231F20" stroke-miterlimit="10" stroke-width="1.285" d="M50.7 17.9h-9.6V21h9.6v-3.1z"/>
    <path fill="#ACBFCC" d="M47.4 18.4h-3.1v1.8h3.1v-1.8z"/>
    <path fill="#3D444D" stroke="#231F20" stroke-miterlimit="10" stroke-width="1.285" d="M24.6 43.4c2.264 0 4.1-1.836 4.1-4.1 0-2.264-1.836-4.1-4.1-4.1-2.264 0-4.1 1.836-4.1 4.1 0 2.264 1.836 4.1 4.1 4.1z"/>
    <path fill="#3D444D" stroke="#231F20" stroke-miterlimit="10" stroke-width="1.285" d="M27.8 43.4c2.264 0 4.1-1.836 4.1-4.1 0-2.264-1.836-4.1-4.1-4.1-2.264 0-4.1 1.836-4.1 4.1 0 2.264 1.836 4.1 4.1 4.1zM39.4 43.4c2.264 0 4.1-1.836 4.1-4.1 0-2.264-1.836-4.1-4.1-4.1-2.264 0-4.1 1.836-4.1 4.1 0 2.264 1.836 4.1 4.1 4.1zM55 43.4c2.264 0 4.1-1.836 4.1-4.1 0-2.264-1.836-4.1-4.1-4.1-2.264 0-4.1 1.836-4.1 4.1 0 2.264 1.836 4.1 4.1 4.1z"/>
    <path fill="#68737E" d="M64.3 40.3H19.2v-5.8s.7-2.9 2.5-4.2c1.3-.9 4-1.5 4-1.5s4.5-4.1 8.1-5.7c3.6-1.6 5.1-1.7 6.7-1.7 1.7-.1 10.4-.7 12.9 0S63.1 26.8 64 28c.6 1.2.3 12.3.3 12.3z"/>
    <path fill="#505660" d="M24.8 32.4h6v3.4h1.8l-3 4-4.4.1-2.3-4.3h1.8l.1-3.2z"/>
    <path fill="#529DDF" d="M26.4 28.1s7.3-6.2 12.1-6.5c4.8-.3 10.5-.5 10.5-.5s2.3-.6 4.2.3c1.9.8 8.1 4.6 8.1 4.6s-2.5 3-3.7 3.4c-1.2.3-13.8.3-15 .4-1.2 0-17.3-.4-17.3-.4l1.1-1.3z"/>
    <path fill="#4384C3" d="M52.1 29.1h-11l6.3-7.4 6.2-.2-1.5 7.6z"/>
    <path fill="#D3E3EF" d="M58.3 29.4H41.4v10.9h16.9V29.4z"/>
    <path stroke="#231F20" stroke-miterlimit="10" stroke-width="1.285" d="M23.6 29.4h29.3s3.3.1 4.5-.4c1.2-.5 3.8-2.5 3.8-2.5"/>
    <path stroke="#231F20" stroke-linejoin="round" stroke-miterlimit="10" stroke-width="1.285" d="M19.5 35.6h16.4l1.7-3.4h-17"/>
    <path stroke="#231F20" stroke-miterlimit="10" stroke-width="1.285" d="M29.7 40.4l2.9-4.8M24.8 40.2l-2.1-4.6"/>
    <path fill="#231F20" d="M24.7 32.2h-1.8v3h1.8v-3zM32.1 32.2h-1.7v3h1.7v-3z"/>
    <path fill="#FED8B4" d="M35.6 35h-3.3c-.7 0-1.2-.5-1.2-1.2s.5-1.2 1.2-1.2h4.3l-1 2.4z"/>
    <path fill="#DF4446" d="M63.8 29.7l.5 5.1-4.1-3.4 1.7-1.3 1.9-.4z"/>
    <path fill="#FED8B4" d="M19.7 35h3c.7 0 1.2-.5 1.2-1.2s-.5-1.2-1.2-1.2h-2.4l-.6 2.4z"/>
    <path stroke="#231F20" stroke-linejoin="round" stroke-miterlimit="10" stroke-width=".643" d="M63.8 29.7s-1.4 0-2.2.5c-.8.5-1.4 1.3-1.4 1.3l4.2 3.7"/>
    <path fill="#231F20" d="M49.6 31.9h-2.2v1h2.2v-1zM56.2 31.9s.6-.2.8-.3c.2-.1 1 .8 1 .8s-.5.5-.9.5h-.9v-1z"/>
    <path stroke="#231F20" stroke-miterlimit="10" stroke-width="1.285" d="M53.6 21.5L52 29.3M49.7 21c-1.3 0-3 1.2-4 2.4s-4.8 5.9-4.8 5.9"/>
    <path fill="#505660" stroke="#231F20" stroke-linejoin="round" stroke-miterlimit="10" stroke-width="1.285" d="M46.2 29.1h-5.1l2.5-3.1h2.9l-.3 3.1z"/>
    <path stroke="#231F20" stroke-miterlimit="10" stroke-width="1.285" d="M64.3 40.3H19.2v-5.8s.7-2.9 2.5-4.2c1.3-.9 4-1.5 4-1.5s4.5-4.1 8.1-5.7c3.6-1.6 5.1-1.7 6.7-1.7 1.7-.1 10.4-.7 12.9 0S63.1 26.8 64 28c.6 1.2.3 12.3.3 12.3z"/>
    <path fill="#3D444D" stroke="#231F20" stroke-miterlimit="10" stroke-width="1.285" d="M58.3 43.4c2.264 0 4.1-1.836 4.1-4.1 0-2.264-1.836-4.1-4.1-4.1-2.264 0-4.1 1.836-4.1 4.1 0 2.264 1.836 4.1 4.1 4.1z"/>
    <path fill="#000" d="M58.5 40.3c.442 0 .8-.358.8-.8 0-.442-.358-.8-.8-.8-.442 0-.8.358-.8.8 0 .442.358.8.8.8z"/>
    <path fill="#3D444D" stroke="#231F20" stroke-miterlimit="10" stroke-width="1.285" d="M42.6 43.4c2.264 0 4.1-1.836 4.1-4.1 0-2.264-1.836-4.1-4.1-4.1-2.264 0-4.1 1.836-4.1 4.1 0 2.264 1.836 4.1 4.1 4.1z"/>
    <path fill="#000" d="M42.6 40.1c.442 0 .8-.358.8-.8 0-.442-.358-.8-.8-.8-.442 0-.8.358-.8.8 0 .442.358.8.8.8z"/>
    <path stroke="#231F20" stroke-miterlimit="10" stroke-width="1.285" d="M44.3 17.9v2.8M47.4 17.9v2.8M52.7 19.1l3.2-.4M51.8 17.1l2.7-1.5M50 15.9l1.9-2.6M39.2 19l-3.2-.3M40.1 17.1l-2.7-1.6M41.8 15.8l-1.9-2.5"/>
    <path fill="#231F20" d="M81.3 31.4H62.5v18.8h18.8V31.4z"/>
    <path fill="#F8F0E5" d="M72.2 50.2V44h2.1l4.3 1.8 1 4.4h-7.4z"/>
    <path fill="#E9DBCF" d="M72.2 50.2V44h-2.1l-4.3 1.8-1.1 4.4h7.5zM78.6 45.8l-1.4 4.4h2.4l-1-4.4z"/>
    <path fill="#F8F0E5" d="M65.8 45.8l1.4 4.4h-2.5l1.1-4.4z"/>
    <path fill="#FCC270" d="M70.8 40.8l-.7 3.2c0 1.1.9 2.1 2.1 2.1V40.8h-1.4z"/>
    <path fill="#FDCC83" d="M73.6 40.8h-1.4V46.1c1.1 0 2.1-.9 2.1-2.1l-.7-3.2z"/>
    <path fill="#F8D098" d="M67.9 38.4c0 2.8 1.9 5.3 4.3 5.3V33.6c-2.4 0-4.3 2-4.3 4.8z"/>
    <path fill="#FFDDAD" d="M72.2 33.6v10.1c2.4 0 4.3-2.5 4.3-5.3s-2-4.8-4.3-4.8z"/>
    <path fill="#E9DBCF" d="M74.3 44l-2.1 2.1 1.3 1.2 1.2-2.8-.4-.5z"/>
    <path fill="#F8F0E5" d="M70.1 44l2.1 2.1-1.4 1.2-1.1-2.8.4-.5z"/>
    <path fill="#332E2A" d="M76.8 37.1c0-1.2-.6-2.4-1.5-3.2-.9-.7-2-1.2-3.1-1.2s-2.3.4-3.1 1.2c-.9.8-1.5 2-1.5 3.2 0 1.7.5 2.6.5 2.6l.3-3.3c.1-.5.5-.8 1-.8h5.8c.5 0 .9.4 1 .8l.3 3.3c-.2 0 .4-.9.3-2.6z"/>
    <path fill="#633C1A" d="M74.2 39.1c0 .2-.1.3-.3.3-.2 0-.3-.1-.3-.3 0-.2.1-.3.3-.3.2.1.3.2.3.3zM73.3 38.6c.5-.3 1-.4 1.5 0 .2.1.4-.2.2-.4-.6-.4-1.4-.4-2 0-.1.2.1.5.3.4zM70.1 39.1c0 .2.1.3.3.3.2 0 .3-.1.3-.3 0-.2-.1-.3-.3-.3-.1.1-.3.2-.3.3zM71.1 38.6c-.5-.3-1-.4-1.5 0-.2.1-.4-.2-.2-.4.6-.4 1.4-.4 2 0 .1.2-.1.5-.3.4z"/>
    <path fill="#897B72" d="M69.7 35.6s6.3 0 6.1 6.8c0 0 3-4.4 0-7.6-2.4-2.7-6-.7-6.1.8z"/>
</svg>
